<svg preserveAspectRatio="xMidYMid meet" width="100%" height="100%" overflow="hidden" style="display: block;" viewBox="0 0 84.3506 84.3506" fill="none" xmlns="http://www.w3.org/2000/svg">
<g id="chat bot ai 1">
<g clip-path="url(#clip0_5_178)">
<path id="Vector" d="M68.7301 0H15.6205C6.99353 0 0 6.99353 0 15.6205V68.7301C0 77.3571 6.99353 84.3506 15.6205 84.3506H68.7301C77.3571 84.3506 84.3506 77.3571 84.3506 68.7301V15.6205C84.3506 6.99353 77.3571 0 68.7301 0Z" fill="url(#paint0_linear_5_178)"/>
<path id="Vector_2" d="M61.7705 41.5995C62.3195 42.2042 62.8352 42.8107 63.3123 43.4167C67.015 48.117 68.0965 52.3624 66.3583 55.37C64.6205 58.3777 60.3995 59.5645 54.4731 58.7114C50.7969 58.1823 46.6786 56.911 42.4853 55.0406C40.2752 56.0268 38.086 56.8455 35.9713 57.4771C36.1816 58.118 36.4055 58.7366 36.6431 59.33C37.9388 62.5654 39.5621 64.7772 41.1708 65.579C41.4922 66.9612 42.2447 68.1799 43.2792 69.0855C43.0154 69.1217 42.7496 69.1406 42.4825 69.1406C39.006 69.1406 35.867 66.0821 33.6434 60.5285C33.3569 59.8125 33.0889 59.0631 32.839 58.2857C32.0402 58.4584 31.2565 58.6013 30.4926 58.7114C24.567 59.5641 20.346 58.3777 18.6078 55.37C16.8696 52.3624 17.9511 48.117 21.6535 43.4167C23.9507 40.5002 27.1103 37.5719 30.829 34.879C31.0798 32.4744 31.4643 30.1718 31.9741 28.0273C31.3133 27.8886 30.665 27.7731 30.0319 27.6819C26.5837 27.1856 23.8573 27.4831 22.3568 28.4711C21.7431 28.2845 21.0918 28.1828 20.4175 28.1828C19.662 28.1828 18.9364 28.3109 18.2587 28.543C18.3592 28.2975 18.4749 28.0592 18.6078 27.829C19.9783 25.4571 22.8919 24.2178 26.969 24.2178C28.0623 24.2178 29.2398 24.3073 30.493 24.4876C31.2569 24.5977 32.0405 24.7406 32.8395 24.9133C33.0889 24.1358 33.3569 23.3861 33.6438 22.6705C35.867 17.117 39.0064 14.0584 42.4825 14.0584C45.9589 14.0584 49.0983 17.117 51.3219 22.6705C52.7013 26.1165 53.6609 30.3143 54.1362 34.8781C56.0952 36.2968 57.8991 37.7807 59.5031 39.294C59.954 38.7914 60.3781 38.2884 60.7735 37.7866C62.9349 35.0424 64.0401 32.5273 63.9256 30.7337C64.9242 29.7965 65.6347 28.5577 65.9094 27.1633C66.0735 27.3747 66.2241 27.5962 66.3583 27.829C68.0969 30.8366 67.015 35.0815 63.3127 39.7824C62.8352 40.3884 62.3195 40.9948 61.7705 41.5995ZM54.9342 55.5167C59.3327 56.15 62.5576 55.4919 63.5604 53.7563C64.5637 52.0207 63.5218 48.9016 60.7735 45.4123C60.3781 44.9106 59.954 44.4072 59.5031 43.905C56.4499 46.7849 52.6752 49.5597 48.4812 51.9782C47.7719 52.3871 47.0597 52.78 46.3467 53.1579C49.3654 54.327 52.2819 55.1351 54.9342 55.5167ZM24.1926 45.4123C21.4444 48.9012 20.4028 52.0207 21.406 53.7563C22.409 55.4919 25.6334 56.15 30.0323 55.5167C30.6654 55.4259 31.3137 55.3103 31.9746 55.1717C31.0041 51.0903 30.4858 46.4373 30.4858 41.5995C30.4858 40.7817 30.5014 39.9694 30.5308 39.1637C28.008 41.1902 25.8492 43.309 24.1926 45.4123ZM33.7165 41.5995C33.7165 46.1751 34.1991 50.5537 35.1018 54.3703C38.8622 53.2432 42.8993 51.471 46.8658 49.1832C50.8327 46.8958 54.3874 44.2895 57.245 41.5995C54.3874 38.9099 50.8327 36.3032 46.8658 34.0158C42.8993 31.728 38.8622 29.9558 35.1018 28.8287C34.1986 32.6454 33.7165 37.0239 33.7165 41.5995ZM48.3222 23.869C46.6715 19.7469 44.4886 17.2859 42.4825 17.2859C40.4767 17.2859 38.2934 19.7469 36.6431 23.869C36.4055 24.4624 36.1816 25.081 35.9713 25.7218C39.9946 26.9233 44.2871 28.8018 48.4807 31.2207C49.1904 31.6297 49.887 32.0495 50.5711 32.4777C50.0755 29.2818 49.3174 26.3547 48.3222 23.869Z" fill="white"/>
<path id="Vector_3" d="M48.0806 62.0138L47.9892 63.2588C47.8881 64.6408 48.4089 65.9961 49.4098 66.9555L50.3117 67.8196C50.3929 67.8978 50.3317 68.0349 50.2195 68.0265L48.9732 67.9351C47.5898 67.8341 46.233 68.3543 45.2727 69.3541L44.4077 70.255C44.3295 70.3361 44.1922 70.2751 44.2006 70.1629L44.292 68.9179C44.3931 67.5359 43.8722 66.1806 42.8714 65.2212L41.9695 64.3571C41.8884 64.2789 41.9495 64.1418 42.0617 64.1502L43.308 64.2416C44.6915 64.3426 46.0482 63.8224 47.0085 62.8226L47.8735 61.9216C47.9515 61.8398 48.0888 61.9009 48.0806 62.0138Z" fill="white"/>
<path id="Vector_4" d="M17.3548 29.521L18.4856 30.0525C19.7409 30.642 21.194 30.642 22.4493 30.0524L23.5801 29.5209C23.6822 29.4732 23.7884 29.5794 23.7404 29.6811L23.2084 30.8107C22.6182 32.0647 22.6182 33.5164 23.2083 34.7704L23.7403 35.9C23.788 36.002 23.6817 36.1081 23.5799 36.0601L22.4492 35.5287C21.194 34.9392 19.7407 34.9392 18.4854 35.5288L17.3547 36.0603C17.2526 36.1079 17.1463 36.0018 17.1944 35.9001L17.7264 34.7705C18.3166 33.5165 18.3167 32.0648 17.7265 30.8108L17.1946 29.6812C17.1461 29.5792 17.2524 29.473 17.3548 29.521Z" fill="white"/>
<path id="Vector_5" d="M60.7103 21.9527L61.369 23.0136C62.1003 24.191 63.319 24.9817 64.6933 25.1701L65.9313 25.3396C66.043 25.3552 66.0743 25.5021 65.9785 25.5612L64.9165 26.2191C63.7378 26.9496 62.9463 28.1672 62.7576 29.5399L62.5879 30.7767C62.5723 30.8883 62.4253 30.9195 62.3661 30.8238L61.7076 29.7629C60.9762 28.5855 59.7574 27.7949 58.3832 27.6063L57.1451 27.4368C57.0335 27.4213 57.0023 27.2745 57.098 27.2153L58.1601 26.5574C59.3387 25.8268 60.1302 24.6094 60.319 23.2366L60.4886 21.9998C60.5036 21.8878 60.6506 21.8567 60.7103 21.9527Z" fill="white"/>
</g>
</g>
<defs>
<linearGradient id="paint0_linear_5_178" x1="-8.02245" y1="-8.47271" x2="60.2256" y2="99.6657" gradientUnits="userSpaceOnUse">
<stop stop-color="#3D3D3D"/>
<stop offset="0.973958" stop-color="#141414"/>
</linearGradient>
<clipPath id="clip0_5_178">
<rect width="84.3506" height="84.3506" rx="25.3052" fill="white"/>
</clipPath>
</defs>
</svg>
