<svg preserveAspectRatio="none" width="100%" height="100%" overflow="visible" style="display: block;" viewBox="0 0 34.6394 21.42" fill="none" xmlns="http://www.w3.org/2000/svg">
<g id="Group" opacity="0.5">
<path id="Vector" d="M0.214366 7.7239L0.428713 10.7105H1.88487e-05L0.214366 7.7239Z" fill="var(--fill-0, white)"/>
<path id="Vector_2" d="M0.214347 13.6963L0 10.7101H0.428694L0.214347 13.6963Z" fill="var(--fill-0, white)"/>
<path id="Vector_3" d="M1.17812 8.66457L1.39244 10.7095H0.964189L1.17812 8.66457Z" fill="var(--fill-0, white)"/>
<path id="Vector_4" d="M1.17807 12.7557L0.964145 10.7112H1.3924L1.17807 12.7557Z" fill="var(--fill-0, white)"/>
<path id="Vector_5" d="M2.14216 4.37157L2.35648 10.7093H1.92781L2.14216 4.37157Z" fill="var(--fill-0, white)"/>
<path id="Vector_6" d="M2.14219 17.0489L1.92784 10.7117H2.35651L2.14219 17.0489Z" fill="var(--fill-0, white)"/>
<path id="Vector_7" d="M3.10594 2.6064L3.32026 10.7097H2.89198L3.10594 2.6064Z" fill="var(--fill-0, white)"/>
<path id="Vector_8" d="M3.10591 18.8134L2.89196 10.7101H3.32023L3.10591 18.8134Z" fill="var(--fill-0, white)"/>
<path id="Vector_9" d="M4.07043 3.58025L4.28475 10.7111H3.85608L4.07043 3.58025Z" fill="var(--fill-0, white)"/>
<path id="Vector_10" d="M4.07045 17.8401L3.8561 10.7097H4.28477L4.07045 17.8401Z" fill="var(--fill-0, white)"/>
<path id="Vector_11" d="M5.03456 2.00406e-05L5.24891 10.7099H4.82024L5.03456 2.00406e-05Z" fill="var(--fill-0, white)"/>
<path id="Vector_12" d="M5.03457 21.42L4.82025 10.7107H5.24891L5.03457 21.42Z" fill="var(--fill-0, white)"/>
<path id="Vector_13" d="M5.99874 4.37157L6.21306 10.7093H5.78439L5.99874 4.37157Z" fill="var(--fill-0, white)"/>
<path id="Vector_14" d="M5.99874 17.049L5.78439 10.7117H6.21306L5.99874 17.049Z" fill="var(--fill-0, white)"/>
<path id="Vector_15" d="M6.96289 3.24883L7.17682 10.7102H6.74857L6.96289 3.24883Z" fill="var(--fill-0, white)"/>
<path id="Vector_16" d="M6.96288 18.171L6.74856 10.7097H7.17681L6.96288 18.171Z" fill="var(--fill-0, white)"/>
<path id="Vector_17" d="M7.92611 1.17727L8.14046 10.71H7.71218L7.92611 1.17727Z" fill="var(--fill-0, white)"/>
<path id="Vector_18" d="M7.92613 20.2429L7.7122 10.7106H8.14048L7.92613 20.2429Z" fill="var(--fill-0, white)"/>
<path id="Vector_19" d="M8.89016 4.09367L9.10448 10.7104H8.67581L8.89016 4.09367Z" fill="var(--fill-0, white)"/>
<path id="Vector_20" d="M8.89014 17.3269L8.67579 10.7107H9.10446L8.89014 17.3269Z" fill="var(--fill-0, white)"/>
<path id="Vector_21" d="M9.85387 5.98169L10.0682 10.7099H9.63997L9.85387 5.98169Z" fill="var(--fill-0, white)"/>
<path id="Vector_22" d="M9.85389 15.439L9.63999 10.7112H10.0682L9.85389 15.439Z" fill="var(--fill-0, white)"/>
<path id="Vector_23" d="M10.8179 7.7239L11.0323 10.7105H10.6036L10.8179 7.7239Z" fill="var(--fill-0, white)"/>
<path id="Vector_24" d="M10.8179 13.6963L10.6036 10.7101H11.0323L10.8179 13.6963Z" fill="var(--fill-0, white)"/>
<path id="Vector_25" d="M11.7821 2.70123L11.9964 10.7108H11.5677L11.7821 2.70123Z" fill="var(--fill-0, white)"/>
<path id="Vector_26" d="M11.7821 18.7188L11.5678 10.7097H11.9965L11.7821 18.7188Z" fill="var(--fill-0, white)"/>
<path id="Vector_27" d="M12.7462 4.0182L12.9605 10.7103H12.5319L12.7462 4.0182Z" fill="var(--fill-0, white)"/>
<path id="Vector_28" d="M12.7462 17.4017L12.5319 10.7096H12.9606L12.7462 17.4017Z" fill="var(--fill-0, white)"/>
<path id="Vector_29" d="M13.7104 7.77692L13.9247 10.7095H13.496L13.7104 7.77692Z" fill="var(--fill-0, white)"/>
<path id="Vector_30" d="M13.7104 13.6434L13.496 10.7112H13.9247L13.7104 13.6434Z" fill="var(--fill-0, white)"/>
<path id="Vector_31" d="M34.425 4.09318L34.2107 10.7099H34.6394L34.425 4.09318Z" fill="var(--fill-0, white)"/>
<path id="Vector_32" d="M34.4251 17.3264L34.6394 10.7101H34.2107L34.4251 17.3264Z" fill="var(--fill-0, white)"/>
<path id="Vector_33" d="M33.4615 5.98167L33.2469 10.7099H33.6753L33.4615 5.98167Z" fill="var(--fill-0, white)"/>
<path id="Vector_34" d="M33.4615 15.439L33.6753 10.7111H33.2469L33.4615 15.439Z" fill="var(--fill-0, white)"/>
<path id="Vector_35" d="M32.4975 7.7239L32.2829 10.7104H32.7118L32.4975 7.7239Z" fill="var(--fill-0, white)"/>
<path id="Vector_36" d="M32.4975 13.6963L32.7118 10.7102H32.2829L32.4975 13.6963Z" fill="var(--fill-0, white)"/>
<path id="Vector_37" d="M31.5331 2.70124L31.3188 10.7108H31.7475L31.5331 2.70124Z" fill="var(--fill-0, white)"/>
<path id="Vector_38" d="M31.5331 18.7188L31.7475 10.7096H31.3188L31.5331 18.7188Z" fill="var(--fill-0, white)"/>
<path id="Vector_39" d="M30.5691 4.0182L30.3547 10.7103H30.7834L30.5691 4.0182Z" fill="var(--fill-0, white)"/>
<path id="Vector_40" d="M30.5691 17.4017L30.7834 10.7096H30.3548L30.5691 17.4017Z" fill="var(--fill-0, white)"/>
<path id="Vector_41" d="M29.6048 7.77691L29.3904 10.7095H29.8193L29.6048 7.77691Z" fill="var(--fill-0, white)"/>
<path id="Vector_42" d="M29.6048 13.6434L29.8194 10.7112H29.3905L29.6048 13.6434Z" fill="var(--fill-0, white)"/>
</g>
</svg>
