<svg preserveAspectRatio="none" width="100%" height="100%" overflow="visible" style="display: block;" viewBox="0 0 15.3609 27.8441" fill="none" xmlns="http://www.w3.org/2000/svg">
<g id="Group">
<path id="Vector" d="M1.86573 0.394796H13.4951C14.3059 0.394874 14.9661 1.05507 14.9661 1.86575V25.9783C14.9661 26.7891 14.3059 27.4493 13.4951 27.4493H1.86573C1.05501 27.4493 0.394848 26.7891 0.394796 25.9783V1.86575C0.394796 1.05499 1.05499 0.394796 1.86573 0.394796ZM7.68179 23.9846C7.02081 23.9846 6.49193 24.5182 6.49193 25.1745C6.49193 25.8308 7.02081 26.3646 7.68179 26.3646C8.34094 26.3646 8.86904 25.83 8.86904 25.1745C8.86904 24.5193 8.34094 23.9846 7.68179 23.9846ZM1.86573 0.466166C1.09383 0.466192 0.466166 1.09378 0.466166 1.86575V23.3305H14.8946V1.86575C14.8943 1.09378 14.267 0.466245 13.4951 0.466166H1.86573Z" fill="var(--fill-0, white)" stroke="var(--stroke-0, white)" stroke-width="0.789591"/>
<path id="Vector_2" d="M9.65849 3.15746H5.70308C5.465 3.15746 5.27235 2.96473 5.27235 2.72691C5.27235 2.48907 5.46526 2.29634 5.70308 2.29634H9.65849C9.8963 2.29634 10.0892 2.48907 10.0892 2.72691C10.0892 2.96473 9.8963 3.15746 9.65849 3.15746Z" fill="var(--fill-0, white)"/>
<path id="Vector_3" d="M8.92933 15.6394C8.92933 16.2747 8.48163 16.8097 7.87209 16.9713C7.74939 17.0038 7.61991 17.0213 7.48652 17.0213C6.68954 17.0213 6.04318 16.4026 6.04318 15.6394L7.48887 14.9281L8.92933 15.6394Z" fill="var(--fill-0, white)"/>
<path id="Vector_4" d="M8.85966 16.0672C8.71113 16.5062 8.33913 16.8491 7.87238 16.9728C7.5787 16.8951 7.32287 16.7308 7.13622 16.5105C6.98586 16.3328 7.1216 16.0672 7.36046 16.0672H8.85966Z" fill="var(--fill-0, white)"/>
<path id="Vector_5" d="M11.2122 14.2577L8.11174 14.8997L3.76013 14.2577C4.10159 14.2577 4.29469 14.0867 4.40427 13.8031C4.93446 12.434 3.52237 8.44373 7.48627 8.44373C11.45 8.44373 10.0378 12.434 10.5679 13.8031C10.6778 14.0867 10.8708 14.2577 11.2122 14.2577Z" fill="var(--fill-0, white)"/>
<path id="Vector_6" d="M11.9335 14.947C11.9335 15.3285 11.6106 15.6378 11.2122 15.6378H3.76011C3.56096 15.6378 3.3805 15.5605 3.24997 15.4355C3.11937 15.3105 3.03868 15.1377 3.03868 14.947C3.03868 14.5654 3.36173 14.2561 3.76011 14.2561H11.2122C11.4114 14.2561 11.5918 14.3335 11.7223 14.4585C11.8528 14.5835 11.9335 14.7562 11.9335 14.947Z" fill="var(--fill-0, white)"/>
<path id="Vector_7" d="M11.933 14.947C11.933 15.3285 11.6101 15.6378 11.2114 15.6378H5.84455C5.64537 15.6378 5.46472 15.5605 5.3342 15.4355C5.20367 15.3105 5.12301 15.1377 5.12301 14.947C5.12301 14.5654 5.44593 14.2561 5.84455 14.2561H11.2114C11.4106 14.2561 11.5913 14.3335 11.7218 14.4585C11.8523 14.5835 11.933 14.7562 11.933 14.947Z" fill="var(--fill-0, white)"/>
<path id="Vector_8" d="M8.21928 8.49675C8.22084 8.47934 8.22137 8.46172 8.22137 8.44386C8.22137 8.05503 7.89218 7.7396 7.48599 7.7396C7.07954 7.7396 6.75036 8.05503 6.75036 8.44386C6.75036 8.46172 6.75114 8.47934 6.75271 8.49675" fill="var(--fill-0, white)"/>
<path id="Vector_9" d="M11.0684 10.7805C10.9864 10.7805 10.9201 10.7169 10.9201 10.6385C10.9201 9.98098 10.7436 9.41986 10.3954 8.9707C10.1356 8.63538 9.8712 8.49107 9.86859 8.48959C9.79733 8.45126 9.77174 8.36488 9.81142 8.29646C9.85136 8.22812 9.94116 8.20335 10.0127 8.24117C10.0252 8.24788 10.3257 8.40934 10.6233 8.78791C10.894 9.1325 11.2169 9.73327 11.2169 10.6385C11.2169 10.7169 11.1503 10.7805 11.0684 10.7805Z" fill="var(--fill-0, white)"/>
<path id="Vector_10" d="M11.7213 9.96685C11.6393 9.96685 11.573 9.90326 11.573 9.82478C11.573 8.91795 11.012 8.55742 10.9882 8.54257C10.9198 8.49986 10.9 8.41212 10.9441 8.34641C10.9885 8.28068 11.0793 8.26129 11.1483 8.30329C11.1778 8.3212 11.8698 8.75522 11.8698 9.82478C11.8698 9.90326 11.8032 9.96685 11.7213 9.96685Z" fill="var(--fill-0, white)"/>
<path id="Vector_11" d="M3.90394 10.7806C3.822 10.7806 3.75559 10.717 3.75559 10.6386C3.75559 9.73333 4.0784 9.13256 4.34916 8.78797C4.64675 8.4094 4.94709 8.24789 4.95972 8.24123C5.03146 8.20327 5.12178 8.22818 5.16141 8.29689C5.20109 8.36544 5.17498 8.45169 5.10364 8.4897C5.09782 8.49288 4.83533 8.63755 4.577 8.97076C4.22884 9.41992 4.05237 9.98104 4.05237 10.6386C4.05229 10.717 3.98588 10.7806 3.90394 10.7806Z" fill="var(--fill-0, white)"/>
<path id="Vector_12" d="M3.25129 9.9669C3.16935 9.9669 3.10294 9.90331 3.10294 9.82483C3.10294 8.75527 3.795 8.32124 3.82445 8.30331C3.8936 8.26118 3.98531 8.28073 4.02932 8.34685C4.07315 8.41287 4.05305 8.5004 3.98434 8.54259C3.95972 8.55804 3.39964 8.91868 3.39964 9.82483C3.39964 9.90331 3.33323 9.9669 3.25129 9.9669Z" fill="var(--fill-0, white)"/>
</g>
</svg>
