<svg width="42" height="42" viewBox="0 0 42 42" fill="none" xmlns="http://www.w3.org/2000/svg">
  <rect width="42" height="42" rx="9" fill="url(#bg)"/>
  <!-- Phone body -->
  <g transform="translate(13, 5) scale(0.95)">
    <rect x="2" y="1" width="13" height="25" rx="2" stroke="white" stroke-width="1.2" fill="none"/>
    <circle cx="8.5" cy="23" r="1.2" stroke="white" stroke-width="0.8" fill="none"/>
    <rect x="5.5" y="2.5" width="5.5" height="0.8" rx="0.4" fill="white" opacity="0.8"/>
    <line x1="2" y1="21" x2="15" y2="21" stroke="white" stroke-width="0.6" opacity="0.4"/>
  </g>
  <!-- Hand/clap waves -->
  <g transform="translate(4, 12)" fill="none" stroke="white" stroke-width="1" opacity="0.7">
    <path d="M9 4 C7 2, 5 3, 4 6"/>
    <path d="M7 6 C5.5 4.5, 3.5 5, 2.5 7.5"/>
    <path d="M10 8 C8 6, 6 7, 5 10"/>
  </g>
  <!-- Small star/sparkle -->
  <circle cx="32" cy="10" r="1.5" fill="white" opacity="0.6"/>
  <circle cx="8" cy="8" r="1" fill="white" opacity="0.4"/>
  <defs>
    <linearGradient id="bg" x1="42" y1="42" x2="27" y2="14" gradientUnits="userSpaceOnUse">
      <stop stop-color="#9F44EE"/>
      <stop offset="1" stop-color="#C76BFF"/>
    </linearGradient>
  </defs>
</svg>