<svg preserveAspectRatio="xMidYMid meet" width="100%" height="100%" overflow="hidden" style="display: block;" viewBox="0 0 41.0366 41.0366" fill="none" xmlns="http://www.w3.org/2000/svg">
<g id="Group">
<path id="Vector" d="M35.9071 0H5.12959C2.2966 0 5.89896e-06 2.29659 5.89896e-06 5.12958V35.9071C5.89896e-06 38.74 2.2966 41.0366 5.12959 41.0366H35.9071C38.74 41.0366 41.0366 38.74 41.0366 35.9071V5.12958C41.0366 2.29659 38.74 0 35.9071 0Z" fill="white"/>
<path id="Vector_2" d="M20.5183 0H5.89896e-06V20.5183H20.5183V0Z" fill="#C84D52"/>
<path id="Vector_3" d="M41.0366 20.5183H20.5183V41.0366H41.0366V20.5183Z" fill="#388E3C"/>
<path id="Vector_4" d="M20.5183 20.5183H0V41.0366H20.5183V20.5183Z" fill="#D46549"/>
<path id="Vector_5" d="M41.0366 8.46785e-06H20.5183V20.5183H41.0366V8.46785e-06Z" fill="#1976D2"/>
<path id="Vector_6" d="M8.67562 7.11729H15.0565L17.607 9.66805C17.6102 9.68177 17.6148 9.71296 17.6148 9.778V18.9837C17.61 18.989 17.6035 18.9959 17.5945 19.003C17.5628 19.0278 17.5229 19.0435 17.4856 19.0436H8.67562C8.63825 19.0436 8.59839 19.0278 8.56666 19.003C8.55764 18.9959 8.55115 18.989 8.54638 18.9837V7.34822L8.54763 7.31016C8.55325 7.22608 8.57705 7.17812 8.59695 7.15386C8.61734 7.12903 8.64238 7.11729 8.67562 7.11729Z" stroke="white" stroke-width="0.384718"/>
<path id="Vector_7" d="M15.004 7.30967V9.91455H17.6089L15.004 7.30967Z" fill="white"/>
<path id="Vector_8" fill-rule="evenodd" clip-rule="evenodd" d="M8.77791 19.2359H17.3829C17.5564 19.2359 17.697 19.0729 17.697 18.8717V15.004H8.46378V18.8717C8.46378 19.0729 8.60443 19.2359 8.77791 19.2359ZM9.61793 18.6589V15.7735H10.6567C10.8695 15.7735 11.048 15.8148 11.1923 15.8975C11.3374 15.9801 11.447 16.0938 11.5209 16.2384C11.5958 16.3821 11.6332 16.5456 11.6332 16.7287C11.6332 16.9137 11.5958 17.0781 11.5209 17.2218C11.4461 17.3655 11.3356 17.4787 11.1896 17.5613C11.0435 17.6431 10.8636 17.6839 10.6499 17.6839H10.1197V18.6589H9.61793ZM10.5823 17.2542H10.1197V16.2102H10.5796C10.7049 16.2102 10.8073 16.2323 10.8866 16.2765C10.9669 16.3197 11.0259 16.3802 11.0638 16.4582C11.1026 16.5361 11.122 16.6263 11.122 16.7287C11.122 16.8311 11.1026 16.9217 11.0638 17.0006C11.0259 17.0795 10.9673 17.1415 10.888 17.1866C10.8086 17.2317 10.7067 17.2542 10.5823 17.2542ZM12.8935 18.6589H11.9548V15.7735H12.9124C13.1874 15.7735 13.4236 15.8312 13.6211 15.9468C13.8195 16.0614 13.9718 16.2262 14.0783 16.4413C14.1846 16.6564 14.2378 16.9137 14.2378 17.2134C14.2378 17.5139 14.1842 17.7722 14.0769 17.9883C13.9705 18.2043 13.8168 18.37 13.6157 18.4856C13.4155 18.6011 13.1748 18.6589 12.8935 18.6589ZM12.4566 18.2066H12.8691C13.0621 18.2066 13.223 18.17 13.3519 18.0967C13.4809 18.0225 13.5778 17.9122 13.6427 17.7656C13.7077 17.6182 13.7401 17.4341 13.7401 17.2134C13.7401 16.9926 13.7077 16.8095 13.6427 16.6639C13.5778 16.5174 13.4818 16.408 13.3547 16.3356C13.2284 16.2624 13.0715 16.2257 12.884 16.2257H12.4566V18.2066ZM14.6003 15.7735V18.6589H15.1021V17.4331H16.2531V16.995H15.1021V16.2116H16.3749V15.7735H14.6003Z" fill="white"/>
<path id="Vector_9" d="M9.23321 7.69438H14.6193V10.3874H16.9276V14.6193H9.23321V7.69438Z" fill="white"/>
<path id="Vector_10" d="M24.0644 7.11729H30.4453L32.9957 9.66805C32.9991 9.68177 33.0037 9.71296 33.0037 9.778V18.9837C32.9988 18.989 32.9924 18.9959 32.9834 19.003C32.9516 19.0278 32.9116 19.0435 32.8744 19.0436H24.0644C24.027 19.0436 23.9872 19.0278 23.9555 19.003C23.9464 18.9959 23.9399 18.989 23.9352 18.9837V7.34822L23.9364 7.31016C23.942 7.22608 23.9658 7.17812 23.9857 7.15386C24.0061 7.12903 24.0312 7.11729 24.0644 7.11729Z" stroke="white" stroke-width="0.384718"/>
<path id="Vector_11" d="M30.393 7.30967V9.91455H32.9978L30.393 7.30967Z" fill="white"/>
<path id="Vector_12" fill-rule="evenodd" clip-rule="evenodd" d="M24.1666 19.2359H32.7716C32.9452 19.2359 33.0858 19.0729 33.0858 18.8717V15.004H23.8525V18.8717C23.8525 19.0729 23.9932 19.2359 24.1666 19.2359ZM29.7369 17.2162C29.7369 17.5188 29.6802 17.778 29.5669 17.9937C29.4543 18.2086 29.3006 18.3732 29.106 18.4874C28.9121 18.6017 28.6923 18.6589 28.4463 18.6589C28.2003 18.6589 27.98 18.6017 27.7854 18.4874C27.5915 18.3723 27.4378 18.2072 27.3245 17.9924C27.2121 17.7766 27.156 17.5179 27.156 17.2162C27.156 16.9136 27.2121 16.6548 27.3245 16.44C27.4378 16.2242 27.5915 16.0592 27.7854 15.9449C27.98 15.8306 28.2003 15.7735 28.4463 15.7735C28.6923 15.7735 28.9121 15.8306 29.106 15.9449C29.3006 16.0592 29.4543 16.2242 29.5669 16.44C29.6802 16.6548 29.7369 16.9136 29.7369 17.2162ZM29.2252 17.2162C29.2252 17.0031 29.1919 16.8235 29.1252 16.6772C29.0593 16.53 28.968 16.4189 28.8508 16.344C28.7338 16.2681 28.5989 16.2301 28.4463 16.2301C28.2937 16.2301 28.1588 16.2681 28.0418 16.344C27.9246 16.4189 27.8328 16.53 27.7661 16.6772C27.7002 16.8235 27.6674 17.0031 27.6674 17.2162C27.6674 17.4292 27.7002 17.6093 27.7661 17.7565C27.8328 17.9028 27.9246 18.0138 28.0418 18.0897C28.1588 18.1647 28.2937 18.2022 28.4463 18.2022C28.5989 18.2022 28.7338 18.1647 28.8508 18.0897C28.968 18.0138 29.0593 17.9028 29.1252 17.7565C29.1919 17.6093 29.2252 17.4292 29.2252 17.2162ZM25.5737 18.6205H24.622V15.8119H25.5929C25.8718 15.8119 26.1113 15.8681 26.3114 15.9806C26.5127 16.0921 26.6671 16.2526 26.7751 16.4619C26.8828 16.6713 26.9369 16.9218 26.9369 17.2134C26.9369 17.506 26.8826 17.7574 26.7736 17.9677C26.6658 18.178 26.5099 18.3393 26.306 18.4518C26.1031 18.5643 25.8589 18.6205 25.5737 18.6205ZM25.1307 18.1803H25.549C25.7446 18.1803 25.9079 18.1446 26.0385 18.0733C26.1693 18.001 26.2675 17.8936 26.3334 17.751C26.3993 17.6075 26.4322 17.4283 26.4322 17.2134C26.4322 16.9986 26.3993 16.8203 26.3334 16.6786C26.2675 16.536 26.1703 16.4294 26.0413 16.3591C25.9133 16.2877 25.7543 16.2521 25.5641 16.2521H25.1307V18.1803ZM31.916 16.7595H32.4287C32.4076 16.6032 32.363 16.4642 32.2943 16.3426C32.2268 16.2201 32.1404 16.1168 32.0352 16.0327C31.9301 15.9477 31.8103 15.8832 31.6759 15.8393C31.5415 15.7954 31.3961 15.7735 31.2399 15.7735C30.9947 15.7735 30.7754 15.8306 30.5815 15.9449C30.3876 16.0592 30.2345 16.2242 30.1221 16.44C30.0095 16.6548 29.9534 16.9136 29.9534 17.2162C29.9534 17.5179 30.0093 17.7766 30.1206 17.9924C30.2322 18.2081 30.385 18.3732 30.5787 18.4874C30.7726 18.6017 30.9929 18.6589 31.2399 18.6589C31.4071 18.6589 31.5592 18.6342 31.6964 18.5848C31.8336 18.5345 31.9534 18.465 32.0557 18.3764C32.1581 18.2868 32.2409 18.1835 32.304 18.0664C32.3679 17.9494 32.4097 17.8242 32.4287 17.6907L31.916 17.6879C31.9003 17.7702 31.8718 17.8433 31.8308 17.9074C31.7905 17.9713 31.7408 18.0253 31.6813 18.0692C31.6228 18.1131 31.5566 18.1464 31.4825 18.1693C31.4094 18.1912 31.3307 18.2022 31.2465 18.2022C31.095 18.2022 30.9601 18.1652 30.8421 18.0911C30.7251 18.0162 30.6328 17.9055 30.5651 17.7592C30.4984 17.612 30.4651 17.431 30.4651 17.2162C30.4651 17.005 30.4984 16.8262 30.5651 16.68C30.6318 16.5328 30.7241 16.4212 30.8421 16.3453C30.9601 16.2686 31.0952 16.2301 31.2481 16.2301C31.334 16.2301 31.414 16.242 31.4879 16.2658C31.563 16.2887 31.6297 16.3229 31.6882 16.3687C31.7467 16.4144 31.7957 16.4702 31.8349 16.536C31.8741 16.6009 31.9013 16.6754 31.916 16.7595Z" fill="white"/>
<path id="Vector_13" d="M30.008 9.23326H24.622V9.61798H30.008V9.23326Z" fill="white"/>
<path id="Vector_14" d="M30.008 8.07908H24.622V8.4638H30.008V8.07908Z" fill="white"/>
<path id="Vector_15" d="M32.3163 10.3874H24.622V10.7721H32.3163V10.3874Z" fill="white"/>
<path id="Vector_16" d="M32.3163 11.5416H24.622V11.9263H32.3163V11.5416Z" fill="white"/>
<path id="Vector_17" d="M32.3163 12.6957H24.622V13.0804H32.3163V12.6957Z" fill="white"/>
<path id="Vector_18" d="M32.3163 13.8499H24.622V14.2346H32.3163V13.8499Z" fill="white"/>
<path id="Vector_19" d="M8.67562 22.506H15.0565L17.607 25.0568C17.6102 25.0705 17.6148 25.1017 17.6148 25.1667V34.3725C17.61 34.3777 17.6035 34.3846 17.5945 34.3918C17.5628 34.4164 17.5229 34.4323 17.4856 34.4323H8.67562C8.63825 34.4323 8.59839 34.4164 8.56666 34.3918C8.55764 34.3846 8.55115 34.3777 8.54638 34.3725V22.737L8.54763 22.6989C8.55325 22.6148 8.57705 22.5669 8.59695 22.5426C8.61734 22.5178 8.64238 22.506 8.67562 22.506Z" stroke="white" stroke-width="0.384718"/>
<path id="Vector_20" d="M15.004 22.6984V25.3033H17.6089L15.004 22.6984Z" fill="white"/>
<path id="Vector_21" fill-rule="evenodd" clip-rule="evenodd" d="M8.77791 34.6247H17.3829C17.5564 34.6247 17.697 34.4615 17.697 34.2605V30.3928H8.46378V34.2605C8.46378 34.4615 8.60443 34.6247 8.77791 34.6247ZM9.61793 34.0476V31.1622H10.7C10.9216 31.1622 11.1076 31.2035 11.2579 31.2861C11.4091 31.3689 11.5232 31.4825 11.6002 31.6272C11.6782 31.7708 11.7172 31.9342 11.7172 32.1173C11.7172 32.3025 11.6782 32.4669 11.6002 32.6105C11.5223 32.7542 11.4072 32.8675 11.2551 32.9501C11.1029 33.0317 10.9155 33.0727 10.6929 33.0727H10.1406V34.0476H9.61793ZM10.6225 32.6429H10.1406V31.599H10.6196C10.7502 31.599 10.8568 31.621 10.9395 31.6652C11.0231 31.7085 11.0846 31.769 11.124 31.847C11.1644 31.925 11.1846 32.015 11.1846 32.1173C11.1846 32.2199 11.1644 32.3105 11.124 32.3895C11.0846 32.4682 11.0235 32.5303 10.9409 32.5754C10.8582 32.6203 10.7521 32.6429 10.6225 32.6429ZM12.0521 34.0476V31.1622H13.1342C13.3558 31.1622 13.5418 31.2035 13.6921 31.2861C13.8433 31.3689 13.9574 31.4825 14.0344 31.6272C14.1124 31.7708 14.1514 31.9342 14.1514 32.1173C14.1514 32.3025 14.1124 32.4669 14.0344 32.6105C13.9565 32.7542 13.8414 32.8675 13.6893 32.9501C13.5371 33.0317 13.3497 33.0727 13.1271 33.0727H12.5749V34.0476H12.0521ZM13.0567 32.6429H12.5749V31.599H13.0539C13.1844 31.599 13.291 31.621 13.3737 31.6652C13.4573 31.7085 13.5188 31.769 13.5582 31.847C13.5986 31.925 13.6188 32.015 13.6188 32.1173C13.6188 32.2199 13.5986 32.3105 13.5582 32.3895C13.5188 32.4682 13.4578 32.5303 13.3751 32.5754C13.2924 32.6203 13.1863 32.6429 13.0567 32.6429ZM14.3596 31.1622V31.6003H15.2514V34.0476H15.7699V31.6003H16.6617V31.1622H14.3596Z" fill="white"/>
<path id="Vector_22" d="M11.5418 23.0831C11.4002 23.0831 11.2854 23.198 11.2854 23.3396V24.8785C11.2854 25.0201 11.4002 25.135 11.5418 25.135H13.0807C13.2224 25.135 13.3372 25.0201 13.3372 24.8785C13.3372 23.8869 12.5334 23.0831 11.5418 23.0831Z" fill="white"/>
<path id="Vector_23" d="M11.5419 25.6479C11.1169 25.6479 10.7724 25.3034 10.7724 24.8785V23.6223C9.793 23.7616 9.11197 24.6685 9.25129 25.6479C9.39061 26.6274 10.2975 27.3084 11.277 27.1691C12.0659 27.0567 12.6858 26.4368 12.7981 25.6479H11.5419Z" fill="white"/>
<path id="Vector_24" d="M16.9276 28.0845H9.23321V28.4692H16.9276V28.0845Z" fill="white"/>
<path id="Vector_25" d="M16.9276 29.2386H9.23321V29.6233H16.9276V29.2386Z" fill="white"/>
<path id="Vector_26" d="M31.5148 30.0722H25.4234C24.9817 30.0722 24.622 29.7126 24.622 29.2707V23.8205C24.622 23.3788 24.9817 23.0191 25.4234 23.0191H30.3927C30.8344 23.0191 32.3163 24.5649 32.3163 25.0067V29.2707C32.3163 29.7126 31.9565 30.0722 31.5148 30.0722ZM25.4234 23.3396C25.1583 23.3396 24.9426 23.5554 24.9426 23.8205V29.2707C24.9426 29.5359 25.1583 29.7516 25.4234 29.7516H31.5148C31.78 29.7516 31.9957 29.5359 31.9957 29.2707V25.2729C31.9957 25.0078 30.6579 23.3396 30.3927 23.3396H25.4234Z" fill="white"/>
<path id="Vector_27" d="M32.156 25.2632H24.7823C24.6938 25.2632 24.622 25.1914 24.622 25.1029C24.622 25.0145 24.6938 24.9426 24.7823 24.9426H32.156C32.2445 24.9426 32.3163 25.0145 32.3163 25.1029C32.3163 25.1914 32.2445 25.2632 32.156 25.2632Z" fill="white"/>
<path id="Vector_28" d="M32.156 26.8662H24.7823C24.6938 26.8662 24.622 26.7944 24.622 26.7059C24.622 26.6174 24.6938 26.5456 24.7823 26.5456H32.156C32.2445 26.5456 32.3163 26.6174 32.3163 26.7059C32.3163 26.7944 32.2445 26.8662 32.156 26.8662Z" fill="white"/>
<path id="Vector_29" d="M32.156 28.4692H24.7823C24.6938 28.4692 24.622 28.3974 24.622 28.3089C24.622 28.2204 24.6938 28.1486 24.7823 28.1486H32.156C32.2445 28.1486 32.3163 28.2204 32.3163 28.3089C32.3163 28.3974 32.2445 28.4692 32.156 28.4692Z" fill="white"/>
<path id="Vector_30" d="M26.7058 30.0722C26.6174 30.0722 26.5455 30.0004 26.5455 29.9119V25.1029C26.5455 25.0145 26.6174 24.9426 26.7058 24.9426C26.7943 24.9426 26.8661 25.0145 26.8661 25.1029V29.9119C26.8661 30.0004 26.7943 30.0722 26.7058 30.0722Z" fill="white"/>
<path id="Vector_31" d="M28.4691 30.0722C28.3807 30.0722 28.3088 30.0004 28.3088 29.9119V25.1029C28.3088 25.0145 28.3807 24.9426 28.4691 24.9426C28.5576 24.9426 28.6294 25.0145 28.6294 25.1029V29.9119C28.6294 30.0004 28.5576 30.0722 28.4691 30.0722Z" fill="white"/>
<path id="Vector_32" d="M30.2324 30.0722C30.1439 30.0722 30.0721 30.0004 30.0721 29.9119V25.1029C30.0721 25.0145 30.1439 24.9426 30.2324 24.9426C30.3209 24.9426 30.3927 25.0145 30.3927 25.1029V29.9119C30.3927 30.0004 30.3209 30.0722 30.2324 30.0722Z" fill="white"/>
<path id="Vector_33" d="M24.0644 22.506H30.4453L32.9957 25.0568C32.9991 25.0705 33.0037 25.1017 33.0037 25.1667V34.3725C32.9988 34.3777 32.9924 34.3846 32.9834 34.3918C32.9516 34.4164 32.9116 34.4323 32.8744 34.4323H24.0644C24.027 34.4323 23.9872 34.4164 23.9555 34.3918C23.9464 34.3846 23.9399 34.3777 23.9352 34.3725V22.737L23.9364 22.6989C23.942 22.6148 23.9658 22.5669 23.9857 22.5426C24.0061 22.5178 24.0312 22.506 24.0644 22.506Z" stroke="white" stroke-width="0.384718"/>
<path id="Vector_34" d="M30.393 22.6984V25.3033H32.9978L30.393 22.6984Z" fill="white"/>
<path id="Vector_35" fill-rule="evenodd" clip-rule="evenodd" d="M24.1666 34.6247H32.7716C32.9452 34.6247 33.0858 34.4615 33.0858 34.2605V30.3928H23.8525V34.2605C23.8525 34.4615 23.9932 34.6247 24.1666 34.6247ZM31.1532 31.6921C31.2481 31.7588 31.3019 31.8519 31.3148 31.9716H31.8036C31.8008 31.8137 31.7564 31.6739 31.6708 31.5526C31.5848 31.4302 31.4666 31.3348 31.3161 31.2663C31.1663 31.1968 30.9919 31.1622 30.7928 31.1622C30.5966 31.1622 30.4209 31.1968 30.2658 31.2663C30.1106 31.3348 29.9877 31.431 29.8972 31.5551C29.808 31.6793 29.7631 31.8242 29.7631 31.9893C29.7631 32.1902 29.8298 32.3512 29.9631 32.4728C30.0973 32.5934 30.2799 32.6831 30.5107 32.7426L30.8298 32.8247C30.9303 32.8503 31.018 32.8796 31.0929 32.9124C31.1686 32.9442 31.2276 32.9845 31.2694 33.033C31.3114 33.0804 31.333 33.1407 31.3337 33.2135C31.333 33.2941 31.3086 33.3643 31.2612 33.4246C31.2137 33.4838 31.1481 33.5305 31.0639 33.5641C30.9811 33.597 30.8841 33.6134 30.7739 33.6134C30.6679 33.6134 30.572 33.5975 30.4861 33.5657C30.4012 33.5336 30.3322 33.4851 30.2794 33.4205C30.2265 33.3556 30.1963 33.2743 30.1891 33.1766H29.6892C29.6964 33.3628 29.7449 33.5208 29.8344 33.6506C29.9247 33.7801 30.0498 33.8786 30.2096 33.9463C30.3702 34.0137 30.5597 34.0476 30.778 34.0476C31.0024 34.0476 31.1937 34.013 31.3517 33.9435C31.5105 33.8732 31.632 33.776 31.7159 33.6518C31.7998 33.5267 31.8418 33.382 31.8418 33.2176C31.8418 33.0963 31.819 32.9904 31.7734 32.9001C31.7277 32.8096 31.6656 32.7324 31.5871 32.6685C31.5097 32.6046 31.4215 32.5518 31.323 32.5097C31.2253 32.4677 31.1234 32.4343 31.0175 32.4097L30.7546 32.3441C30.6972 32.3302 30.64 32.3135 30.5833 32.2933C30.5269 32.2733 30.4753 32.2486 30.4286 32.2194C30.382 32.1894 30.345 32.1527 30.3178 32.1099C30.2912 32.0671 30.2781 32.0163 30.2781 31.9578C30.2789 31.8875 30.2994 31.8249 30.3396 31.7703C30.3799 31.7154 30.4379 31.6721 30.5135 31.64C30.5892 31.6082 30.6802 31.5923 30.7862 31.5923C30.9367 31.5923 31.0591 31.6254 31.1532 31.6921ZM25.5996 31.2007L26.2173 32.2276H26.2391L26.8595 31.2007H27.4389L26.5748 32.6028L27.4525 34.005H26.8636L26.2391 32.985H26.2173L25.5928 34.005H25.0067L25.8928 32.6028L25.0176 31.2007H25.5996ZM27.722 31.2007H28.2301V33.5793H29.4653V34.005H27.722V31.2007Z" fill="white"/>
</g>
</svg>
