<svg preserveAspectRatio="xMidYMid meet" width="100%" height="100%" overflow="hidden" style="display: block;" viewBox="0 0 72.954 72.954" fill="none" xmlns="http://www.w3.org/2000/svg">
<g id="home decor ai 1">
<g clip-path="url(#clip0_5_132)">
<path id="Vector" d="M0 35.0179C0 22.7605 0 16.6318 2.38545 11.9501C4.48376 7.83193 7.83193 4.48376 11.9501 2.38545C16.6318 0 22.7605 0 35.0179 0H37.9361C50.1937 0 56.3223 0 61.0042 2.38545C65.1219 4.48376 68.4701 7.83193 70.5684 11.9501C72.954 16.6318 72.954 22.7605 72.954 35.0179V37.9361C72.954 50.1937 72.954 56.3223 70.5684 61.0042C68.4701 65.1219 65.1219 68.4701 61.0042 70.5684C56.3223 72.954 50.1937 72.954 37.9361 72.954H35.0179C22.7605 72.954 16.6318 72.954 11.9501 70.5684C7.83193 68.4701 4.48376 65.1219 2.38545 61.0042C0 56.3223 0 50.1937 0 37.9361V35.0179Z" fill="#783D00"/>
<path id="Vector_2" d="M24.0127 53.1311H35.933V57.4513H22.2527C21.5517 57.4513 20.9167 57.1695 20.4544 56.7131L24.0127 50.5499V53.1311Z" fill="#FBD6A2"/>
<path id="Vector_3" d="M52.2114 56.7131C51.749 57.1695 51.1143 57.4513 50.4135 57.4513H36.733V53.1311H48.6535V50.5499L52.2114 56.7131Z" fill="#FBD6A2"/>
<path id="Vector_4" d="M52.9733 38.4798V54.8911C52.9733 55.2878 52.883 55.663 52.722 55.9977L48.6535 48.9499V35.9855L52.9733 38.4798Z" fill="#FBD6A2"/>
<path id="Vector_5" d="M24.0128 48.9494L19.9434 55.9977C19.7827 55.663 19.6927 55.2878 19.6927 54.8911V38.4798L24.0128 35.9855V48.9494Z" fill="#FBD6A2"/>
<path id="Vector_6" d="M24.0128 35.0618L19.6927 37.5561V28.8107H24.0128V35.0618Z" fill="#FBD6A2"/>
<path id="Vector_7" d="M52.9733 37.5561L48.6535 35.0618V28.8107H52.9733V37.5561Z" fill="#FBD6A2"/>
<path id="Vector_8" d="M29.8635 18.0057C29.0562 18.5037 28.3029 19.0973 27.6213 19.7789C26.9658 20.4345 26.3918 21.1562 25.9058 21.9285L22.1624 19.7672C22.837 18.6714 23.6417 17.649 24.5665 16.7242C25.5175 15.7732 26.5719 14.9495 27.703 14.2634L29.8635 18.0057Z" fill="#FBD6A2"/>
<path id="Vector_9" d="M36.733 11.855C39.3918 11.9189 41.9742 12.6183 44.2752 13.8681C44.2732 13.8669 44.2712 13.8659 44.2692 13.8648L42.1078 17.608C40.461 16.7342 38.6244 16.2384 36.733 16.177V11.855Z" fill="#FBD6A2"/>
<path id="Vector_10" d="M35.933 16.1772C34.0416 16.2385 32.2048 16.7339 30.5579 17.6078L28.3969 13.8649C30.6964 12.6173 33.2766 11.919 35.933 11.8552V16.1772Z" fill="#FBD6A2"/>
<path id="Vector_11" d="M35.9516 28.8121V32.475C35.9516 34.0758 34.6538 35.3736 33.053 35.3736V36.1363C34.6539 36.1363 35.9516 37.4342 35.9516 39.0351V52.3313H24.8128V28.8121H35.9516Z" fill="#FBD6A2"/>
<path id="Vector_12" d="M38.7735 28.8121C40.5409 28.8121 41.9736 30.2448 41.9736 32.0122V52.3313H36.7145V39.035C36.7145 37.4341 38.0123 36.1363 39.6131 36.1363V35.3736C38.0122 35.3736 36.7145 34.0757 36.7145 32.4748V28.8121H38.7735Z" fill="#FBD6A2"/>
<path id="Vector_13" d="M47.8533 52.3313H42.755V32.0122C42.755 30.2448 44.1877 28.8121 45.9551 28.8121H47.8533V52.3313Z" fill="#FBD6A2"/>
<path id="Vector_14" d="M42.755 18.9264C43.3699 19.3393 43.9478 19.8133 44.4791 20.3446C46.531 22.3964 47.7283 25.1425 47.8437 28.0307H45.9551C44.1877 28.0307 42.755 26.598 42.755 24.8306V18.9264Z" fill="#FBD6A2"/>
<path id="Vector_15" d="M35.9516 28.0307H24.8221C24.9375 25.1425 26.1351 22.3964 28.1869 20.3446C30.2573 18.2742 33.0347 17.0734 35.9516 16.9769V28.0307Z" fill="#FBD6A2"/>
<path id="Vector_16" d="M36.7145 16.9769C38.5731 17.0384 40.3751 17.5482 41.9736 18.4458V24.8306C41.9736 26.598 40.5409 28.0307 38.7735 28.0307H36.7145V16.9769Z" fill="#FBD6A2"/>
<path id="Vector_17" d="M25.502 22.6192C24.6085 24.2675 24.0963 26.1105 24.0223 28.0107H19.6999C19.7781 25.3488 20.4932 22.7564 21.7596 20.4585L25.502 22.6192Z" fill="#FBD6A2"/>
<path id="Vector_18" d="M48.0995 16.7242C47.1484 15.7731 46.0942 14.9492 44.9627 14.2631L42.802 18.0055C43.6095 18.5036 44.363 19.0972 45.0448 19.7789C45.7002 20.4344 46.2738 21.1562 46.7599 21.9284L50.5033 19.7672C49.8303 18.676 49.021 17.6456 48.0995 16.7242Z" fill="#FBD6A2"/>
<path id="Vector_19" d="M52.966 28.0107H48.6439C48.5696 26.1104 48.0575 24.2675 47.1639 22.6192L50.9069 20.4581C52.1776 22.7599 52.8889 25.3408 52.966 28.0107Z" fill="#FBD6A2"/>
</g>
</g>
<defs>
<clipPath id="clip0_5_132">
<rect width="72.954" height="72.954" rx="21.8862" fill="white"/>
</clipPath>
</defs>
</svg>
