<svg width="549" height="585" viewBox="0 0 549 585" fill="none" xmlns="http://www.w3.org/2000/svg">
<circle cx="274.49" cy="310.51" r="71.1302" stroke="url(#paint0_linear_3_222)" stroke-width="0.911925"/>
<circle cx="274.49" cy="310.511" r="118.55" transform="rotate(45 274.49 310.511)" stroke="url(#paint1_linear_3_222)" stroke-width="0.911925"/>
<circle cx="274.49" cy="310.511" r="183.297" transform="rotate(-60 274.49 310.511)" stroke="url(#paint2_linear_3_222)" stroke-width="0.911925"/>
<circle cx="274.489" cy="310.511" r="274.034" stroke="url(#paint3_linear_3_222)" stroke-width="0.911925"/>
<g clip-path="url(#clip0_3_222)">
<path d="M178.951 6.63361L130.868 29.1879C123.058 32.8515 119.696 42.1531 123.36 49.9635L145.914 98.0461C149.578 105.856 158.88 109.218 166.69 105.554L214.773 83.0001C222.583 79.3365 225.945 70.035 222.281 62.2246L199.727 14.1419C196.063 6.33156 186.761 2.96996 178.951 6.63361Z" fill="url(#paint4_linear_3_222)"/>
<path d="M190.316 47.2512C191.07 47.5655 191.795 47.8955 192.484 48.2415C197.832 50.9246 200.614 54.3087 200.318 57.7699C200.022 61.2309 196.704 64.0979 190.977 65.8423C187.424 66.9245 183.155 67.5225 178.565 67.6099C176.983 69.4414 175.348 71.1123 173.702 72.5821C174.165 73.0731 174.63 73.538 175.097 73.9743C177.644 76.3533 180.053 77.6663 181.85 77.709C182.728 78.8239 183.927 79.6077 185.248 79.9883C185.024 80.133 184.792 80.263 184.55 80.3765C181.403 81.8528 177.262 80.4169 172.89 76.3333C172.327 75.8067 171.766 75.2421 171.209 74.6444C170.56 75.14 169.911 75.6021 169.266 76.0262C164.263 79.3147 159.938 80.0332 157.087 78.0483C154.236 76.0635 153.412 71.7607 154.768 65.9329C155.609 62.3169 157.226 58.324 159.45 54.3068C158.655 52.0232 158.026 49.7754 157.576 47.6173C156.919 47.7725 156.283 47.9431 155.671 48.1294C152.339 49.1445 149.997 50.5717 149.058 52.1033C148.423 52.195 147.79 52.3795 147.18 52.6659C146.496 52.9867 145.893 53.4109 145.378 53.9088C145.365 53.6439 145.369 53.379 145.391 53.1141C145.625 50.3847 147.736 48.0254 151.427 46.294C152.417 45.8297 153.521 45.4107 154.732 45.0417C155.471 44.817 156.241 44.6135 157.038 44.4306C156.933 43.6208 156.857 42.8282 156.813 42.0585C156.468 36.0865 158.011 31.9842 161.158 30.5081C164.305 29.0317 168.446 30.4675 172.818 34.551C175.53 37.0851 178.182 40.478 180.55 44.408C182.926 44.8605 185.19 45.4379 187.284 46.1268C187.479 45.4803 187.65 44.8448 187.794 44.2226C188.586 40.8202 188.518 38.0738 187.653 36.4986C188.159 35.226 188.276 33.8027 187.933 32.4237C188.171 32.5453 188.402 32.6819 188.622 32.8357C191.473 34.8203 192.296 39.1229 190.941 44.9511C190.766 45.7025 190.557 46.4705 190.316 47.2512ZM190.037 62.7542C194.289 61.4596 196.929 59.4943 197.1 57.4971C197.271 55.4997 195.003 53.1184 191.033 51.1265C190.462 50.8402 189.864 50.5644 189.243 50.3013C187.701 54.2052 185.462 58.3204 182.692 62.2911C182.224 62.9625 181.746 63.6207 181.261 64.2656C184.49 64.0421 187.474 63.5352 190.037 62.7542ZM157.915 66.6614C156.908 70.9872 157.29 74.2537 158.935 75.399C160.58 76.5444 163.779 75.7709 167.493 73.3294C168.027 72.9784 168.565 72.5984 169.104 72.1922C166.493 68.9093 164.047 64.9169 161.993 60.537C161.646 59.7966 161.315 59.0545 160.999 58.3126C159.576 61.2186 158.521 64.0537 157.915 66.6614ZM164.918 59.1649C166.861 63.3074 169.157 67.0666 171.595 70.1386C174.521 67.5213 177.424 64.2024 180.043 60.4466C182.663 56.6911 184.774 52.8219 186.219 49.173C182.49 47.9515 178.165 47.1011 173.602 46.7149C169.039 46.3281 164.632 46.4381 160.748 47.0146C161.552 50.8536 162.975 55.0224 164.918 59.1649ZM170.611 36.9101C167.366 33.8791 164.345 32.5781 162.529 33.4301C160.713 34.2818 159.781 37.437 160.038 41.8699C160.074 42.508 160.135 43.1631 160.216 43.8326C164.369 43.2118 169.053 43.0895 173.877 43.4986C174.693 43.5674 175.502 43.6517 176.303 43.7489C174.497 41.0659 172.568 38.7378 170.611 36.9101Z" fill="white"/>
<path d="M186.592 71.5469L187.038 72.7129C187.533 74.0069 188.58 75.0128 189.894 75.4564L191.077 75.8557C191.184 75.892 191.187 76.0421 191.082 76.0821L189.914 76.5287C188.619 77.0247 187.612 78.0718 187.167 79.3848L186.766 80.5678C186.73 80.6744 186.58 80.6775 186.54 80.5724L186.094 79.4064C185.598 78.1123 184.551 77.1065 183.238 76.6629L182.054 76.2636C181.948 76.2273 181.945 76.0771 182.05 76.0371L183.217 75.5906C184.512 75.0945 185.52 74.0474 185.965 72.7344L186.365 71.5514C186.401 71.4442 186.551 71.4412 186.592 71.5469Z" fill="white"/>
<path d="M144.975 55.1781L146.225 55.179C147.612 55.1797 148.927 54.5625 149.813 53.4957L150.611 52.5343C150.684 52.4478 150.825 52.4988 150.824 52.6112L150.823 53.8598C150.821 55.2458 151.437 56.5601 152.504 57.4448L153.465 58.2415C153.552 58.3136 153.501 58.4549 153.388 58.4546L152.139 58.4537C150.752 58.453 149.436 59.0702 148.55 60.137L147.752 61.0984C147.68 61.1849 147.539 61.134 147.539 61.0215L147.541 59.7729C147.543 58.3869 146.926 57.0726 145.86 56.1879L144.898 55.3911C144.811 55.3194 144.862 55.1782 144.975 55.1781Z" fill="white"/>
<path d="M181.013 29.9142L182.06 30.595C183.222 31.3504 184.661 31.5486 185.985 31.1357L187.178 30.7633C187.286 30.7301 187.377 30.8497 187.315 30.9439L186.633 31.9905C185.876 33.1525 185.676 34.5909 186.089 35.9139L186.46 37.1057C186.493 37.2133 186.374 37.304 186.279 37.2425L185.233 36.5616C184.071 35.8063 182.631 35.6081 181.307 36.021L180.114 36.3933C180.007 36.4266 179.916 36.307 179.978 36.2128L180.66 35.1661C181.416 34.0041 181.616 32.5658 181.204 31.2428L180.832 30.051C180.798 29.9433 180.918 29.8526 181.013 29.9142Z" fill="white"/>
</g>
<g clip-path="url(#clip1_3_222)">
<mask id="mask0_3_222" style="mask-type:luminance" maskUnits="userSpaceOnUse" x="253" y="170" width="43" height="43">
<path d="M289.878 170.986H259.101C256.268 170.986 253.971 173.283 253.971 176.116V206.893C253.971 209.726 256.268 212.023 259.101 212.023H289.878C292.711 212.023 295.008 209.726 295.008 206.893V176.116C295.008 173.283 292.711 170.986 289.878 170.986Z" fill="white"/>
</mask>
<g mask="url(#mask0_3_222)">
<path d="M289.878 170.986H259.101C256.268 170.986 253.971 173.283 253.971 176.116V206.893C253.971 209.726 256.268 212.023 259.101 212.023H289.878C292.711 212.023 295.008 209.726 295.008 206.893V176.116C295.008 173.283 292.711 170.986 289.878 170.986Z" fill="white"/>
<path d="M274.49 170.986H253.971V191.504H274.49V170.986Z" fill="#C84D52"/>
<path d="M295.008 191.504H274.49V212.023H295.008V191.504Z" fill="#388E3C"/>
<path d="M274.49 191.504H253.971V212.023H274.49V191.504Z" fill="#D46549"/>
<path d="M295.008 170.986H274.49V191.504H295.008V170.986Z" fill="#1976D2"/>
<path d="M262.647 178.103H269.028L271.578 180.654C271.581 180.668 271.586 180.699 271.586 180.764V189.97C271.581 189.975 271.575 189.982 271.566 189.989C271.534 190.014 271.494 190.029 271.457 190.03H262.647C262.609 190.03 262.57 190.014 262.538 189.989C262.529 189.982 262.522 189.975 262.518 189.97V178.334L262.519 178.296C262.524 178.212 262.548 178.164 262.568 178.14C262.589 178.115 262.614 178.103 262.647 178.103Z" stroke="white" stroke-width="0.384718"/>
<path d="M268.975 178.296V180.901H271.58L268.975 178.296Z" fill="white"/>
<path fill-rule="evenodd" clip-rule="evenodd" d="M262.749 190.222H271.354C271.528 190.222 271.668 190.059 271.668 189.858V185.99H262.435V189.858C262.435 190.059 262.576 190.222 262.749 190.222ZM263.589 189.645V186.759H264.628C264.841 186.759 265.019 186.801 265.163 186.883C265.309 186.966 265.418 187.08 265.492 187.224C265.567 187.368 265.604 187.532 265.604 187.715C265.604 187.9 265.567 188.064 265.492 188.208C265.417 188.351 265.307 188.465 265.161 188.547C265.015 188.629 264.835 188.67 264.621 188.67H264.091V189.645H263.589ZM264.553 188.24H264.091V187.196H264.551C264.676 187.196 264.778 187.218 264.858 187.262C264.938 187.306 264.997 187.366 265.035 187.444C265.074 187.522 265.093 187.612 265.093 187.715C265.093 187.817 265.074 187.908 265.035 187.987C264.997 188.065 264.938 188.127 264.859 188.173C264.78 188.218 264.678 188.24 264.553 188.24ZM266.865 189.645H265.926V186.759H266.884C267.159 186.759 267.395 186.817 267.592 186.933C267.791 187.047 267.943 187.212 268.049 187.427C268.156 187.642 268.209 187.9 268.209 188.199C268.209 188.5 268.155 188.758 268.048 188.974C267.942 189.19 267.788 189.356 267.587 189.472C267.387 189.587 267.146 189.645 266.865 189.645ZM266.428 189.193H266.84C267.033 189.193 267.194 189.156 267.323 189.083C267.452 189.008 267.549 188.898 267.614 188.752C267.679 188.604 267.711 188.42 267.711 188.199C267.711 187.979 267.679 187.795 267.614 187.65C267.549 187.503 267.453 187.394 267.326 187.322C267.2 187.248 267.043 187.212 266.855 187.212H266.428V189.193ZM268.572 186.759V189.645H269.073V188.419H270.224V187.981H269.073V187.198H270.346V186.759H268.572Z" fill="white"/>
<path d="M263.204 178.68H268.59V181.373H270.899V185.605H263.204V178.68Z" fill="white"/>
<path d="M278.036 178.103H284.417L286.967 180.654C286.97 180.668 286.975 180.699 286.975 180.764V189.97C286.97 189.975 286.964 189.982 286.955 189.989C286.923 190.014 286.883 190.029 286.846 190.03H278.036C277.998 190.03 277.958 190.014 277.927 189.989C277.918 189.982 277.911 189.975 277.906 189.97V178.334L277.908 178.296C277.913 178.212 277.937 178.164 277.957 178.14C277.977 178.115 278.002 178.103 278.036 178.103Z" stroke="white" stroke-width="0.384718"/>
<path d="M284.364 178.296V180.901H286.969L284.364 178.296Z" fill="white"/>
<path fill-rule="evenodd" clip-rule="evenodd" d="M278.138 190.222H286.743C286.916 190.222 287.057 190.059 287.057 189.858V185.99H277.824V189.858C277.824 190.059 277.964 190.222 278.138 190.222ZM283.708 188.202C283.708 188.505 283.651 188.764 283.538 188.98C283.425 189.195 283.272 189.359 283.077 189.473C282.883 189.588 282.663 189.645 282.418 189.645C282.172 189.645 281.951 189.588 281.757 189.473C281.563 189.358 281.409 189.193 281.296 188.978C281.183 188.763 281.127 188.504 281.127 188.202C281.127 187.9 281.183 187.641 281.296 187.426C281.409 187.21 281.563 187.045 281.757 186.931C281.951 186.817 282.172 186.759 282.418 186.759C282.663 186.759 282.883 186.817 283.077 186.931C283.272 187.045 283.425 187.21 283.538 187.426C283.651 187.641 283.708 187.9 283.708 188.202ZM283.196 188.202C283.196 187.989 283.163 187.809 283.096 187.663C283.031 187.516 282.939 187.405 282.822 187.33C282.705 187.254 282.57 187.216 282.418 187.216C282.265 187.216 282.13 187.254 282.013 187.33C281.896 187.405 281.804 187.516 281.737 187.663C281.671 187.809 281.639 187.989 281.639 188.202C281.639 188.415 281.671 188.595 281.737 188.742C281.804 188.889 281.896 189 282.013 189.076C282.13 189.151 282.265 189.188 282.418 189.188C282.57 189.188 282.705 189.151 282.822 189.076C282.939 189 283.031 188.889 283.096 188.742C283.163 188.595 283.196 188.415 283.196 188.202ZM279.545 189.606H278.593V186.798H279.564C279.843 186.798 280.083 186.854 280.283 186.967C280.484 187.078 280.638 187.239 280.746 187.448C280.854 187.657 280.908 187.908 280.908 188.199C280.908 188.492 280.854 188.743 280.745 188.954C280.637 189.164 280.481 189.325 280.277 189.438C280.074 189.55 279.83 189.606 279.545 189.606ZM279.102 189.166H279.52C279.716 189.166 279.879 189.131 280.01 189.059C280.141 188.987 280.239 188.88 280.305 188.737C280.371 188.593 280.403 188.414 280.403 188.199C280.403 187.985 280.371 187.806 280.305 187.665C280.239 187.522 280.142 187.415 280.013 187.345C279.885 187.274 279.726 187.238 279.535 187.238H279.102V189.166ZM285.887 187.745H286.4C286.379 187.589 286.334 187.45 286.265 187.329C286.198 187.206 286.112 187.103 286.006 187.019C285.901 186.934 285.782 186.869 285.647 186.825C285.513 186.781 285.367 186.759 285.211 186.759C284.966 186.759 284.747 186.817 284.553 186.931C284.359 187.045 284.206 187.21 284.093 187.426C283.981 187.641 283.925 187.9 283.925 188.202C283.925 188.504 283.981 188.763 284.092 188.978C284.203 189.194 284.356 189.359 284.55 189.473C284.744 189.588 284.964 189.645 285.211 189.645C285.378 189.645 285.53 189.62 285.668 189.571C285.805 189.52 285.925 189.451 286.027 189.362C286.129 189.273 286.212 189.169 286.275 189.052C286.339 188.935 286.381 188.81 286.4 188.677L285.887 188.674C285.872 188.756 285.843 188.829 285.802 188.893C285.762 188.957 285.712 189.011 285.652 189.055C285.594 189.099 285.528 189.132 285.454 189.155C285.381 189.177 285.302 189.188 285.218 189.188C285.066 189.188 284.931 189.151 284.813 189.077C284.696 189.002 284.604 188.891 284.536 188.745C284.47 188.598 284.436 188.417 284.436 188.202C284.436 187.991 284.47 187.812 284.536 187.666C284.603 187.519 284.695 187.407 284.813 187.331C284.931 187.255 285.066 187.216 285.219 187.216C285.305 187.216 285.385 187.228 285.459 187.252C285.534 187.275 285.601 187.309 285.659 187.355C285.718 187.4 285.767 187.456 285.806 187.522C285.845 187.587 285.873 187.661 285.887 187.745Z" fill="white"/>
<path d="M283.979 180.219H278.593V180.604H283.979V180.219Z" fill="white"/>
<path d="M283.979 179.065H278.593V179.45H283.979V179.065Z" fill="white"/>
<path d="M286.288 181.373H278.593V181.758H286.288V181.373Z" fill="white"/>
<path d="M286.288 182.528H278.593V182.912H286.288V182.528Z" fill="white"/>
<path d="M286.288 183.682H278.593V184.066H286.288V183.682Z" fill="white"/>
<path d="M286.288 184.836H278.593V185.221H286.288V184.836Z" fill="white"/>
<path d="M262.647 193.492H269.028L271.578 196.043C271.581 196.056 271.586 196.088 271.586 196.153V205.359C271.581 205.364 271.575 205.371 271.566 205.378C271.534 205.402 271.494 205.418 271.457 205.418H262.647C262.609 205.418 262.57 205.402 262.538 205.378C262.529 205.371 262.522 205.364 262.518 205.359V193.723L262.519 193.685C262.524 193.601 262.548 193.553 262.568 193.529C262.589 193.504 262.614 193.492 262.647 193.492Z" stroke="white" stroke-width="0.384718"/>
<path d="M268.975 193.684V196.289H271.58L268.975 193.684Z" fill="white"/>
<path fill-rule="evenodd" clip-rule="evenodd" d="M262.749 205.611H271.354C271.528 205.611 271.668 205.448 271.668 205.246V201.379H262.435V205.246C262.435 205.448 262.576 205.611 262.749 205.611ZM263.589 205.034V202.148H264.671C264.893 202.148 265.079 202.189 265.229 202.272C265.38 202.355 265.494 202.469 265.571 202.613C265.649 202.757 265.688 202.92 265.688 203.103C265.688 203.288 265.649 203.453 265.571 203.596C265.493 203.74 265.378 203.853 265.226 203.936C265.074 204.018 264.887 204.059 264.664 204.059H264.112V205.034H263.589ZM264.594 203.629H264.112V202.585H264.591C264.721 202.585 264.828 202.607 264.911 202.651C264.994 202.694 265.056 202.755 265.095 202.833C265.136 202.911 265.156 203.001 265.156 203.103C265.156 203.206 265.136 203.296 265.095 203.375C265.056 203.454 264.995 203.516 264.912 203.561C264.829 203.606 264.723 203.629 264.594 203.629ZM266.023 205.034V202.148H267.105C267.327 202.148 267.513 202.189 267.663 202.272C267.814 202.355 267.929 202.469 268.006 202.613C268.084 202.757 268.123 202.92 268.123 203.103C268.123 203.288 268.084 203.453 268.006 203.596C267.928 203.74 267.813 203.853 267.66 203.936C267.508 204.018 267.321 204.059 267.098 204.059H266.546V205.034H266.023ZM267.028 203.629H266.546V202.585H267.025C267.156 202.585 267.262 202.607 267.345 202.651C267.428 202.694 267.49 202.755 267.529 202.833C267.57 202.911 267.59 203.001 267.59 203.103C267.59 203.206 267.57 203.296 267.529 203.375C267.49 203.454 267.429 203.516 267.346 203.561C267.264 203.606 267.157 203.629 267.028 203.629ZM268.331 202.148V202.586H269.223V205.034H269.741V202.586H270.633V202.148H268.331Z" fill="white"/>
<path d="M265.513 194.069C265.371 194.069 265.257 194.184 265.257 194.326V195.864C265.257 196.006 265.371 196.121 265.513 196.121H267.052C267.194 196.121 267.308 196.006 267.308 195.864C267.308 194.873 266.505 194.069 265.513 194.069Z" fill="white"/>
<path d="M265.513 196.634C265.088 196.634 264.744 196.289 264.744 195.864V194.608C263.764 194.748 263.083 195.654 263.222 196.634C263.362 197.613 264.269 198.294 265.248 198.155C266.037 198.043 266.657 197.423 266.769 196.634H265.513Z" fill="white"/>
<path d="M270.899 199.07H263.204V199.455H270.899V199.07Z" fill="white"/>
<path d="M270.899 200.225H263.204V200.609H270.899V200.225Z" fill="white"/>
<path d="M285.486 201.058H279.395C278.953 201.058 278.593 200.699 278.593 200.257V194.807C278.593 194.365 278.953 194.005 279.395 194.005H284.364C284.806 194.005 286.288 195.551 286.288 195.993V200.257C286.288 200.699 285.928 201.058 285.486 201.058ZM279.395 194.326C279.129 194.326 278.914 194.541 278.914 194.807V200.257C278.914 200.522 279.129 200.738 279.395 200.738H285.486C285.751 200.738 285.967 200.522 285.967 200.257V196.259C285.967 195.994 284.629 194.326 284.364 194.326H279.395Z" fill="white"/>
<path d="M286.127 196.249H278.753C278.665 196.249 278.593 196.177 278.593 196.089C278.593 196 278.665 195.929 278.753 195.929H286.127C286.216 195.929 286.288 196 286.288 196.089C286.288 196.177 286.216 196.249 286.127 196.249Z" fill="white"/>
<path d="M286.127 197.852H278.753C278.665 197.852 278.593 197.78 278.593 197.692C278.593 197.603 278.665 197.532 278.753 197.532H286.127C286.216 197.532 286.288 197.603 286.288 197.692C286.288 197.78 286.216 197.852 286.127 197.852Z" fill="white"/>
<path d="M286.127 199.455H278.753C278.665 199.455 278.593 199.383 278.593 199.295C278.593 199.206 278.665 199.135 278.753 199.135H286.127C286.216 199.135 286.288 199.206 286.288 199.295C286.288 199.383 286.216 199.455 286.127 199.455Z" fill="white"/>
<path d="M280.677 201.058C280.589 201.058 280.517 200.986 280.517 200.898V196.089C280.517 196 280.589 195.929 280.677 195.929C280.766 195.929 280.837 196 280.837 196.089V200.898C280.837 200.986 280.766 201.058 280.677 201.058Z" fill="white"/>
<path d="M282.44 201.058C282.352 201.058 282.28 200.986 282.28 200.898V196.089C282.28 196 282.352 195.929 282.44 195.929C282.529 195.929 282.601 196 282.601 196.089V200.898C282.601 200.986 282.529 201.058 282.44 201.058Z" fill="white"/>
<path d="M284.204 201.058C284.115 201.058 284.043 200.986 284.043 200.898V196.089C284.043 196 284.115 195.929 284.204 195.929C284.292 195.929 284.364 196 284.364 196.089V200.898C284.364 200.986 284.292 201.058 284.204 201.058Z" fill="white"/>
<path d="M278.036 193.492H284.417L286.967 196.043C286.97 196.056 286.975 196.088 286.975 196.153V205.359C286.97 205.364 286.964 205.371 286.955 205.378C286.923 205.402 286.883 205.418 286.846 205.418H278.036C277.998 205.418 277.958 205.402 277.927 205.378C277.918 205.371 277.911 205.364 277.906 205.359V193.723L277.908 193.685C277.913 193.601 277.937 193.553 277.957 193.529C277.977 193.504 278.002 193.492 278.036 193.492Z" stroke="white" stroke-width="0.384718"/>
<path d="M284.364 193.684V196.289H286.969L284.364 193.684Z" fill="white"/>
<path fill-rule="evenodd" clip-rule="evenodd" d="M278.138 205.611H286.743C286.916 205.611 287.057 205.448 287.057 205.246V201.379H277.824V205.246C277.824 205.448 277.964 205.611 278.138 205.611ZM285.124 202.678C285.219 202.745 285.273 202.838 285.286 202.958H285.775C285.772 202.8 285.728 202.66 285.642 202.539C285.556 202.416 285.438 202.321 285.287 202.252C285.137 202.183 284.963 202.148 284.764 202.148C284.568 202.148 284.392 202.183 284.237 202.252C284.082 202.321 283.959 202.417 283.868 202.541C283.779 202.665 283.734 202.81 283.734 202.975C283.734 203.176 283.801 203.337 283.934 203.459C284.068 203.579 284.251 203.669 284.482 203.729L284.801 203.811C284.902 203.836 284.989 203.866 285.064 203.898C285.14 203.93 285.199 203.97 285.241 204.019C285.283 204.066 285.304 204.127 285.305 204.199C285.304 204.28 285.28 204.35 285.232 204.411C285.185 204.47 285.119 204.516 285.035 204.55C284.952 204.583 284.855 204.599 284.745 204.599C284.639 204.599 284.543 204.583 284.457 204.552C284.372 204.52 284.303 204.471 284.251 204.406C284.198 204.342 284.167 204.26 284.16 204.163H283.66C283.668 204.349 283.716 204.507 283.806 204.637C283.896 204.766 284.021 204.865 284.181 204.932C284.341 205 284.531 205.034 284.749 205.034C284.974 205.034 285.165 204.999 285.323 204.929C285.482 204.859 285.603 204.762 285.687 204.638C285.771 204.513 285.813 204.368 285.813 204.204C285.813 204.082 285.79 203.976 285.745 203.886C285.699 203.796 285.637 203.718 285.558 203.654C285.481 203.591 285.393 203.538 285.294 203.496C285.196 203.454 285.095 203.42 284.989 203.396L284.726 203.33C284.668 203.316 284.611 203.299 284.555 203.279C284.498 203.259 284.447 203.235 284.4 203.205C284.353 203.175 284.316 203.139 284.289 203.096C284.262 203.053 284.249 203.002 284.249 202.944C284.25 202.873 284.271 202.811 284.311 202.756C284.351 202.701 284.409 202.658 284.485 202.626C284.56 202.594 284.651 202.578 284.757 202.578C284.908 202.578 285.03 202.611 285.124 202.678ZM279.571 202.187L280.188 203.214H280.21L280.831 202.187H281.41L280.546 203.589L281.424 204.991H280.835L280.21 203.971H280.188L279.564 204.991H278.978L279.864 203.589L278.989 202.187H279.571ZM281.693 202.187H282.201V204.565H283.437V204.991H281.693V202.187Z" fill="white"/>
</g>
</g>
<g clip-path="url(#clip2_3_222)">
<mask id="mask1_3_222" style="mask-type:luminance" maskUnits="userSpaceOnUse" x="83" y="206" width="44" height="44">
<path d="M121.868 208.195L90.5926 206.425C87.7138 206.262 85.2479 208.464 85.085 211.342L83.3149 242.618C83.152 245.497 85.3536 247.963 88.2325 248.126L119.508 249.896C122.387 250.059 124.853 247.857 125.016 244.978L126.786 213.703C126.949 210.824 124.747 208.358 121.868 208.195Z" fill="white"/>
</mask>
<g mask="url(#mask1_3_222)">
<path d="M121.868 208.195L90.5926 206.425C87.7138 206.262 85.2479 208.464 85.085 211.342L83.3149 242.618C83.152 245.497 85.3536 247.963 88.2325 248.126L119.508 249.896C122.387 250.059 124.853 247.857 125.016 244.978L126.786 213.703C126.949 210.824 124.747 208.358 121.868 208.195Z" fill="url(#paint5_linear_3_222)"/>
<mask id="mask2_3_222" style="mask-type:luminance" maskUnits="userSpaceOnUse" x="83" y="206" width="45" height="45">
<path d="M127.081 208.49L85.38 206.13L83.0199 247.831L124.721 250.191L127.081 208.49Z" fill="white"/>
</mask>
<g mask="url(#mask2_3_222)">
<mask id="mask3_3_222" style="mask-type:luminance" maskUnits="userSpaceOnUse" x="98" y="212" width="30" height="31">
<path d="M127.521 214.397L99.7205 212.824L98.147 240.625L125.948 242.198L127.521 214.397Z" fill="white"/>
</mask>
<g mask="url(#mask3_3_222)">
<path d="M107.794 213.67L119.405 214.327C120.214 214.373 120.836 215.07 120.79 215.879L119.428 239.953C119.382 240.763 118.686 241.384 117.876 241.339L106.265 240.681C105.456 240.636 104.834 239.939 104.88 239.13L106.242 215.056C106.288 214.246 106.985 213.624 107.794 213.67ZM112.268 237.551C111.608 237.514 111.05 238.016 111.013 238.672C110.976 239.327 111.473 239.89 112.133 239.927C112.791 239.964 113.349 239.46 113.386 238.806C113.423 238.152 112.926 237.588 112.268 237.551ZM107.79 213.741C107.019 213.698 106.357 214.289 106.314 215.06L105.101 236.49L119.506 237.305L120.719 215.875C120.762 215.104 120.171 214.442 119.401 214.399L107.79 213.741Z" fill="white" stroke="white" stroke-width="0.789591"/>
<path d="M115.418 216.869L111.469 216.645C111.231 216.632 111.05 216.428 111.063 216.191C111.077 215.954 111.28 215.772 111.518 215.786L115.467 216.009C115.704 216.022 115.886 216.226 115.873 216.463C115.859 216.701 115.656 216.882 115.418 216.869Z" fill="white"/>
<path d="M113.985 229.29C113.949 229.924 113.472 230.433 112.854 230.56C112.73 230.585 112.599 230.595 112.466 230.588C111.671 230.543 111.06 229.888 111.103 229.126L112.587 228.498L113.985 229.29Z" fill="white"/>
<path d="M113.891 229.713C113.718 230.143 113.327 230.464 112.854 230.561C112.566 230.467 112.319 230.288 112.145 230.058C112.005 229.872 112.156 229.614 112.394 229.628L113.891 229.713Z" fill="white"/>
<path d="M116.342 228.039L113.21 228.505L108.902 227.618C109.243 227.637 109.445 227.477 109.571 227.2C110.178 225.864 108.993 221.8 112.951 222.024C116.908 222.248 115.273 226.152 115.725 227.549C115.818 227.838 116.001 228.02 116.342 228.039Z" fill="white"/>
<path d="M117.023 228.768C117.002 229.149 116.662 229.439 116.264 229.417L108.824 228.996C108.625 228.985 108.449 228.897 108.326 228.765C108.203 228.633 108.132 228.456 108.143 228.265C108.164 227.884 108.504 227.594 108.902 227.616L116.342 228.037C116.541 228.049 116.717 228.136 116.84 228.268C116.963 228.401 117.034 228.578 117.023 228.768Z" fill="white"/>
<path d="M117.023 228.768C117.001 229.149 116.662 229.439 116.264 229.417L110.905 229.114C110.706 229.102 110.53 229.015 110.407 228.883C110.284 228.751 110.213 228.574 110.224 228.383C110.245 228.002 110.585 227.712 110.983 227.734L116.342 228.037C116.54 228.049 116.716 228.136 116.84 228.268C116.963 228.401 117.034 228.578 117.023 228.768Z" fill="white"/>
<path d="M113.68 222.118C113.682 222.101 113.684 222.083 113.685 222.065C113.707 221.677 113.396 221.344 112.99 221.321C112.584 221.298 112.238 221.594 112.216 221.982C112.215 222 112.215 222.018 112.215 222.035" fill="white"/>
<path d="M116.395 224.559C116.313 224.555 116.251 224.487 116.255 224.409C116.292 223.753 116.148 223.182 115.825 222.714C115.585 222.365 115.329 222.206 115.327 222.204C115.258 222.162 115.237 222.074 115.281 222.008C115.324 221.942 115.415 221.923 115.485 221.964C115.497 221.972 115.788 222.15 116.063 222.545C116.314 222.904 116.603 223.522 116.551 224.426C116.547 224.504 116.477 224.564 116.395 224.559Z" fill="white"/>
<path d="M117.093 223.784C117.011 223.779 116.948 223.712 116.953 223.634C117.004 222.728 116.464 222.337 116.442 222.32C116.376 222.274 116.361 222.185 116.409 222.122C116.457 222.059 116.548 222.045 116.615 222.091C116.643 222.11 117.31 222.582 117.249 223.65C117.245 223.729 117.175 223.788 117.093 223.784Z" fill="white"/>
<path d="M109.242 224.155C109.16 224.15 109.098 224.083 109.102 224.004C109.153 223.101 109.509 222.519 109.799 222.19C110.118 221.829 110.427 221.685 110.44 221.679C110.513 221.645 110.602 221.675 110.638 221.746C110.674 221.817 110.643 221.901 110.569 221.935C110.563 221.938 110.293 222.068 110.016 222.386C109.643 222.814 109.435 223.365 109.398 224.021C109.394 224.099 109.324 224.159 109.242 224.155Z" fill="white"/>
<path d="M108.636 223.305C108.555 223.301 108.492 223.233 108.496 223.155C108.557 222.087 109.272 221.693 109.303 221.677C109.374 221.639 109.465 221.663 109.505 221.732C109.545 221.8 109.52 221.886 109.449 221.925C109.423 221.939 108.844 222.267 108.793 223.172C108.788 223.25 108.718 223.31 108.636 223.305Z" fill="white"/>
</g>
<g opacity="0.5">
<path d="M91.7101 221.27L91.7553 224.264L91.3273 224.24L91.7101 221.27Z" fill="white"/>
<path d="M91.3726 227.233L91.3273 224.239L91.7553 224.264L91.3726 227.233Z" fill="white"/>
<path d="M92.6192 222.264L92.7176 224.317L92.29 224.293L92.6192 222.264Z" fill="white"/>
<path d="M92.3879 226.348L92.2899 224.295L92.7174 224.319L92.3879 226.348Z" fill="white"/>
<path d="M93.8242 218.032L93.6801 224.372L93.2521 224.347L93.8242 218.032Z" fill="white"/>
<path d="M93.1079 230.689L93.252 224.35L93.68 224.374L93.1079 230.689Z" fill="white"/>
<path d="M94.8862 216.324L94.6423 224.427L94.2147 224.402L94.8862 216.324Z" fill="white"/>
<path d="M93.9704 232.505L94.2147 224.403L94.6423 224.427L93.9704 232.505Z" fill="white"/>
<path d="M95.7941 217.351L95.6052 224.482L95.1772 224.458L95.7941 217.351Z" fill="white"/>
<path d="M94.9884 231.588L95.1773 224.457L95.6053 224.481L94.9884 231.588Z" fill="white"/>
<path d="M96.959 213.831L96.5679 224.536L96.1399 224.512L96.959 213.831Z" fill="white"/>
<path d="M95.7487 235.217L96.1398 224.512L96.5678 224.537L95.7487 235.217Z" fill="white"/>
<path d="M97.6746 218.25L97.5305 224.59L97.1025 224.565L97.6746 218.25Z" fill="white"/>
<path d="M96.9583 230.907L97.1024 224.568L97.5303 224.592L96.9583 230.907Z" fill="white"/>
<path d="M98.7007 217.183L98.4926 224.645L98.0651 224.621L98.7007 217.183Z" fill="white"/>
<path d="M97.8575 232.082L98.0651 224.62L98.4927 224.644L97.8575 232.082Z" fill="white"/>
<path d="M99.7794 215.17L99.4548 224.699L99.0272 224.675L99.7794 215.17Z" fill="white"/>
<path d="M98.7021 234.205L99.0272 224.676L99.4548 224.7L98.7021 234.205Z" fill="white"/>
<path d="M100.577 218.136L100.417 224.754L99.9893 224.73L100.577 218.136Z" fill="white"/>
<path d="M99.8293 231.348L99.9892 224.73L100.417 224.754L99.8293 231.348Z" fill="white"/>
<path d="M101.433 220.075L101.379 224.808L100.952 224.784L101.433 220.075Z" fill="white"/>
<path d="M100.898 229.518L100.952 224.785L101.379 224.809L100.898 229.518Z" fill="white"/>
<path d="M102.297 221.869L102.342 224.863L101.914 224.839L102.297 221.869Z" fill="white"/>
<path d="M101.959 227.832L101.914 224.839L102.342 224.863L101.959 227.832Z" fill="white"/>
<path d="M103.543 216.909L103.305 224.918L102.877 224.894L103.543 216.909Z" fill="white"/>
<path d="M102.638 232.901L102.877 224.893L103.305 224.917L102.638 232.901Z" fill="white"/>
<path d="M104.431 218.278L104.267 224.972L103.839 224.948L104.431 218.278Z" fill="white"/>
<path d="M103.675 231.641L103.839 224.947L104.267 224.971L103.675 231.641Z" fill="white"/>
<path d="M105.182 222.086L105.23 225.026L104.802 225.001L105.182 222.086Z" fill="white"/>
<path d="M104.85 227.943L104.802 225.003L105.23 225.027L104.85 227.943Z" fill="white"/>
<path d="M126.071 219.578L125.483 226.172L125.911 226.196L126.071 219.578Z" fill="white"/>
<path d="M125.324 232.79L125.911 226.197L125.483 226.173L125.324 232.79Z" fill="white"/>
<path d="M125.003 221.409L124.521 226.118L124.949 226.142L125.003 221.409Z" fill="white"/>
<path d="M124.468 230.851L124.949 226.143L124.521 226.119L124.468 230.851Z" fill="white"/>
<path d="M123.942 223.094L123.559 226.064L123.987 226.088L123.942 223.094Z" fill="white"/>
<path d="M123.604 229.057L123.987 226.088L123.559 226.064L123.604 229.057Z" fill="white"/>
<path d="M123.263 218.025L122.596 226.01L123.024 226.034L123.263 218.025Z" fill="white"/>
<path d="M122.358 234.017L123.024 226.033L122.596 226.009L122.358 234.017Z" fill="white"/>
<path d="M122.226 219.285L121.634 225.955L122.062 225.979L122.226 219.285Z" fill="white"/>
<path d="M121.47 232.648L122.062 225.978L121.634 225.954L121.47 232.648Z" fill="white"/>
<path d="M121.051 222.984L120.671 225.9L121.099 225.924L121.051 222.984Z" fill="white"/>
<path d="M120.719 228.841L121.099 225.925L120.671 225.901L120.719 228.841Z" fill="white"/>
</g>
<path d="M100.288 236.753L94.2511 243.44C93.4548 244.321 92.4362 244.971 91.3027 245.32C90.1692 245.67 88.9629 245.706 87.8108 245.425C86.6588 245.144 85.6039 244.556 84.7572 243.724C83.9106 242.891 83.3036 241.845 83.0004 240.695C82.8204 240 82.7521 239.281 82.7982 238.564C83.0776 234.996 85.1665 230.639 85.1665 230.639C85.2757 230.289 85.519 229.996 85.8432 229.825C86.1674 229.654 86.5459 229.619 86.8957 229.727C87.2455 229.836 87.5381 230.079 87.7092 230.404C87.8803 230.729 87.916 231.108 87.8084 231.459L86.8861 234.441L93.1997 228.079C93.4425 227.805 93.7836 227.638 94.1485 227.616C94.5133 227.593 94.8721 227.717 95.1464 227.959C95.4206 228.201 95.588 228.543 95.612 228.908C95.6359 229.274 95.5145 229.635 95.2741 229.911L96.3 228.775C96.5463 228.502 96.8905 228.339 97.2569 228.321C97.6233 228.302 97.9819 228.431 98.2538 228.678C98.5257 228.925 98.6885 229.27 98.7066 229.638C98.7246 230.005 98.5964 230.365 98.3501 230.638L97.5769 231.494C97.8227 231.221 98.1665 231.058 98.5326 231.039C98.8986 231.021 99.257 231.149 99.5288 231.395C99.8006 231.642 99.9636 231.987 99.9819 232.354C100 232.721 99.8725 233.081 99.6266 233.353L98.2374 234.892C98.4835 234.619 98.8276 234.455 99.1939 234.437C99.5603 234.418 99.9189 234.547 100.191 234.794C100.463 235.04 100.626 235.386 100.644 235.753C100.662 236.12 100.534 236.48 100.288 236.753Z" fill="white" stroke="#B46BF7" stroke-width="0.386738" stroke-linecap="round" stroke-linejoin="round"/>
<path d="M95.2511 229.945L91.1449 234.493" stroke="#B46BF7" stroke-width="0.386738" stroke-linecap="round" stroke-linejoin="round"/>
<path d="M97.578 231.494L93.1917 236.349" stroke="#B46BF7" stroke-width="0.386738" stroke-linecap="round" stroke-linejoin="round"/>
<path d="M98.2386 234.894L95.2416 238.214" stroke="#B46BF7" stroke-width="0.386738" stroke-linecap="round" stroke-linejoin="round"/>
<path d="M97.4016 246.392L88.9533 249.488C87.8394 249.895 86.6367 249.993 85.472 249.772C84.3073 249.551 83.2237 249.018 82.3355 248.231C81.4473 247.444 80.7874 246.431 80.4253 245.298C80.0632 244.166 80.0123 242.957 80.278 241.798C80.4418 241.099 80.7158 240.43 81.0896 239.818C82.9949 236.791 86.867 233.913 86.867 233.913C87.1263 233.652 87.4781 233.506 87.8449 233.506C88.2116 233.506 88.5633 233.652 88.8227 233.912C89.082 234.172 89.2277 234.525 89.2277 234.893C89.2277 235.261 89.0821 235.614 88.8227 235.874L86.6216 238.081L95.1622 235.404C95.3319 235.339 95.5127 235.309 95.6943 235.314C95.8758 235.319 96.0545 235.36 96.2202 235.435C96.3859 235.509 96.5353 235.616 96.6598 235.749C96.7844 235.881 96.8818 236.037 96.9463 236.207C97.0109 236.377 97.0414 236.559 97.036 236.741C97.0307 236.923 96.9897 237.102 96.9153 237.269C96.8409 237.435 96.7346 237.585 96.6025 237.71C96.4703 237.835 96.315 237.932 96.1452 237.997L97.5807 237.472C97.9246 237.349 98.3028 237.367 98.6329 237.523C98.9631 237.679 99.2186 237.959 99.3436 238.303C99.4686 238.647 99.453 239.027 99.3003 239.359C99.1476 239.692 98.8701 239.95 98.5283 240.079L97.4466 240.475C97.6176 240.41 97.8 240.379 97.983 240.385C98.166 240.39 98.3459 240.433 98.5125 240.509C98.679 240.585 98.8288 240.694 98.9532 240.828C99.0775 240.963 99.1739 241.121 99.2368 241.294C99.2996 241.466 99.3277 241.65 99.3193 241.833C99.311 242.017 99.2664 242.197 99.1881 242.363C99.1098 242.529 98.9994 242.678 98.8634 242.801C98.7273 242.924 98.5683 243.018 98.3955 243.079L96.4516 243.79C96.6223 243.727 96.8038 243.698 96.9858 243.705C97.1677 243.712 97.3464 243.755 97.5117 243.831C97.677 243.908 97.8256 244.016 97.949 244.151C98.0724 244.285 98.168 244.442 98.2306 244.614C98.2931 244.785 98.3212 244.967 98.3133 245.15C98.3054 245.332 98.2617 245.511 98.1846 245.677C98.1075 245.842 97.9986 245.991 97.8641 246.114C97.7296 246.237 97.5722 246.333 97.4009 246.395L97.4016 246.392Z" fill="white" stroke="#B46BF7" stroke-width="0.386738" stroke-linecap="round" stroke-linejoin="round"/>
<path d="M96.11 238.011L90.3648 240.115" stroke="#B46BF7" stroke-width="0.386738" stroke-linecap="round" stroke-linejoin="round"/>
<path d="M97.4465 240.47L91.3104 242.715" stroke="#B46BF7" stroke-width="0.386738" stroke-linecap="round" stroke-linejoin="round"/>
<path d="M96.4515 243.788L92.2576 245.324" stroke="#B46BF7" stroke-width="0.386738" stroke-linecap="round" stroke-linejoin="round"/>
</g>
</g>
</g>
<g clip-path="url(#clip3_3_222)">
<path d="M441.009 182.033L390.375 202.77C385.715 204.679 383.484 210.004 385.393 214.665L406.129 265.299C408.038 269.959 413.364 272.19 418.024 270.282L468.658 249.545C473.319 247.636 475.55 242.311 473.641 237.65L452.904 187.016C450.996 182.355 445.67 180.125 441.009 182.033Z" fill="url(#paint6_linear_3_222)"/>
<path d="M415.429 243.886C416.292 245.995 416.853 247.355 417.362 248.356C417.85 249.316 418.138 249.628 418.305 249.771C418.937 250.316 419.726 250.646 420.557 250.715C420.776 250.733 421.201 250.72 422.227 250.394C423.298 250.055 424.661 249.5 426.769 248.637C427.254 248.438 427.808 248.67 428.006 249.155L428.785 251.056C428.983 251.541 428.751 252.095 428.266 252.293L427.522 252.598C423.975 254.047 422.068 254.776 420.32 254.66L420.231 254.653C418.568 254.516 416.991 253.855 415.726 252.766C414.378 251.605 413.557 249.733 412.077 246.128L411.772 245.384C411.574 244.899 411.806 244.345 412.29 244.147L414.192 243.368C414.677 243.17 415.23 243.401 415.429 243.886Z" fill="#06A851"/>
<path d="M415.429 243.886C416.292 245.995 416.853 247.355 417.362 248.356C417.85 249.316 418.138 249.628 418.305 249.771C418.937 250.316 419.726 250.646 420.557 250.715C420.776 250.733 421.201 250.72 422.227 250.394C423.298 250.055 424.661 249.5 426.769 248.637C427.254 248.438 427.808 248.67 428.006 249.155L428.785 251.056C428.983 251.541 428.751 252.095 428.266 252.293L427.522 252.598C423.975 254.047 422.068 254.776 420.32 254.66L420.231 254.653C418.568 254.516 416.991 253.855 415.726 252.766C414.378 251.605 413.557 249.733 412.077 246.128L411.772 245.384C411.574 244.899 411.806 244.345 412.29 244.147L414.192 243.368C414.677 243.17 415.23 243.401 415.429 243.886Z" fill="url(#paint7_linear_3_222)" fill-opacity="0.3"/>
<path d="M415.429 243.886C416.292 245.995 416.853 247.355 417.362 248.356C417.85 249.316 418.138 249.628 418.305 249.771C418.937 250.316 419.726 250.646 420.557 250.715C420.776 250.733 421.201 250.72 422.227 250.394C423.298 250.055 424.661 249.5 426.769 248.637C427.254 248.438 427.808 248.67 428.006 249.155L428.785 251.056C428.983 251.541 428.751 252.095 428.266 252.293L427.522 252.598C423.975 254.047 422.068 254.776 420.32 254.66L420.231 254.653C418.568 254.516 416.991 253.855 415.726 252.766C414.378 251.605 413.557 249.733 412.077 246.128L411.772 245.384C411.574 244.899 411.806 244.345 412.29 244.147L414.192 243.368C414.677 243.17 415.23 243.401 415.429 243.886Z" fill="url(#paint8_radial_3_222)" fill-opacity="0.3"/>
<path d="M455.655 227.412C457.332 231.508 458.171 233.556 458.014 235.447L458 235.603C457.835 237.209 457.182 238.727 456.127 239.953L456.068 240.019C454.904 241.328 453.034 242.147 449.489 243.602L448.745 243.907C448.26 244.105 447.707 243.873 447.508 243.388L446.729 241.487C446.531 241.002 446.763 240.449 447.248 240.25C449.356 239.386 450.716 238.826 451.718 238.317C452.678 237.829 452.99 237.54 453.133 237.374C453.677 236.742 454.007 235.953 454.076 235.121C454.095 234.903 454.081 234.478 453.755 233.451C453.416 232.381 452.861 231.018 451.998 228.91C451.799 228.425 452.031 227.871 452.516 227.673L454.417 226.894C454.902 226.696 455.456 226.927 455.655 227.412Z" fill="#06A851"/>
<path d="M455.655 227.412C457.332 231.508 458.171 233.556 458.014 235.447L458 235.603C457.835 237.209 457.182 238.727 456.127 239.953L456.068 240.019C454.904 241.328 453.034 242.147 449.489 243.602L448.745 243.907C448.26 244.105 447.707 243.873 447.508 243.388L446.729 241.487C446.531 241.002 446.763 240.449 447.248 240.25C449.356 239.386 450.716 238.826 451.718 238.317C452.678 237.829 452.99 237.54 453.133 237.374C453.677 236.742 454.007 235.953 454.076 235.121C454.095 234.903 454.081 234.478 453.755 233.451C453.416 232.381 452.861 231.018 451.998 228.91C451.799 228.425 452.031 227.871 452.516 227.673L454.417 226.894C454.902 226.696 455.456 226.927 455.655 227.412Z" fill="url(#paint9_linear_3_222)" fill-opacity="0.3"/>
<path d="M455.655 227.412C457.332 231.508 458.171 233.556 458.014 235.447L458 235.603C457.835 237.209 457.182 238.727 456.127 239.953L456.068 240.019C454.904 241.328 453.034 242.147 449.489 243.602L448.745 243.907C448.26 244.105 447.707 243.873 447.508 243.388L446.729 241.487C446.531 241.002 446.763 240.449 447.248 240.25C449.356 239.386 450.716 238.826 451.718 238.317C452.678 237.829 452.99 237.54 453.133 237.374C453.677 236.742 454.007 235.953 454.076 235.121C454.095 234.903 454.081 234.478 453.755 233.451C453.416 232.381 452.861 231.018 451.998 228.91C451.799 228.425 452.031 227.871 452.516 227.673L454.417 226.894C454.902 226.696 455.456 226.927 455.655 227.412Z" fill="url(#paint10_radial_3_222)" fill-opacity="0.3"/>
<path d="M422.85 240.847C423.408 240.618 424.034 240.962 424.172 241.549C424.374 242.404 424.625 243.25 424.926 244.084C425.106 244.581 424.87 245.149 424.352 245.249C424.057 245.305 423.758 245.334 423.455 245.333C422.832 245.331 422.216 245.205 421.642 244.965C421.068 244.724 420.546 244.373 420.108 243.931C419.892 243.714 419.699 243.478 419.53 243.225C419.239 242.789 419.479 242.228 419.963 242.029L422.85 240.847Z" fill="#06A851"/>
<path d="M422.85 240.847C423.408 240.618 424.034 240.962 424.172 241.549C424.374 242.404 424.625 243.25 424.926 244.084C425.106 244.581 424.87 245.149 424.352 245.249C424.057 245.305 423.758 245.334 423.455 245.333C422.832 245.331 422.216 245.205 421.642 244.965C421.068 244.724 420.546 244.373 420.108 243.931C419.892 243.714 419.699 243.478 419.53 243.225C419.239 242.789 419.479 242.228 419.963 242.029L422.85 240.847Z" fill="url(#paint11_linear_3_222)" fill-opacity="0.3"/>
<path d="M422.85 240.847C423.408 240.618 424.034 240.962 424.172 241.549C424.374 242.404 424.625 243.25 424.926 244.084C425.106 244.581 424.87 245.149 424.352 245.249C424.057 245.305 423.758 245.334 423.455 245.333C422.832 245.331 422.216 245.205 421.642 244.965C421.068 244.724 420.546 244.373 420.108 243.931C419.892 243.714 419.699 243.478 419.53 243.225C419.239 242.789 419.479 242.228 419.963 242.029L422.85 240.847Z" fill="url(#paint12_radial_3_222)" fill-opacity="0.3"/>
<path d="M444.147 220.168C447.216 227.662 444.111 236.146 437.198 239.977C436.722 240.24 436.13 240.01 435.95 239.496C434.307 234.816 434.731 230.409 435.9 226.719C436.641 224.376 438.018 222.304 439.512 220.352L440.839 218.619C440.945 218.48 440.919 218.282 440.78 218.176C440.642 218.069 440.443 218.096 440.337 218.234L439.94 218.752C433.266 226.652 430.535 233.413 433.124 240.738C433.299 241.231 433.07 241.786 432.585 241.984L429.074 243.422C428.59 243.621 428.034 243.389 427.859 242.896C426.221 238.277 426.355 233.2 428.257 228.659C429.154 226.517 430.403 224.564 431.948 222.889L440.142 213.956C440.612 213.443 441.455 213.594 441.719 214.237L444.147 220.168Z" fill="#06A851"/>
<path d="M444.147 220.168C447.216 227.662 444.111 236.146 437.198 239.977C436.722 240.24 436.13 240.01 435.95 239.496C434.307 234.816 434.731 230.409 435.9 226.719C436.641 224.376 438.018 222.304 439.512 220.352L440.839 218.619C440.945 218.48 440.919 218.282 440.78 218.176C440.642 218.069 440.443 218.096 440.337 218.234L439.94 218.752C433.266 226.652 430.535 233.413 433.124 240.738C433.299 241.231 433.07 241.786 432.585 241.984L429.074 243.422C428.59 243.621 428.034 243.389 427.859 242.896C426.221 238.277 426.355 233.2 428.257 228.659C429.154 226.517 430.403 224.564 431.948 222.889L440.142 213.956C440.612 213.443 441.455 213.594 441.719 214.237L444.147 220.168Z" fill="url(#paint13_linear_3_222)" fill-opacity="0.3"/>
<path d="M444.147 220.168C447.216 227.662 444.111 236.146 437.198 239.977C436.722 240.24 436.13 240.01 435.95 239.496C434.307 234.816 434.731 230.409 435.9 226.719C436.641 224.376 438.018 222.304 439.512 220.352L440.839 218.619C440.945 218.48 440.919 218.282 440.78 218.176C440.642 218.069 440.443 218.096 440.337 218.234L439.94 218.752C433.266 226.652 430.535 233.413 433.124 240.738C433.299 241.231 433.07 241.786 432.585 241.984L429.074 243.422C428.59 243.621 428.034 243.389 427.859 242.896C426.221 238.277 426.355 233.2 428.257 228.659C429.154 226.517 430.403 224.564 431.948 222.889L440.142 213.956C440.612 213.443 441.455 213.594 441.719 214.237L444.147 220.168Z" fill="url(#paint14_radial_3_222)" fill-opacity="0.3"/>
<path d="M433.696 215.501C433.835 215.841 433.765 216.231 433.517 216.502L429.624 220.746C427.825 222.697 426.378 224.964 425.341 227.438C424.347 229.812 423.769 232.313 423.608 234.834C423.574 235.374 423.114 235.801 422.579 235.719C421.621 235.573 420.683 235.31 419.785 234.934C418.349 234.332 417.046 233.454 415.949 232.349C414.853 231.243 413.985 229.933 413.395 228.492L409.261 218.399C409.063 217.915 409.294 217.352 409.804 217.233C411.739 216.78 413.741 217.34 415.158 218.64C415.478 218.933 415.699 219.314 415.864 219.715L416.131 220.368C416.198 220.53 416.382 220.607 416.544 220.541C416.705 220.475 416.783 220.29 416.717 220.129L416.449 219.476C416.285 219.075 416.176 218.648 416.198 218.215C416.312 215.993 417.677 213.928 419.873 213.029C422.067 212.13 424.489 212.644 426.129 214.147C426.449 214.44 426.67 214.821 426.835 215.222L427.102 215.876C427.168 216.037 427.353 216.114 427.514 216.048C427.676 215.982 427.753 215.797 427.687 215.636L427.42 214.983C427.255 214.581 427.146 214.155 427.168 213.721C427.267 211.801 428.301 209.997 429.997 208.963C430.445 208.69 431.004 208.929 431.203 209.414L433.696 215.501Z" fill="#06A851"/>
<path d="M433.696 215.501C433.835 215.841 433.765 216.231 433.517 216.502L429.624 220.746C427.825 222.697 426.378 224.964 425.341 227.438C424.347 229.812 423.769 232.313 423.608 234.834C423.574 235.374 423.114 235.801 422.579 235.719C421.621 235.573 420.683 235.31 419.785 234.934C418.349 234.332 417.046 233.454 415.949 232.349C414.853 231.243 413.985 229.933 413.395 228.492L409.261 218.399C409.063 217.915 409.294 217.352 409.804 217.233C411.739 216.78 413.741 217.34 415.158 218.64C415.478 218.933 415.699 219.314 415.864 219.715L416.131 220.368C416.198 220.53 416.382 220.607 416.544 220.541C416.705 220.475 416.783 220.29 416.717 220.129L416.449 219.476C416.285 219.075 416.176 218.648 416.198 218.215C416.312 215.993 417.677 213.928 419.873 213.029C422.067 212.13 424.489 212.644 426.129 214.147C426.449 214.44 426.67 214.821 426.835 215.222L427.102 215.876C427.168 216.037 427.353 216.114 427.514 216.048C427.676 215.982 427.753 215.797 427.687 215.636L427.42 214.983C427.255 214.581 427.146 214.155 427.168 213.721C427.267 211.801 428.301 209.997 429.997 208.963C430.445 208.69 431.004 208.929 431.203 209.414L433.696 215.501Z" fill="url(#paint15_linear_3_222)" fill-opacity="0.3"/>
<path d="M433.696 215.501C433.835 215.841 433.765 216.231 433.517 216.502L429.624 220.746C427.825 222.697 426.378 224.964 425.341 227.438C424.347 229.812 423.769 232.313 423.608 234.834C423.574 235.374 423.114 235.801 422.579 235.719C421.621 235.573 420.683 235.31 419.785 234.934C418.349 234.332 417.046 233.454 415.949 232.349C414.853 231.243 413.985 229.933 413.395 228.492L409.261 218.399C409.063 217.915 409.294 217.352 409.804 217.233C411.739 216.78 413.741 217.34 415.158 218.64C415.478 218.933 415.699 219.314 415.864 219.715L416.131 220.368C416.198 220.53 416.382 220.607 416.544 220.541C416.705 220.475 416.783 220.29 416.717 220.129L416.449 219.476C416.285 219.075 416.176 218.648 416.198 218.215C416.312 215.993 417.677 213.928 419.873 213.029C422.067 212.13 424.489 212.644 426.129 214.147C426.449 214.44 426.67 214.821 426.835 215.222L427.102 215.876C427.168 216.037 427.353 216.114 427.514 216.048C427.676 215.982 427.753 215.797 427.687 215.636L427.42 214.983C427.255 214.581 427.146 214.155 427.168 213.721C427.267 211.801 428.301 209.997 429.997 208.963C430.445 208.69 431.004 208.929 431.203 209.414L433.696 215.501Z" fill="url(#paint16_radial_3_222)" fill-opacity="0.3"/>
<path d="M412.311 210.831C412.509 211.315 412.277 211.869 411.792 212.068C409.684 212.931 408.324 213.492 407.322 214.001C406.362 214.489 406.05 214.777 405.907 214.943C405.363 215.576 405.032 216.364 404.964 217.196C404.945 217.415 404.959 217.839 405.284 218.866C405.624 219.937 406.179 221.299 407.042 223.408C407.241 223.892 407.009 224.446 406.524 224.645L404.622 225.423C404.138 225.622 403.584 225.39 403.385 224.905C401.734 220.873 400.895 218.826 401.019 216.959L401.025 216.87C401.159 215.259 401.783 213.728 402.812 212.484L402.913 212.365C404.151 210.927 406.199 210.088 410.295 208.411C410.78 208.212 411.333 208.444 411.532 208.929L412.311 210.831Z" fill="#06A851"/>
<path d="M412.311 210.831C412.509 211.315 412.277 211.869 411.792 212.068C409.684 212.931 408.324 213.492 407.322 214.001C406.362 214.489 406.05 214.777 405.907 214.943C405.363 215.576 405.032 216.364 404.964 217.196C404.945 217.415 404.959 217.839 405.284 218.866C405.624 219.937 406.179 221.299 407.042 223.408C407.241 223.892 407.009 224.446 406.524 224.645L404.622 225.423C404.138 225.622 403.584 225.39 403.385 224.905C401.734 220.873 400.895 218.826 401.019 216.959L401.025 216.87C401.159 215.259 401.783 213.728 402.812 212.484L402.913 212.365C404.151 210.927 406.199 210.088 410.295 208.411C410.78 208.212 411.333 208.444 411.532 208.929L412.311 210.831Z" fill="url(#paint17_linear_3_222)" fill-opacity="0.3"/>
<path d="M412.311 210.831C412.509 211.315 412.277 211.869 411.792 212.068C409.684 212.931 408.324 213.492 407.322 214.001C406.362 214.489 406.05 214.777 405.907 214.943C405.363 215.576 405.032 216.364 404.964 217.196C404.945 217.415 404.959 217.839 405.284 218.866C405.624 219.937 406.179 221.299 407.042 223.408C407.241 223.892 407.009 224.446 406.524 224.645L404.622 225.423C404.138 225.622 403.584 225.39 403.385 224.905C401.734 220.873 400.895 218.826 401.019 216.959L401.025 216.87C401.159 215.259 401.783 213.728 402.812 212.484L402.913 212.365C404.151 210.927 406.199 210.088 410.295 208.411C410.78 208.212 411.333 208.444 411.532 208.929L412.311 210.831Z" fill="url(#paint18_radial_3_222)" fill-opacity="0.3"/>
<path d="M430.773 200.024C434.869 198.347 436.917 197.508 438.808 197.664C440.472 197.802 442.049 198.462 443.314 199.551C444.751 200.789 445.59 202.838 447.268 206.934C447.466 207.418 447.234 207.972 446.75 208.171L444.848 208.949C444.363 209.148 443.81 208.916 443.611 208.431C442.748 206.323 442.187 204.963 441.678 203.961C441.19 203.001 440.902 202.689 440.735 202.546C440.103 202.002 439.314 201.671 438.483 201.602C438.264 201.584 437.839 201.597 436.813 201.923C435.742 202.263 434.38 202.817 432.271 203.681C431.786 203.879 431.232 203.647 431.034 203.163L430.255 201.261C430.057 200.776 430.289 200.223 430.773 200.024Z" fill="#06A851"/>
<path d="M430.773 200.024C434.869 198.347 436.917 197.508 438.808 197.664C440.472 197.802 442.049 198.462 443.314 199.551C444.751 200.789 445.59 202.838 447.268 206.934C447.466 207.418 447.234 207.972 446.75 208.171L444.848 208.949C444.363 209.148 443.81 208.916 443.611 208.431C442.748 206.323 442.187 204.963 441.678 203.961C441.19 203.001 440.902 202.689 440.735 202.546C440.103 202.002 439.314 201.671 438.483 201.602C438.264 201.584 437.839 201.597 436.813 201.923C435.742 202.263 434.38 202.817 432.271 203.681C431.786 203.879 431.232 203.647 431.034 203.163L430.255 201.261C430.057 200.776 430.289 200.223 430.773 200.024Z" fill="url(#paint19_linear_3_222)" fill-opacity="0.3"/>
<path d="M430.773 200.024C434.869 198.347 436.917 197.508 438.808 197.664C440.472 197.802 442.049 198.462 443.314 199.551C444.751 200.789 445.59 202.838 447.268 206.934C447.466 207.418 447.234 207.972 446.75 208.171L444.848 208.949C444.363 209.148 443.81 208.916 443.611 208.431C442.748 206.323 442.187 204.963 441.678 203.961C441.19 203.001 440.902 202.689 440.735 202.546C440.103 202.002 439.314 201.671 438.483 201.602C438.264 201.584 437.839 201.597 436.813 201.923C435.742 202.263 434.38 202.817 432.271 203.681C431.786 203.879 431.232 203.647 431.034 203.163L430.255 201.261C430.057 200.776 430.289 200.223 430.773 200.024Z" fill="url(#paint20_radial_3_222)" fill-opacity="0.3"/>
<path d="M435.963 206.439C437.175 205.943 438.559 206.523 439.056 207.735C439.552 208.947 438.972 210.331 437.76 210.827C436.548 211.324 435.164 210.744 434.667 209.532C434.171 208.32 434.751 206.935 435.963 206.439Z" fill="#06A851"/>
<path d="M435.963 206.439C437.175 205.943 438.559 206.523 439.056 207.735C439.552 208.947 438.972 210.331 437.76 210.827C436.548 211.324 435.164 210.744 434.667 209.532C434.171 208.32 434.751 206.935 435.963 206.439Z" fill="url(#paint21_linear_3_222)" fill-opacity="0.3"/>
<path d="M435.963 206.439C437.175 205.943 438.559 206.523 439.056 207.735C439.552 208.947 438.972 210.331 437.76 210.827C436.548 211.324 435.164 210.744 434.667 209.532C434.171 208.32 434.751 206.935 435.963 206.439Z" fill="url(#paint22_radial_3_222)" fill-opacity="0.3"/>
</g>
<g clip-path="url(#clip4_3_222)">
<path d="M346.076 359.207C346.076 346.95 346.076 340.821 348.461 336.139C350.559 332.021 353.908 328.673 358.026 326.575C362.707 324.189 368.836 324.189 381.094 324.189H384.012C396.269 324.189 402.398 324.189 407.08 326.575C411.198 328.673 414.546 332.021 416.644 336.139C419.03 340.821 419.03 346.95 419.03 359.207V362.125C419.03 374.383 419.03 380.512 416.644 385.194C414.546 389.311 411.198 392.659 407.08 394.758C402.398 397.143 396.269 397.143 384.012 397.143H381.094C368.836 397.143 362.707 397.143 358.026 394.758C353.908 392.659 350.559 389.311 348.461 385.194C346.076 380.512 346.076 374.383 346.076 362.125V359.207Z" fill="#783D00"/>
<path d="M370.088 377.32H382.009V381.641H368.328C367.627 381.641 366.992 381.359 366.53 380.903L370.088 374.739V377.32Z" fill="#FBD6A2"/>
<path d="M398.287 380.903C397.825 381.359 397.19 381.641 396.489 381.641H382.809V377.32H394.729V374.739L398.287 380.903Z" fill="#FBD6A2"/>
<path d="M399.049 362.669V379.08C399.049 379.477 398.959 379.852 398.798 380.187L394.729 373.139V360.175L399.049 362.669Z" fill="#FBD6A2"/>
<path d="M370.088 373.139L366.019 380.187C365.858 379.852 365.768 379.477 365.768 379.08V362.669L370.088 360.175V373.139Z" fill="#FBD6A2"/>
<path d="M370.088 359.251L365.768 361.745V353H370.088V359.251Z" fill="#FBD6A2"/>
<path d="M399.049 361.745L394.729 359.251V353H399.049V361.745Z" fill="#FBD6A2"/>
<path d="M375.939 342.195C375.132 342.693 374.379 343.287 373.697 343.968C373.041 344.624 372.467 345.346 371.981 346.118L368.238 343.957C368.913 342.861 369.717 341.838 370.642 340.914C371.593 339.963 372.648 339.139 373.779 338.453L375.939 342.195Z" fill="#FBD6A2"/>
<path d="M382.809 336.044C385.467 336.108 388.05 336.808 390.351 338.057C390.349 338.056 390.347 338.055 390.345 338.054L388.184 341.797C386.537 340.924 384.7 340.428 382.809 340.366V336.044Z" fill="#FBD6A2"/>
<path d="M382.009 340.367C380.117 340.428 378.281 340.923 376.634 341.797L374.473 338.054C376.772 336.807 379.352 336.108 382.009 336.045V340.367Z" fill="#FBD6A2"/>
<path d="M382.027 353.001V356.664C382.027 358.265 380.729 359.563 379.129 359.563V360.326C380.73 360.326 382.027 361.624 382.027 363.225V376.521H370.888V353.001H382.027Z" fill="#FBD6A2"/>
<path d="M384.849 353.001C386.617 353.001 388.049 354.434 388.049 356.202V376.521H382.79V363.224C382.79 361.623 384.088 360.326 385.689 360.326V359.563C384.088 359.563 382.79 358.265 382.79 356.664V353.001H384.849Z" fill="#FBD6A2"/>
<path d="M393.929 376.521H388.831V356.202C388.831 354.434 390.263 353.001 392.031 353.001H393.929V376.521Z" fill="#FBD6A2"/>
<path d="M388.831 343.116C389.446 343.529 390.023 344.003 390.555 344.534C392.607 346.586 393.804 349.332 393.919 352.22H392.031C390.263 352.22 388.831 350.787 388.831 349.02V343.116Z" fill="#FBD6A2"/>
<path d="M382.027 352.22H370.898C371.013 349.332 372.211 346.586 374.263 344.534C376.333 342.464 379.11 341.263 382.027 341.166V352.22Z" fill="#FBD6A2"/>
<path d="M382.79 341.166C384.649 341.228 386.451 341.738 388.049 342.635V349.02C388.049 350.787 386.617 352.22 384.849 352.22H382.79V341.166Z" fill="#FBD6A2"/>
<path d="M371.578 346.809C370.684 348.457 370.172 350.3 370.098 352.2H365.776C365.854 349.538 366.569 346.946 367.835 344.648L371.578 346.809Z" fill="#FBD6A2"/>
<path d="M394.175 340.914C393.224 339.963 392.17 339.139 391.038 338.452L388.878 342.195C389.685 342.693 390.439 343.287 391.12 343.968C391.776 344.624 392.349 345.346 392.836 346.118L396.579 343.957C395.906 342.865 395.097 341.835 394.175 340.914Z" fill="#FBD6A2"/>
<path d="M399.042 352.2H394.72C394.645 350.3 394.133 348.457 393.24 346.809L396.982 344.648C398.253 346.949 398.965 349.53 399.042 352.2Z" fill="#FBD6A2"/>
</g>
<g clip-path="url(#clip5_3_222)">
<mask id="mask4_3_222" style="mask-type:luminance" maskUnits="userSpaceOnUse" x="234" y="449" width="81" height="80">
<path d="M304.241 449.123H244.738C239.261 449.123 234.821 453.563 234.821 459.04V518.543C234.821 524.021 239.261 528.461 244.738 528.461H304.241C309.718 528.461 314.158 524.021 314.158 518.543V459.04C314.158 453.563 309.718 449.123 304.241 449.123Z" fill="white"/>
</mask>
<g mask="url(#mask4_3_222)">
<path d="M304.241 449.123H244.738C239.261 449.123 234.821 453.563 234.821 459.04V518.543C234.821 524.021 239.261 528.461 244.738 528.461H304.241C309.718 528.461 314.158 524.021 314.158 518.543V459.04C314.158 453.563 309.718 449.123 304.241 449.123Z" fill="#1570EF"/>
<path opacity="0.1" d="M274.489 574.741C298.832 574.741 318.566 555.007 318.566 530.665C318.566 506.322 298.832 486.588 274.489 486.588C250.147 486.588 230.413 506.322 230.413 530.665C230.413 555.007 250.147 574.741 274.489 574.741Z" fill="white"/>
<path opacity="0.1" d="M296.528 469.692C296.528 464.055 293.349 460.877 287.713 460.877C293.349 460.877 296.528 457.699 296.528 452.062C296.528 457.699 299.706 460.877 305.343 460.877C299.706 460.877 296.528 464.055 296.528 469.692Z" fill="white"/>
<path opacity="0.1" d="M234.821 490.261C234.821 482.745 230.583 478.507 223.067 478.507C230.583 478.507 234.821 474.27 234.821 466.754C234.821 474.27 239.058 478.507 246.574 478.507C239.058 478.507 234.821 482.745 234.821 490.261Z" fill="white"/>
<path d="M250.982 477.038V465.284H262.736" stroke="white" stroke-width="2.57112" stroke-linecap="round"/>
<path d="M297.997 477.038V465.284H286.243" stroke="white" stroke-width="2.57112" stroke-linecap="round"/>
<path d="M297.997 500.546V512.299H286.243" stroke="white" stroke-width="2.57112" stroke-linecap="round"/>
<path d="M250.982 500.546V512.299H262.736" stroke="white" stroke-width="2.57112" stroke-linecap="round"/>
<path fill-rule="evenodd" clip-rule="evenodd" d="M264.201 484.481L261.542 480.759L259.082 484.481H256.124L260.179 478.864L256.145 473.365H259.245L261.822 476.978L263.957 473.365H266.914L263.16 478.848L267.24 484.481H264.201ZM273.896 482.988H290.863H292.148V480.417H290.863H273.461C272.526 480.417 271.713 481.059 271.496 481.968L266.992 500.852L261.396 491.516L260.735 490.413L258.53 491.735L259.191 492.838L265.481 503.333C266.412 504.886 268.759 504.525 269.179 502.763L273.896 482.988ZM278.987 503.021C279.904 503.629 280.926 503.934 282.051 503.934C282.709 503.934 283.324 503.832 283.895 503.629C284.484 503.427 285.012 503.165 285.48 502.844C285.925 502.533 286.297 502.187 286.596 501.805V503.681H289.843V490.318H286.623V492.208C286.362 491.818 286.042 491.467 285.662 491.155C285.229 490.8 284.726 490.529 284.155 490.343C283.584 490.14 282.952 490.039 282.259 490.039C281.065 490.039 279.991 490.335 279.039 490.926C278.086 491.518 277.333 492.338 276.779 493.386C276.225 494.434 275.948 495.626 275.948 496.961C275.948 498.296 276.225 499.488 276.779 500.536C277.333 501.584 278.069 502.413 278.987 503.021ZM284.908 500.637C284.337 500.992 283.679 501.17 282.935 501.17C282.19 501.17 281.532 500.992 280.961 500.637C280.407 500.283 279.974 499.793 279.662 499.167C279.35 498.525 279.195 497.789 279.195 496.961C279.195 496.15 279.35 495.431 279.662 494.806C279.974 494.18 280.407 493.69 280.961 493.335C281.532 492.98 282.19 492.803 282.935 492.803C283.679 492.803 284.337 492.98 284.908 493.335C285.48 493.69 285.922 494.18 286.233 494.806C286.562 495.431 286.726 496.15 286.726 496.961C286.726 497.789 286.562 498.525 286.233 499.167C285.922 499.793 285.48 500.283 284.908 500.637Z" fill="white"/>
</g>
</g>
<g clip-path="url(#clip6_3_222)">
<mask id="mask5_3_222" style="mask-type:luminance" maskUnits="userSpaceOnUse" x="25" y="444" width="70" height="70">
<path d="M62.8058 445.399L28.1527 467.569C25.4186 469.318 24.6202 472.952 26.3693 475.686L48.5389 510.339C50.2881 513.073 53.9224 513.872 56.6565 512.123L91.3096 489.953C94.0436 488.204 94.8421 484.569 93.0929 481.835L70.9233 447.182C69.1742 444.448 65.5398 443.65 62.8058 445.399Z" fill="white"/>
</mask>
<g mask="url(#mask5_3_222)">
<path d="M62.8058 445.399L28.1527 467.569C25.4186 469.318 24.6202 472.952 26.3693 475.686L48.5389 510.339C50.2881 513.073 53.9224 513.872 56.6565 512.123L91.3096 489.953C94.0436 488.204 94.8421 484.569 93.0929 481.835L70.9233 447.182C69.1742 444.448 65.5398 443.65 62.8058 445.399Z" fill="black"/>
<path d="M89.9258 476.885L45.3718 505.389L51.706 515.29L96.26 486.786L89.9258 476.885Z" fill="#5C3DFB"/>
<mask id="mask6_3_222" style="mask-type:luminance" maskUnits="userSpaceOnUse" x="23" y="442" width="74" height="74">
<path d="M67.7562 442.232L23.2022 470.736L51.706 515.29L96.26 486.786L67.7562 442.232Z" fill="white"/>
</mask>
<g mask="url(#mask6_3_222)">
<path d="M51.1069 496.178L40.0497 478.895L47.0803 474.397C48.3546 473.581 49.6163 473.131 50.8655 473.046C52.1166 472.951 53.2822 473.192 54.3622 473.77C55.4387 474.342 56.3566 475.221 57.1161 476.409C57.8791 477.601 58.2892 478.81 58.3463 480.034C58.4052 481.249 58.1176 482.404 57.4834 483.5C56.8492 484.595 55.881 485.56 54.5791 486.393L50.2411 489.168L48.1354 485.877L51.7089 483.59C52.3294 483.193 52.7773 482.752 53.0524 482.267C53.3331 481.778 53.4555 481.268 53.4196 480.736C53.3801 480.198 53.1912 479.665 52.8529 479.136C52.511 478.601 52.1078 478.209 51.6433 477.959C51.1753 477.704 50.6624 477.604 50.1045 477.659C49.5467 477.715 48.9603 477.939 48.3453 478.333L46.3176 479.63L55.2206 493.546L51.1069 496.178Z" fill="white"/>
<path d="M67.2455 468.798C66.7942 468.215 66.2399 467.892 65.5826 467.828C64.9274 467.756 64.198 467.977 63.3947 468.491C62.8628 468.831 62.4646 469.185 62.2 469.552C61.9354 469.92 61.7937 470.284 61.7747 470.645C61.7522 471 61.839 471.337 62.035 471.656C62.1895 471.922 62.3851 472.118 62.6219 472.244C62.8642 472.366 63.142 472.434 63.4552 472.448C63.7704 472.453 64.1192 472.412 64.5014 472.326C64.8837 472.24 65.2957 472.115 65.7375 471.951L67.4161 471.353C68.377 471 69.2777 470.773 70.1184 470.671C70.9645 470.566 71.7432 470.587 72.4545 470.734C73.1712 470.879 73.8214 471.156 74.4049 471.568C74.9884 471.98 75.5042 472.53 75.9525 473.218C76.6452 474.313 76.973 475.424 76.9359 476.549C76.8989 477.675 76.5093 478.769 75.7673 479.83C75.0309 480.888 73.9535 481.871 72.5352 482.778C71.1114 483.689 69.7317 484.266 68.3964 484.51C67.0611 484.754 65.8173 484.622 64.6649 484.115C63.5125 483.607 62.4961 482.683 61.6156 481.344L65.5547 478.824C65.9443 479.359 66.3881 479.73 66.8861 479.934C67.384 480.139 67.9213 480.192 68.498 480.092C69.0802 479.989 69.6732 479.745 70.2772 479.359C70.8312 479.004 71.2535 478.627 71.5442 478.227C71.8403 477.823 72.0073 477.419 72.045 477.014C72.0828 476.61 71.9929 476.231 71.7752 475.879C71.561 475.556 71.2831 475.341 70.9416 475.235C70.5965 475.122 70.1678 475.111 69.6553 475.201C69.1449 475.282 68.5326 475.448 67.8185 475.698L65.7701 476.414C64.0768 477.014 62.5616 477.202 61.2244 476.979C59.8837 476.751 58.7967 475.979 57.9636 474.665C57.2742 473.6 56.9575 472.482 57.0134 471.313C57.0694 470.143 57.4575 469.011 58.1779 467.915C58.8983 466.82 59.9039 465.86 61.1948 465.034C62.5134 464.19 63.8032 463.686 65.0643 463.522C66.3273 463.348 67.4885 463.497 68.5478 463.969C69.6071 464.441 70.486 465.211 71.1846 466.278L67.2455 468.798Z" fill="white"/>
</g>
</g>
</g>
<g clip-path="url(#clip7_3_222)">
<path d="M169.894 342.777L140.703 358.785C138.016 360.259 137.032 363.631 138.506 366.318L154.514 395.509C155.988 398.196 159.36 399.18 162.047 397.706L191.238 381.698C193.925 380.224 194.909 376.852 193.435 374.165L177.427 344.974C175.953 342.287 172.58 341.303 169.894 342.777Z" fill="url(#paint23_linear_3_222)"/>
<path d="M158.856 357.268L158.856 357.268C151.69 361.197 149.067 370.191 152.997 377.356L152.997 377.356C156.926 384.522 165.92 387.145 173.085 383.215L173.085 383.215C180.25 379.286 182.874 370.292 178.944 363.127L178.944 363.127C175.015 355.962 166.021 353.338 158.856 357.268Z" fill="url(#paint24_linear_3_222)" fill-opacity="0.5"/>
<path d="M178.764 363.226C174.889 356.16 166.02 353.573 158.954 357.448C151.889 361.323 149.302 370.192 153.177 377.258C157.052 384.323 165.921 386.91 172.986 383.035C180.052 379.16 182.639 370.291 178.764 363.226Z" stroke="white" stroke-opacity="0.1" stroke-width="0.411014"/>
<path d="M166.532 373.16L165.829 375.569C165.681 376.077 165.16 376.363 164.648 376.228C164.505 376.186 164.367 376.152 164.223 376.111C162.878 375.711 161.593 375.223 160.369 374.648C159.154 374.067 158.073 373.413 157.149 372.684C156.228 371.942 155.523 371.136 155.044 370.262C154.73 369.69 154.531 369.088 154.456 368.473C154.377 367.849 154.438 367.203 154.653 366.538C154.901 365.713 155.347 365.13 155.969 364.789C156.204 364.659 156.467 364.581 156.733 364.566C157.007 364.547 157.283 364.593 157.555 364.728L161.013 366.408C161.28 366.535 161.495 366.669 161.673 366.812C161.845 366.947 161.984 367.101 162.072 367.261C162.182 367.463 162.234 367.697 162.222 367.955C162.219 368.208 162.17 368.497 162.079 368.81L161.804 369.825C161.762 369.968 161.78 370.1 161.854 370.235C161.891 370.302 161.932 370.356 161.985 370.414C162.047 370.468 162.1 370.504 162.145 370.546C162.448 370.74 162.907 370.959 163.517 371.193C164.135 371.423 164.783 371.647 165.465 371.853C165.595 371.891 165.734 371.924 165.864 371.962C166.38 372.106 166.684 372.639 166.532 373.16Z" fill="white"/>
<path d="M177.273 370.967C177.402 371.202 177.494 371.469 177.539 371.75C177.55 371.832 177.562 371.913 177.565 371.999C177.588 372.38 177.56 372.767 177.464 373.17C177.301 373.85 177.027 374.427 176.629 374.918C176.621 374.923 176.617 374.936 176.609 374.941C176.223 375.414 175.745 375.819 175.165 376.137C174.307 376.608 173.28 376.908 172.087 377.027C170.894 377.145 169.622 377.12 168.281 376.948C167.819 376.884 167.358 376.82 166.904 376.73L168.145 372.472C168.478 372.52 168.762 372.539 168.989 372.535C169.04 372.528 169.104 372.526 169.177 372.519C169.258 372.507 169.33 372.479 169.406 372.437C169.549 372.359 169.63 372.248 169.672 372.105L169.965 371.124C170.06 370.799 170.175 370.528 170.313 370.321C170.441 370.097 170.603 369.932 170.813 369.817C170.973 369.73 171.159 369.671 171.386 369.645C171.612 369.619 171.866 369.623 172.154 369.65L176.021 370.1C176.323 370.131 176.571 370.225 176.779 370.385C176.978 370.549 177.144 370.731 177.273 370.967Z" fill="white"/>
<path d="M166.824 354.238C166.977 353.831 167.453 353.57 167.883 353.657L168.861 353.864C169.047 353.904 169.331 353.864 169.499 353.771L170.214 353.379C170.659 353.135 171.226 353.3 171.47 353.746L171.862 354.461C171.952 354.625 172.172 354.816 172.35 354.882L173.286 355.233C173.694 355.387 173.954 355.862 173.867 356.292L173.66 357.27C173.62 357.456 173.661 357.74 173.753 357.908L174.145 358.623C174.389 359.069 174.224 359.635 173.778 359.879L173.064 360.271C172.9 360.361 172.708 360.581 172.642 360.76L172.291 361.696C172.138 362.103 171.662 362.363 171.232 362.277L170.254 362.069C170.068 362.029 169.784 362.07 169.616 362.162L168.889 362.561C168.443 362.805 167.877 362.64 167.632 362.195L167.238 361.476C167.148 361.312 166.931 361.125 166.756 361.056L165.822 360.699C165.419 360.542 165.161 360.072 165.246 359.648L165.447 358.668C165.483 358.484 165.442 358.2 165.352 358.036L164.955 357.313C164.711 356.868 164.876 356.301 165.322 356.057L166.049 355.658C166.213 355.568 166.404 355.348 166.47 355.17L166.824 354.238Z" fill="#17E886"/>
<path d="M168.029 358.8L169.6 359.261L170.515 356.113" stroke="white" stroke-width="0.61652" stroke-linecap="round" stroke-linejoin="round"/>
</g>
<g clip-path="url(#clip8_3_222)">
<path d="M541.882 434.297L500.477 415.126C496.666 413.361 492.145 415.02 490.381 418.831L471.209 460.236C469.444 464.048 471.103 468.568 474.915 470.332L516.32 489.504C520.131 491.269 524.651 489.61 526.416 485.798L545.587 444.393C547.352 440.582 545.693 436.062 541.882 434.297Z" fill="black"/>
<path d="M507.656 449.092C509.175 449.935 509.846 451.764 509.233 453.389L508.376 455.662C508.233 456.043 508.773 456.293 508.97 455.937L510.149 453.813C510.459 453.255 510.901 452.812 511.418 452.504C511.884 452.227 512.118 452.088 512.327 452.277C512.537 452.466 512.406 452.749 512.143 453.316L507.6 463.129C507.086 464.239 506.828 464.794 506.444 465.148C505.932 465.62 505.253 465.869 504.558 465.841C503.81 465.81 503.436 465.795 503.326 465.806C502.707 465.871 502.541 465.972 502.201 466.493C502.14 466.586 502.083 466.71 501.969 466.957L500.882 469.303C500.781 469.522 500.52 469.618 500.301 469.516C500.082 469.415 499.987 469.155 500.088 468.936L501.175 466.589C501.289 466.342 501.346 466.218 501.378 466.112C501.555 465.515 501.525 465.324 501.174 464.81C501.111 464.719 500.858 464.443 500.351 463.893C499.879 463.381 499.63 462.702 499.658 462.006C499.679 461.484 499.937 460.929 500.451 459.818L505.529 448.851C505.691 448.501 505.772 448.326 505.931 448.274C506.089 448.222 506.258 448.316 506.596 448.503L507.656 449.092ZM504.601 437.443C504.82 437.545 504.916 437.805 504.814 438.025L503.866 440.073C503.765 440.291 503.714 440.4 503.685 440.491C503.486 441.112 503.518 441.317 503.898 441.848C503.953 441.926 504.19 442.183 504.663 442.696C505.135 443.209 505.384 443.887 505.355 444.583C505.334 445.105 505.077 445.66 504.563 446.771L501.689 452.977C501.175 454.087 500.918 454.642 500.534 454.996C500.022 455.468 499.343 455.717 498.647 455.689C497.949 455.66 497.6 455.646 497.505 455.654C496.855 455.708 496.678 455.816 496.333 456.37C496.283 456.45 496.232 456.559 496.131 456.777L495.182 458.826C495.081 459.045 494.821 459.141 494.601 459.04C494.382 458.938 494.287 458.678 494.388 458.459L495.291 456.509C495.419 456.233 495.483 456.095 495.516 455.973C495.673 455.402 495.645 455.223 495.321 454.727C495.251 454.621 494.981 454.328 494.44 453.741C493.968 453.229 493.719 452.55 493.748 451.854C493.769 451.332 494.026 450.777 494.54 449.666C494.55 449.645 494.578 449.642 494.593 449.66C495.182 450.39 495.395 451.381 495.114 452.316C495.062 452.49 495.297 452.599 495.396 452.447C496.098 451.365 497.429 450.876 498.664 451.247C498.838 451.299 498.947 451.064 498.795 450.965C497.713 450.263 497.224 448.932 497.595 447.697C497.647 447.523 497.412 447.414 497.314 447.566C497.003 448.045 496.568 448.408 496.073 448.631C495.648 448.822 495.436 448.918 495.249 448.729C495.062 448.54 495.177 448.29 495.409 447.791L497.414 443.46C497.928 442.35 498.185 441.795 498.569 441.441C499.081 440.969 499.76 440.72 500.456 440.748C501.254 440.781 501.652 440.798 501.778 440.782C502.366 440.709 502.52 440.614 502.854 440.125C502.925 440.02 502.989 439.882 503.117 439.606L504.02 437.657C504.121 437.437 504.382 437.342 504.601 437.443ZM522.027 445.512C522.246 445.614 522.342 445.874 522.24 446.093L521.315 448.092C521.2 448.339 521.143 448.463 521.111 448.569C520.934 449.166 520.964 449.357 521.315 449.871C521.378 449.962 521.631 450.238 522.138 450.788C522.61 451.3 522.859 451.979 522.831 452.675C522.809 453.197 522.553 453.752 522.039 454.862C522.029 454.883 522.001 454.888 521.986 454.87C521.423 454.247 521.208 453.362 521.458 452.528C521.502 452.382 521.304 452.29 521.22 452.418C520.629 453.33 519.507 453.742 518.466 453.429C518.319 453.385 518.228 453.583 518.356 453.667C519.268 454.258 519.68 455.381 519.367 456.421C519.323 456.568 519.521 456.66 519.605 456.531C519.872 456.119 520.247 455.81 520.675 455.622C521.065 455.452 521.26 455.366 521.445 455.555C521.63 455.744 521.522 455.979 521.304 456.449L519.165 461.068C518.651 462.179 518.394 462.734 518.009 463.087C517.497 463.559 516.818 463.809 516.123 463.78C515.375 463.75 515.001 463.734 514.89 463.746C514.271 463.81 514.106 463.911 513.766 464.432C513.706 464.525 513.648 464.649 513.534 464.896L512.608 466.895C512.507 467.114 512.246 467.21 512.027 467.108C511.808 467.007 511.713 466.746 511.814 466.527L512.74 464.528C512.854 464.281 512.911 464.157 512.943 464.051C513.12 463.454 513.091 463.263 512.739 462.749C512.676 462.658 512.423 462.382 511.916 461.832C511.444 461.32 511.195 460.641 511.223 459.945C511.245 459.423 511.502 458.868 512.016 457.758L514.255 452.922C514.397 452.616 514.468 452.463 514.607 452.406C514.746 452.349 514.904 452.408 515.22 452.527L516.719 453.093C517.1 453.236 517.35 452.696 516.994 452.499L515.594 451.722C515.296 451.556 515.148 451.474 515.102 451.329C515.056 451.183 515.129 451.033 515.275 450.731C515.56 450.142 515.77 449.786 516.044 449.533C516.557 449.061 517.236 448.812 517.931 448.84C518.679 448.871 519.053 448.886 519.163 448.875C519.782 448.81 519.948 448.709 520.288 448.188C520.349 448.095 520.406 447.972 520.52 447.724L521.446 445.725C521.547 445.506 521.807 445.411 522.027 445.512ZM516.277 435.012C516.497 435.114 516.592 435.374 516.491 435.593L515.404 437.94C515.29 438.187 515.233 438.311 515.201 438.417C515.024 439.014 515.053 439.205 515.405 439.719C515.467 439.81 515.721 440.086 516.228 440.636C516.7 441.148 516.949 441.827 516.921 442.523C516.899 443.044 516.642 443.6 516.128 444.71L514.204 448.865C513.942 449.432 513.811 449.715 513.531 449.678C513.251 449.64 513.206 449.372 513.116 448.837C513.016 448.244 513.068 447.62 513.293 447.023L514.15 444.75C514.294 444.369 513.754 444.119 513.556 444.475L512.377 446.599C511.535 448.118 509.706 448.789 508.08 448.176L506.945 447.748C506.584 447.612 506.404 447.544 506.341 447.389C506.277 447.235 506.358 447.06 506.521 446.71L508.979 441.4C509.493 440.29 509.75 439.734 510.134 439.38C510.647 438.908 511.325 438.66 512.021 438.688C512.769 438.719 513.143 438.734 513.253 438.722C513.872 438.658 514.038 438.557 514.378 438.036C514.438 437.943 514.496 437.819 514.61 437.572L515.697 435.226C515.798 435.006 516.058 434.911 516.277 435.012Z" fill="white"/>
</g>
<defs>
<linearGradient id="paint0_linear_3_222" x1="274.49" y1="238.924" x2="274.49" y2="382.097" gradientUnits="userSpaceOnUse">
<stop stop-color="#F4B894"/>
<stop offset="1" stop-color="#FFA36A" stop-opacity="0"/>
</linearGradient>
<linearGradient id="paint1_linear_3_222" x1="274.49" y1="191.504" x2="274.49" y2="429.517" gradientUnits="userSpaceOnUse">
<stop stop-color="#F4B894"/>
<stop offset="1" stop-color="#FFA36A" stop-opacity="0"/>
</linearGradient>
<linearGradient id="paint2_linear_3_222" x1="274.49" y1="126.758" x2="274.49" y2="494.264" gradientUnits="userSpaceOnUse">
<stop stop-color="#F4B894"/>
<stop offset="1" stop-color="#FFA36A" stop-opacity="0"/>
</linearGradient>
<linearGradient id="paint3_linear_3_222" x1="274.489" y1="36.0211" x2="274.489" y2="585" gradientUnits="userSpaceOnUse">
<stop stop-color="#F4B894"/>
<stop offset="1" stop-color="#FFA36A" stop-opacity="0"/>
</linearGradient>
<linearGradient id="paint4_linear_3_222" x1="105.865" y1="31.5577" x2="213.577" y2="100.477" gradientUnits="userSpaceOnUse">
<stop stop-color="#3D3D3D"/>
<stop offset="0.973958" stop-color="#141414"/>
</linearGradient>
<linearGradient id="paint5_linear_3_222" x1="124.721" y1="250.191" x2="111.828" y2="221.264" gradientUnits="userSpaceOnUse">
<stop stop-color="#9F44EE"/>
<stop offset="1" stop-color="#BA76F9"/>
</linearGradient>
<linearGradient id="paint6_linear_3_222" x1="409.585" y1="273.738" x2="480.552" y2="233.679" gradientUnits="userSpaceOnUse">
<stop stop-color="#EEEDF1"/>
<stop offset="0.5" stop-color="white"/>
<stop offset="1" stop-color="#EEEDF1"/>
</linearGradient>
<linearGradient id="paint7_linear_3_222" x1="420.534" y1="204.217" x2="416.564" y2="257.086" gradientUnits="userSpaceOnUse">
<stop offset="0.182872" stop-opacity="0"/>
<stop offset="1"/>
</linearGradient>
<radialGradient id="paint8_radial_3_222" cx="0" cy="0" r="1" gradientUnits="userSpaceOnUse" gradientTransform="translate(428.407 212.181) rotate(40.051) scale(41.8562 41.8562)">
<stop stop-color="#FFE414"/>
<stop offset="1" stop-color="#FFE414" stop-opacity="0"/>
</radialGradient>
<linearGradient id="paint9_linear_3_222" x1="420.534" y1="204.217" x2="416.564" y2="257.086" gradientUnits="userSpaceOnUse">
<stop offset="0.182872" stop-opacity="0"/>
<stop offset="1"/>
</linearGradient>
<radialGradient id="paint10_radial_3_222" cx="0" cy="0" r="1" gradientUnits="userSpaceOnUse" gradientTransform="translate(428.407 212.181) rotate(40.051) scale(41.8562)">
<stop stop-color="#FFE414"/>
<stop offset="1" stop-color="#FFE414" stop-opacity="0"/>
</radialGradient>
<linearGradient id="paint11_linear_3_222" x1="420.534" y1="204.217" x2="416.564" y2="257.086" gradientUnits="userSpaceOnUse">
<stop offset="0.182872" stop-opacity="0"/>
<stop offset="1"/>
</linearGradient>
<radialGradient id="paint12_radial_3_222" cx="0" cy="0" r="1" gradientUnits="userSpaceOnUse" gradientTransform="translate(428.407 212.181) rotate(40.051) scale(41.8562 41.8562)">
<stop stop-color="#FFE414"/>
<stop offset="1" stop-color="#FFE414" stop-opacity="0"/>
</radialGradient>
<linearGradient id="paint13_linear_3_222" x1="420.534" y1="204.217" x2="416.564" y2="257.086" gradientUnits="userSpaceOnUse">
<stop offset="0.182872" stop-opacity="0"/>
<stop offset="1"/>
</linearGradient>
<radialGradient id="paint14_radial_3_222" cx="0" cy="0" r="1" gradientUnits="userSpaceOnUse" gradientTransform="translate(428.407 212.181) rotate(40.051) scale(41.8562)">
<stop stop-color="#FFE414"/>
<stop offset="1" stop-color="#FFE414" stop-opacity="0"/>
</radialGradient>
<linearGradient id="paint15_linear_3_222" x1="420.534" y1="204.217" x2="416.564" y2="257.086" gradientUnits="userSpaceOnUse">
<stop offset="0.182872" stop-opacity="0"/>
<stop offset="1"/>
</linearGradient>
<radialGradient id="paint16_radial_3_222" cx="0" cy="0" r="1" gradientUnits="userSpaceOnUse" gradientTransform="translate(428.407 212.181) rotate(40.051) scale(41.8562)">
<stop stop-color="#FFE414"/>
<stop offset="1" stop-color="#FFE414" stop-opacity="0"/>
</radialGradient>
<linearGradient id="paint17_linear_3_222" x1="420.534" y1="204.217" x2="416.564" y2="257.086" gradientUnits="userSpaceOnUse">
<stop offset="0.182872" stop-opacity="0"/>
<stop offset="1"/>
</linearGradient>
<radialGradient id="paint18_radial_3_222" cx="0" cy="0" r="1" gradientUnits="userSpaceOnUse" gradientTransform="translate(428.407 212.181) rotate(40.051) scale(41.8562 41.8562)">
<stop stop-color="#FFE414"/>
<stop offset="1" stop-color="#FFE414" stop-opacity="0"/>
</radialGradient>
<linearGradient id="paint19_linear_3_222" x1="420.534" y1="204.217" x2="416.564" y2="257.086" gradientUnits="userSpaceOnUse">
<stop offset="0.182872" stop-opacity="0"/>
<stop offset="1"/>
</linearGradient>
<radialGradient id="paint20_radial_3_222" cx="0" cy="0" r="1" gradientUnits="userSpaceOnUse" gradientTransform="translate(428.407 212.181) rotate(40.051) scale(41.8562 41.8562)">
<stop stop-color="#FFE414"/>
<stop offset="1" stop-color="#FFE414" stop-opacity="0"/>
</radialGradient>
<linearGradient id="paint21_linear_3_222" x1="420.534" y1="204.217" x2="416.564" y2="257.086" gradientUnits="userSpaceOnUse">
<stop offset="0.182872" stop-opacity="0"/>
<stop offset="1"/>
</linearGradient>
<radialGradient id="paint22_radial_3_222" cx="0" cy="0" r="1" gradientUnits="userSpaceOnUse" gradientTransform="translate(428.407 212.181) rotate(40.051) scale(41.8562 41.8562)">
<stop stop-color="#FFE414"/>
<stop offset="1" stop-color="#FFE414" stop-opacity="0"/>
</radialGradient>
<linearGradient id="paint23_linear_3_222" x1="135.838" y1="361.453" x2="196.103" y2="379.03" gradientUnits="userSpaceOnUse">
<stop stop-color="#35A2FD"/>
<stop offset="1" stop-color="#0265B5"/>
</linearGradient>
<linearGradient id="paint24_linear_3_222" x1="152.254" y1="364.746" x2="171.717" y2="374.648" gradientUnits="userSpaceOnUse">
<stop stop-color="white" stop-opacity="0.5"/>
<stop offset="1" stop-color="white" stop-opacity="0.1"/>
</linearGradient>
<clipPath id="clip0_3_222">
<rect x="116.726" y="35.8215" width="84.3506" height="84.3506" rx="25.3052" transform="rotate(-25.13 116.726 35.8215)" fill="white"/>
</clipPath>
<clipPath id="clip1_3_222">
<rect x="253.971" y="170.986" width="41.0366" height="41.0366" rx="12.311" fill="white"/>
</clipPath>
<clipPath id="clip2_3_222">
<rect x="85.38" y="206.13" width="41.7678" height="41.7678" rx="12.5303" transform="rotate(3.23928 85.38 206.13)" fill="white"/>
</clipPath>
<clipPath id="clip3_3_222">
<rect x="381.937" y="206.226" width="72.954" height="72.954" rx="21.8862" transform="rotate(-22.2711 381.937 206.226)" fill="white"/>
</clipPath>
<clipPath id="clip4_3_222">
<rect x="346.076" y="324.189" width="72.954" height="72.954" rx="21.8862" fill="white"/>
</clipPath>
<clipPath id="clip5_3_222">
<rect x="234.821" y="449.123" width="79.3375" height="79.3375" rx="23.8012" fill="white"/>
</clipPath>
<clipPath id="clip6_3_222">
<rect x="23.2022" y="470.736" width="52.8917" height="52.8917" rx="15.8675" transform="rotate(-32.6094 23.2022 470.736)" fill="white"/>
</clipPath>
<clipPath id="clip7_3_222">
<rect x="135.838" y="361.453" width="44.3895" height="44.3895" rx="13.3169" transform="rotate(-28.7406 135.838 361.453)" fill="white"/>
</clipPath>
<clipPath id="clip8_3_222">
<rect x="493.576" y="411.93" width="60.8376" height="60.8376" rx="18.2513" transform="rotate(24.8453 493.576 411.93)" fill="white"/>
</clipPath>
</defs>
</svg>
