<svg preserveAspectRatio="xMidYMid meet" width="100%" height="100%" overflow="hidden" style="display: block;" viewBox="0 0 95.4988 95.4988" fill="none" xmlns="http://www.w3.org/2000/svg">
<g id="Group">
<path id="Vector" d="M81.174 0H21.6709C16.1937 0 11.7537 4.44008 11.7537 9.91719V69.4203C11.7537 74.8974 16.1937 79.3375 21.6709 79.3375H81.174C86.6511 79.3375 91.0912 74.8974 91.0912 69.4203V9.91719C91.0912 4.44008 86.6511 0 81.174 0Z" fill="#1570EF"/>
<path id="Vector_2" opacity="0.1" d="M51.4224 125.618C75.7651 125.618 95.4988 105.884 95.4988 81.5416C95.4988 57.1989 75.7651 37.4652 51.4224 37.4652C27.0797 37.4652 7.34602 57.1989 7.34602 81.5416C7.34602 105.884 27.0797 125.618 51.4224 125.618Z" fill="white"/>
<path id="Vector_3" opacity="0.1" d="M73.4609 20.5689C73.4609 14.9319 70.2824 11.7536 64.6455 11.7536C70.2824 11.7536 73.4609 8.57544 73.4609 2.93835C73.4609 8.57544 76.6389 11.7536 82.2758 11.7536C76.6389 11.7536 73.4609 14.9319 73.4609 20.5689Z" fill="white"/>
<path id="Vector_4" opacity="0.1" d="M11.7537 41.138C11.7537 33.6219 7.5161 29.3843 0 29.3843C7.5161 29.3843 11.7537 25.1467 11.7537 17.6306C11.7537 25.1467 15.9913 29.3843 23.5074 29.3843C15.9913 29.3843 11.7537 33.6219 11.7537 41.138Z" fill="white"/>
<path id="Vector_5" d="M27.9151 27.9149V16.1612H39.6688" stroke="white" stroke-width="2.57112" stroke-linecap="round"/>
<path id="Vector_6" d="M74.9302 27.9149V16.1612H63.1763" stroke="white" stroke-width="2.57112" stroke-linecap="round"/>
<path id="Vector_7" d="M74.9302 51.4226V63.1759H63.1763" stroke="white" stroke-width="2.57112" stroke-linecap="round"/>
<path id="Vector_8" d="M27.9151 51.4226V63.1759H39.6688" stroke="white" stroke-width="2.57112" stroke-linecap="round"/>
<path id="Vector_9" fill-rule="evenodd" clip-rule="evenodd" d="M41.1343 35.3579L38.4752 31.6362L36.0148 35.3579H33.0573L37.1119 29.7404L33.0778 24.2419H36.178L38.7546 27.8548L40.8895 24.2419H43.847L40.0926 29.7244L44.1734 35.3579H41.1343ZM50.8287 33.8647H67.7957H69.081V31.2936H67.7957H50.3937C49.4586 31.2936 48.6456 31.9354 48.4287 32.8451L43.9247 51.729L38.3292 42.393L37.6683 41.2903L35.463 42.6121L36.1238 43.7147L42.4142 54.2103C43.3451 55.7633 45.6919 55.4018 46.1121 53.64L50.8287 33.8647ZM55.9197 53.8979C56.8374 54.5063 57.859 54.8108 58.9844 54.8108C59.6424 54.8108 60.2571 54.7091 60.8284 54.5063C61.417 54.3035 61.9451 54.0417 62.4127 53.7204C62.8579 53.41 63.2303 53.0639 63.5293 52.682V54.5574H66.7762V41.1947H63.5556V43.0852C63.2953 42.6947 62.975 42.3435 62.5946 42.0314C62.1618 41.6764 61.6595 41.406 61.0881 41.2201C60.5167 41.0172 59.8848 40.9157 59.1922 40.9157C57.9975 40.9157 56.924 41.2116 55.9716 41.8032C55.0194 42.3948 54.2662 43.2147 53.7121 44.2627C53.158 45.3108 52.881 46.5025 52.881 47.8379C52.881 49.1733 53.158 50.3649 53.7121 51.4131C54.2662 52.4609 55.002 53.2895 55.9197 53.8979ZM61.8414 51.5143C61.27 51.8693 60.612 52.0468 59.8675 52.0468C59.1229 52.0468 58.465 51.8693 57.8936 51.5143C57.3395 51.1598 56.9066 50.6693 56.595 50.0441C56.2833 49.4015 56.1275 48.6662 56.1275 47.8379C56.1275 47.0265 56.2833 46.3081 56.595 45.6826C56.9066 45.0572 57.3395 44.567 57.8936 44.212C58.465 43.857 59.1229 43.6796 59.8675 43.6796C60.612 43.6796 61.27 43.857 61.8414 44.212C62.4127 44.567 62.8545 45.0572 63.1659 45.6826C63.4951 46.3081 63.6593 47.0265 63.6593 47.8379C63.6593 48.6662 63.4951 49.4015 63.1659 50.0441C62.8545 50.6693 62.4127 51.1598 61.8414 51.5143Z" fill="white"/>
</g>
</svg>
