<svg preserveAspectRatio="xMidYMid meet" width="100%" height="100%" overflow="hidden" style="display: block;" viewBox="0 0 72.954 72.954" fill="none" xmlns="http://www.w3.org/2000/svg">
<g id="plant identifier 1">
<g clip-path="url(#clip0_5_44)">
<path id="Vector" d="M63.8348 0H9.11925C4.08283 0 0 4.08283 0 9.11925V63.8348C0 68.8712 4.08283 72.954 9.11925 72.954H63.8348C68.8712 72.954 72.954 68.8712 72.954 63.8348V9.11925C72.954 4.08283 68.8712 0 63.8348 0Z" fill="url(#paint0_linear_5_44)"/>
<path id="Vector_2" d="M16.7211 47.5441C16.7211 49.8226 16.7242 51.2935 16.8157 52.4129C16.9034 53.4867 17.0522 53.8848 17.1518 54.0799C17.5306 54.8236 18.1352 55.4282 18.8788 55.8071C19.0742 55.9065 19.4723 56.0556 20.5457 56.1431C21.6654 56.2348 23.1365 56.238 25.4148 56.238C25.9386 56.238 26.3632 56.6625 26.3632 57.1864V59.241C26.3632 59.7649 25.9386 60.1894 25.4147 60.1894H24.6104C20.7789 60.1862 18.7384 60.1374 17.1644 59.3677L17.0848 59.328C15.5977 58.5702 14.3885 57.361 13.6308 55.8741C12.8232 54.2892 12.7727 52.2451 12.7696 48.3485L12.7695 47.5441C12.7694 47.0202 13.1941 46.5957 13.7179 46.5957H15.7727C16.2965 46.5957 16.7211 47.0202 16.7211 47.5441Z" fill="#06A851"/>
<path id="Vector_3" d="M16.7211 47.5441C16.7211 49.8226 16.7242 51.2935 16.8157 52.4129C16.9034 53.4867 17.0522 53.8848 17.1518 54.0799C17.5306 54.8236 18.1352 55.4282 18.8788 55.8071C19.0742 55.9065 19.4723 56.0556 20.5457 56.1431C21.6654 56.2348 23.1365 56.238 25.4148 56.238C25.9386 56.238 26.3632 56.6625 26.3632 57.1864V59.241C26.3632 59.7649 25.9386 60.1894 25.4147 60.1894H24.6104C20.7789 60.1862 18.7384 60.1374 17.1644 59.3677L17.0848 59.328C15.5977 58.5702 14.3885 57.361 13.6308 55.8741C12.8232 54.2892 12.7727 52.2451 12.7696 48.3485L12.7695 47.5441C12.7694 47.0202 13.1941 46.5957 13.7179 46.5957H15.7727C16.2965 46.5957 16.7211 47.0202 16.7211 47.5441Z" fill="url(#paint1_linear_5_44)" fill-opacity="0.3"/>
<path id="Vector_4" d="M16.7211 47.5441C16.7211 49.8226 16.7242 51.2935 16.8157 52.4129C16.9034 53.4867 17.0522 53.8848 17.1518 54.0799C17.5306 54.8236 18.1352 55.4282 18.8788 55.8071C19.0742 55.9065 19.4723 56.0556 20.5457 56.1431C21.6654 56.2348 23.1365 56.238 25.4148 56.238C25.9386 56.238 26.3632 56.6625 26.3632 57.1864V59.241C26.3632 59.7649 25.9386 60.1894 25.4147 60.1894H24.6104C20.7789 60.1862 18.7384 60.1374 17.1644 59.3677L17.0848 59.328C15.5977 58.5702 14.3885 57.361 13.6308 55.8741C12.8232 54.2892 12.7727 52.2451 12.7696 48.3485L12.7695 47.5441C12.7694 47.0202 13.1941 46.5957 13.7179 46.5957H15.7727C16.2965 46.5957 16.7211 47.0202 16.7211 47.5441Z" fill="url(#paint2_radial_5_44)" fill-opacity="0.3"/>
<path id="Vector_5" d="M60.1893 47.5441C60.1893 51.9702 60.1893 54.1834 59.328 55.8741L59.256 56.0127C58.4945 57.4363 57.315 58.5939 55.8741 59.328L55.7943 59.3677C54.2203 60.1374 52.1799 60.1862 48.3485 60.1894H47.5441C47.0202 60.1894 46.5957 59.7649 46.5957 59.241V57.1864C46.5957 56.6625 47.0202 56.238 47.5441 56.238C49.8226 56.238 51.2935 56.2348 52.4134 56.1431C53.4867 56.0556 53.8847 55.9065 54.0804 55.8071C54.8236 55.4282 55.4282 54.8236 55.8071 54.0799C55.9069 53.8848 56.0556 53.4867 56.1431 52.4129C56.2348 51.2935 56.238 49.8226 56.238 47.5441C56.238 47.0202 56.6625 46.5957 57.1864 46.5957H59.2409C59.7648 46.5957 60.1893 47.0202 60.1893 47.5441Z" fill="#06A851"/>
<path id="Vector_6" d="M60.1893 47.5441C60.1893 51.9702 60.1893 54.1834 59.328 55.8741L59.256 56.0127C58.4945 57.4363 57.315 58.5939 55.8741 59.328L55.7943 59.3677C54.2203 60.1374 52.1799 60.1862 48.3485 60.1894H47.5441C47.0202 60.1894 46.5957 59.7649 46.5957 59.241V57.1864C46.5957 56.6625 47.0202 56.238 47.5441 56.238C49.8226 56.238 51.2935 56.2348 52.4134 56.1431C53.4867 56.0556 53.8847 55.9065 54.0804 55.8071C54.8236 55.4282 55.4282 54.8236 55.8071 54.0799C55.9069 53.8848 56.0556 53.4867 56.1431 52.4129C56.2348 51.2935 56.238 49.8226 56.238 47.5441C56.238 47.0202 56.6625 46.5957 57.1864 46.5957H59.2409C59.7648 46.5957 60.1893 47.0202 60.1893 47.5441Z" fill="url(#paint3_linear_5_44)" fill-opacity="0.3"/>
<path id="Vector_7" d="M60.1893 47.5441C60.1893 51.9702 60.1893 54.1834 59.328 55.8741L59.256 56.0127C58.4945 57.4363 57.315 58.5939 55.8741 59.328L55.7943 59.3677C54.2203 60.1374 52.1799 60.1862 48.3485 60.1894H47.5441C47.0202 60.1894 46.5957 59.7649 46.5957 59.241V57.1864C46.5957 56.6625 47.0202 56.238 47.5441 56.238C49.8226 56.238 51.2935 56.2348 52.4134 56.1431C53.4867 56.0556 53.8847 55.9065 54.0804 55.8071C54.8236 55.4282 55.4282 54.8236 55.8071 54.0799C55.9069 53.8848 56.0556 53.4867 56.1431 52.4129C56.2348 51.2935 56.238 49.8226 56.238 47.5441C56.238 47.0202 56.6625 46.5957 57.1864 46.5957H59.2409C59.7648 46.5957 60.1893 47.0202 60.1893 47.5441Z" fill="url(#paint4_radial_5_44)" fill-opacity="0.3"/>
<path id="Vector_8" d="M24.7408 47.5441C25.3436 47.5441 25.7924 48.0991 25.698 48.6945C25.5602 49.5622 25.4719 50.4409 25.4349 51.3268C25.4128 51.8544 24.9793 52.2912 24.4616 52.1868C24.1679 52.1275 23.8797 52.0408 23.6001 51.925C23.0248 51.687 22.502 51.3373 22.0617 50.8973C21.6214 50.4568 21.272 49.9343 21.0337 49.3589C20.9167 49.0766 20.8277 48.7844 20.7673 48.4862C20.6632 47.9727 21.0974 47.5441 21.6212 47.5441H24.7408Z" fill="#06A851"/>
<path id="Vector_9" d="M24.7408 47.5441C25.3436 47.5441 25.7924 48.0991 25.698 48.6945C25.5602 49.5622 25.4719 50.4409 25.4349 51.3268C25.4128 51.8544 24.9793 52.2912 24.4616 52.1868C24.1679 52.1275 23.8797 52.0408 23.6001 51.925C23.0248 51.687 22.502 51.3373 22.0617 50.8973C21.6214 50.4568 21.272 49.9343 21.0337 49.3589C20.9167 49.0766 20.8277 48.7844 20.7673 48.4862C20.6632 47.9727 21.0974 47.5441 21.6212 47.5441H24.7408Z" fill="url(#paint5_linear_5_44)" fill-opacity="0.3"/>
<path id="Vector_10" d="M24.7408 47.5441C25.3436 47.5441 25.7924 48.0991 25.698 48.6945C25.5602 49.5622 25.4719 50.4409 25.4349 51.3268C25.4128 51.8544 24.9793 52.2912 24.4616 52.1868C24.1679 52.1275 23.8797 52.0408 23.6001 51.925C23.0248 51.687 22.502 51.3373 22.0617 50.8973C21.6214 50.4568 21.272 49.9343 21.0337 49.3589C20.9167 49.0766 20.8277 48.7844 20.7673 48.4862C20.6632 47.9727 21.0974 47.5441 21.6212 47.5441H24.7408Z" fill="url(#paint6_radial_5_44)" fill-opacity="0.3"/>
<path id="Vector_11" d="M52.2862 36.4794C52.2862 44.5769 46.1973 51.252 38.3482 52.1767C37.8075 52.2401 37.3472 51.8028 37.3749 51.2589C37.6281 46.3048 39.6915 42.3874 42.171 39.4156C43.7455 37.5284 45.8047 36.133 47.9267 34.8931L49.8117 33.7916C49.9621 33.7036 50.0132 33.5099 49.9252 33.3592C49.8372 33.2085 49.6434 33.1576 49.4925 33.2457L48.9294 33.5747C39.7594 38.3561 34.6697 43.5774 34.2895 51.3368C34.2639 51.8598 33.8419 52.2862 33.3181 52.2862H29.5245C29.0008 52.2862 28.5738 51.8612 28.5989 51.3382C28.8338 46.443 30.8818 41.7961 34.3632 38.3147C36.0053 36.6726 37.9011 35.3387 39.9656 34.3742L50.9338 29.2124C51.563 28.9164 52.2862 29.3754 52.2862 30.0705V36.4794Z" fill="#06A851"/>
<path id="Vector_12" d="M52.2862 36.4794C52.2862 44.5769 46.1973 51.252 38.3482 52.1767C37.8075 52.2401 37.3472 51.8028 37.3749 51.2589C37.6281 46.3048 39.6915 42.3874 42.171 39.4156C43.7455 37.5284 45.8047 36.133 47.9267 34.8931L49.8117 33.7916C49.9621 33.7036 50.0132 33.5099 49.9252 33.3592C49.8372 33.2085 49.6434 33.1576 49.4925 33.2457L48.9294 33.5747C39.7594 38.3561 34.6697 43.5774 34.2895 51.3368C34.2639 51.8598 33.8419 52.2862 33.3181 52.2862H29.5245C29.0008 52.2862 28.5738 51.8612 28.5989 51.3382C28.8338 46.443 30.8818 41.7961 34.3632 38.3147C36.0053 36.6726 37.9011 35.3387 39.9656 34.3742L50.9338 29.2124C51.563 28.9164 52.2862 29.3754 52.2862 30.0705V36.4794Z" fill="url(#paint7_linear_5_44)" fill-opacity="0.3"/>
<path id="Vector_13" d="M52.2862 36.4794C52.2862 44.5769 46.1973 51.252 38.3482 52.1767C37.8075 52.2401 37.3472 51.8028 37.3749 51.2589C37.6281 46.3048 39.6915 42.3874 42.171 39.4156C43.7455 37.5284 45.8047 36.133 47.9267 34.8931L49.8117 33.7916C49.9621 33.7036 50.0132 33.5099 49.9252 33.3592C49.8372 33.2085 49.6434 33.1576 49.4925 33.2457L48.9294 33.5747C39.7594 38.3561 34.6697 43.5774 34.2895 51.3368C34.2639 51.8598 33.8419 52.2862 33.3181 52.2862H29.5245C29.0008 52.2862 28.5738 51.8612 28.5989 51.3382C28.8338 46.443 30.8818 41.7961 34.3632 38.3147C36.0053 36.6726 37.9011 35.3387 39.9656 34.3742L50.9338 29.2124C51.563 28.9164 52.2862 29.3754 52.2862 30.0705V36.4794Z" fill="url(#paint8_radial_5_44)" fill-opacity="0.3"/>
<path id="Vector_14" d="M44.3828 28.1996C44.3828 28.5669 44.1707 28.9012 43.8383 29.0577L38.6276 31.5099C36.2225 32.6334 34.0247 34.1826 32.1278 36.0794C30.3075 37.8998 28.8252 39.9949 27.7209 42.2672C27.4843 42.7541 26.897 42.974 26.4327 42.6958C25.6018 42.1977 24.8331 41.5986 24.145 40.9105C23.0441 39.8097 22.1709 38.5027 21.5752 37.0644C20.9794 35.6261 20.6728 34.0845 20.6728 32.5277V21.6211C20.6728 21.0973 21.1001 20.6647 21.6173 20.7475C23.5792 21.0617 25.2194 22.3386 26.0385 24.0785C26.2233 24.4711 26.2842 24.9072 26.2842 25.3411V26.047C26.2842 26.2216 26.4257 26.3631 26.6003 26.3631C26.7749 26.3631 26.9164 26.2216 26.9164 26.047V25.3416C26.9164 24.9079 26.9772 24.4719 27.1618 24.0795C28.1091 22.0663 30.1556 20.6727 32.5278 20.6727C34.8997 20.6727 36.946 22.0659 37.8935 24.0785C38.0784 24.4711 38.1392 24.9072 38.1392 25.3411V26.047C38.1392 26.2216 38.2807 26.3631 38.4553 26.3631C38.6299 26.3631 38.7714 26.2216 38.7714 26.047V25.3411C38.7714 24.9072 38.8323 24.4711 39.0171 24.0785C39.8361 22.3386 41.4764 21.0617 43.4383 20.7475C43.9555 20.6647 44.3828 21.0973 44.3828 21.6211V28.1996Z" fill="#06A851"/>
<path id="Vector_15" d="M44.3828 28.1996C44.3828 28.5669 44.1707 28.9012 43.8383 29.0577L38.6276 31.5099C36.2225 32.6334 34.0247 34.1826 32.1278 36.0794C30.3075 37.8998 28.8252 39.9949 27.7209 42.2672C27.4843 42.7541 26.897 42.974 26.4327 42.6958C25.6018 42.1977 24.8331 41.5986 24.145 40.9105C23.0441 39.8097 22.1709 38.5027 21.5752 37.0644C20.9794 35.6261 20.6728 34.0845 20.6728 32.5277V21.6211C20.6728 21.0973 21.1001 20.6647 21.6173 20.7475C23.5792 21.0617 25.2194 22.3386 26.0385 24.0785C26.2233 24.4711 26.2842 24.9072 26.2842 25.3411V26.047C26.2842 26.2216 26.4257 26.3631 26.6003 26.3631C26.7749 26.3631 26.9164 26.2216 26.9164 26.047V25.3416C26.9164 24.9079 26.9772 24.4719 27.1618 24.0795C28.1091 22.0663 30.1556 20.6727 32.5278 20.6727C34.8997 20.6727 36.946 22.0659 37.8935 24.0785C38.0784 24.4711 38.1392 24.9072 38.1392 25.3411V26.047C38.1392 26.2216 38.2807 26.3631 38.4553 26.3631C38.6299 26.3631 38.7714 26.2216 38.7714 26.047V25.3411C38.7714 24.9072 38.8323 24.4711 39.0171 24.0785C39.8361 22.3386 41.4764 21.0617 43.4383 20.7475C43.9555 20.6647 44.3828 21.0973 44.3828 21.6211V28.1996Z" fill="url(#paint9_linear_5_44)" fill-opacity="0.3"/>
<path id="Vector_16" d="M44.3828 28.1996C44.3828 28.5669 44.1707 28.9012 43.8383 29.0577L38.6276 31.5099C36.2225 32.6334 34.0247 34.1826 32.1278 36.0794C30.3075 37.8998 28.8252 39.9949 27.7209 42.2672C27.4843 42.7541 26.897 42.974 26.4327 42.6958C25.6018 42.1977 24.8331 41.5986 24.145 40.9105C23.0441 39.8097 22.1709 38.5027 21.5752 37.0644C20.9794 35.6261 20.6728 34.0845 20.6728 32.5277V21.6211C20.6728 21.0973 21.1001 20.6647 21.6173 20.7475C23.5792 21.0617 25.2194 22.3386 26.0385 24.0785C26.2233 24.4711 26.2842 24.9072 26.2842 25.3411V26.047C26.2842 26.2216 26.4257 26.3631 26.6003 26.3631C26.7749 26.3631 26.9164 26.2216 26.9164 26.047V25.3416C26.9164 24.9079 26.9772 24.4719 27.1618 24.0795C28.1091 22.0663 30.1556 20.6727 32.5278 20.6727C34.8997 20.6727 36.946 22.0659 37.8935 24.0785C38.0784 24.4711 38.1392 24.9072 38.1392 25.3411V26.047C38.1392 26.2216 38.2807 26.3631 38.4553 26.3631C38.6299 26.3631 38.7714 26.2216 38.7714 26.047V25.3411C38.7714 24.9072 38.8323 24.4711 39.0171 24.0785C39.8361 22.3386 41.4764 21.0617 43.4383 20.7475C43.9555 20.6647 44.3828 21.0973 44.3828 21.6211V28.1996Z" fill="url(#paint10_radial_5_44)" fill-opacity="0.3"/>
<path id="Vector_17" d="M26.3632 15.7726C26.3632 16.2964 25.9386 16.721 25.4148 16.721C23.1365 16.721 21.6654 16.7242 20.5457 16.8156C19.4723 16.9033 19.0742 17.0521 18.8788 17.1517C18.1352 17.5305 17.5306 18.1352 17.1518 18.8787C17.0522 19.0741 16.9034 19.4722 16.8157 20.5456C16.7242 21.6653 16.7211 23.1364 16.7211 25.4147C16.7211 25.9385 16.2965 26.3631 15.7727 26.3631H13.7178C13.194 26.3631 12.7694 25.9385 12.7694 25.4147C12.7694 21.0576 12.7694 18.845 13.5911 17.1643L13.6307 17.0847C14.3648 15.644 15.5225 14.4643 16.9461 13.7031L17.0848 13.6307C18.7754 12.7693 20.9886 12.7693 25.4148 12.7693C25.9386 12.7693 26.3632 13.1939 26.3632 13.7177V15.7726Z" fill="#06A851"/>
<path id="Vector_18" d="M26.3632 15.7726C26.3632 16.2964 25.9386 16.721 25.4148 16.721C23.1365 16.721 21.6654 16.7242 20.5457 16.8156C19.4723 16.9033 19.0742 17.0521 18.8788 17.1517C18.1352 17.5305 17.5306 18.1352 17.1518 18.8787C17.0522 19.0741 16.9034 19.4722 16.8157 20.5456C16.7242 21.6653 16.7211 23.1364 16.7211 25.4147C16.7211 25.9385 16.2965 26.3631 15.7727 26.3631H13.7178C13.194 26.3631 12.7694 25.9385 12.7694 25.4147C12.7694 21.0576 12.7694 18.845 13.5911 17.1643L13.6307 17.0847C14.3648 15.644 15.5225 14.4643 16.9461 13.7031L17.0848 13.6307C18.7754 12.7693 20.9886 12.7693 25.4148 12.7693C25.9386 12.7693 26.3632 13.1939 26.3632 13.7177V15.7726Z" fill="url(#paint11_linear_5_44)" fill-opacity="0.3"/>
<path id="Vector_19" d="M26.3632 15.7726C26.3632 16.2964 25.9386 16.721 25.4148 16.721C23.1365 16.721 21.6654 16.7242 20.5457 16.8156C19.4723 16.9033 19.0742 17.0521 18.8788 17.1517C18.1352 17.5305 17.5306 18.1352 17.1518 18.8787C17.0522 19.0741 16.9034 19.4722 16.8157 20.5456C16.7242 21.6653 16.7211 23.1364 16.7211 25.4147C16.7211 25.9385 16.2965 26.3631 15.7727 26.3631H13.7178C13.194 26.3631 12.7694 25.9385 12.7694 25.4147C12.7694 21.0576 12.7694 18.845 13.5911 17.1643L13.6307 17.0847C14.3648 15.644 15.5225 14.4643 16.9461 13.7031L17.0848 13.6307C18.7754 12.7693 20.9886 12.7693 25.4148 12.7693C25.9386 12.7693 26.3632 13.1939 26.3632 13.7177V15.7726Z" fill="url(#paint12_radial_5_44)" fill-opacity="0.3"/>
<path id="Vector_20" d="M47.5441 12.7693C51.9702 12.7693 54.1834 12.7693 55.8741 13.6307C57.3615 14.3884 58.5707 15.5976 59.328 17.0847C60.1893 18.7753 60.1894 20.9885 60.1894 25.4147C60.1894 25.9385 59.7649 26.3631 59.2409 26.3631H57.1864C56.6625 26.3631 56.238 25.9385 56.238 25.4147C56.238 23.1364 56.2348 21.6653 56.1431 20.5456C56.0556 19.4722 55.9069 19.0741 55.8071 18.8787C55.4282 18.1351 54.8236 17.5305 54.0804 17.1517C53.8848 17.0521 53.4867 16.9033 52.4134 16.8156C51.2935 16.7242 49.8226 16.721 47.5441 16.721C47.0202 16.721 46.5957 16.2964 46.5957 15.7726V13.7177C46.5957 13.1939 47.0202 12.7693 47.5441 12.7693Z" fill="#06A851"/>
<path id="Vector_21" d="M47.5441 12.7693C51.9702 12.7693 54.1834 12.7693 55.8741 13.6307C57.3615 14.3884 58.5707 15.5976 59.328 17.0847C60.1893 18.7753 60.1894 20.9885 60.1894 25.4147C60.1894 25.9385 59.7649 26.3631 59.2409 26.3631H57.1864C56.6625 26.3631 56.238 25.9385 56.238 25.4147C56.238 23.1364 56.2348 21.6653 56.1431 20.5456C56.0556 19.4722 55.9069 19.0741 55.8071 18.8787C55.4282 18.1351 54.8236 17.5305 54.0804 17.1517C53.8848 17.0521 53.4867 16.9033 52.4134 16.8156C51.2935 16.7242 49.8226 16.721 47.5441 16.721C47.0202 16.721 46.5957 16.2964 46.5957 15.7726V13.7177C46.5957 13.1939 47.0202 12.7693 47.5441 12.7693Z" fill="url(#paint13_linear_5_44)" fill-opacity="0.3"/>
<path id="Vector_22" d="M47.5441 12.7693C51.9702 12.7693 54.1834 12.7693 55.8741 13.6307C57.3615 14.3884 58.5707 15.5976 59.328 17.0847C60.1893 18.7753 60.1894 20.9885 60.1894 25.4147C60.1894 25.9385 59.7649 26.3631 59.2409 26.3631H57.1864C56.6625 26.3631 56.238 25.9385 56.238 25.4147C56.238 23.1364 56.2348 21.6653 56.1431 20.5456C56.0556 19.4722 55.9069 19.0741 55.8071 18.8787C55.4282 18.1351 54.8236 17.5305 54.0804 17.1517C53.8848 17.0521 53.4867 16.9033 52.4134 16.8156C51.2935 16.7242 49.8226 16.721 47.5441 16.721C47.0202 16.721 46.5957 16.2964 46.5957 15.7726V13.7177C46.5957 13.1939 47.0202 12.7693 47.5441 12.7693Z" fill="url(#paint14_radial_5_44)" fill-opacity="0.3"/>
<path id="Vector_23" d="M49.9152 20.6727C51.2247 20.6727 52.2862 21.7342 52.2862 23.0437C52.2862 24.3532 51.2247 25.4147 49.9152 25.4147C48.6056 25.4147 47.5442 24.3532 47.5442 23.0437C47.5442 21.7342 48.6056 20.6727 49.9152 20.6727Z" fill="#06A851"/>
<path id="Vector_24" d="M49.9152 20.6727C51.2247 20.6727 52.2862 21.7342 52.2862 23.0437C52.2862 24.3532 51.2247 25.4147 49.9152 25.4147C48.6056 25.4147 47.5442 24.3532 47.5442 23.0437C47.5442 21.7342 48.6056 20.6727 49.9152 20.6727Z" fill="url(#paint15_linear_5_44)" fill-opacity="0.3"/>
<path id="Vector_25" d="M49.9152 20.6727C51.2247 20.6727 52.2862 21.7342 52.2862 23.0437C52.2862 24.3532 51.2247 25.4147 49.9152 25.4147C48.6056 25.4147 47.5442 24.3532 47.5442 23.0437C47.5442 21.7342 48.6056 20.6727 49.9152 20.6727Z" fill="url(#paint16_radial_5_44)" fill-opacity="0.3"/>
</g>
</g>
<defs>
<linearGradient id="paint0_linear_5_44" x1="0" y1="72.954" x2="80.8545" y2="62.7788" gradientUnits="userSpaceOnUse">
<stop stop-color="#EEEDF1"/>
<stop offset="0.5" stop-color="white"/>
<stop offset="1" stop-color="#EEEDF1"/>
</linearGradient>
<linearGradient id="paint1_linear_5_44" x1="36.4795" y1="12.7693" x2="12.7694" y2="60.1894" gradientUnits="userSpaceOnUse">
<stop offset="0.182872" stop-opacity="0"/>
<stop offset="1"/>
</linearGradient>
<radialGradient id="paint2_radial_5_44" cx="0" cy="0" r="1" gradientUnits="userSpaceOnUse" gradientTransform="translate(40.7473 23.1227) rotate(62.3221) scale(41.8562 41.8562)">
<stop stop-color="#FFE414"/>
<stop offset="1" stop-color="#FFE414" stop-opacity="0"/>
</radialGradient>
<linearGradient id="paint3_linear_5_44" x1="36.4795" y1="12.7693" x2="12.7694" y2="60.1894" gradientUnits="userSpaceOnUse">
<stop offset="0.182872" stop-opacity="0"/>
<stop offset="1"/>
</linearGradient>
<radialGradient id="paint4_radial_5_44" cx="0" cy="0" r="1" gradientUnits="userSpaceOnUse" gradientTransform="translate(40.7473 23.1227) rotate(62.3221) scale(41.8562)">
<stop stop-color="#FFE414"/>
<stop offset="1" stop-color="#FFE414" stop-opacity="0"/>
</radialGradient>
<linearGradient id="paint5_linear_5_44" x1="36.4795" y1="12.7693" x2="12.7694" y2="60.1894" gradientUnits="userSpaceOnUse">
<stop offset="0.182872" stop-opacity="0"/>
<stop offset="1"/>
</linearGradient>
<radialGradient id="paint6_radial_5_44" cx="0" cy="0" r="1" gradientUnits="userSpaceOnUse" gradientTransform="translate(40.7473 23.1227) rotate(62.3221) scale(41.8562 41.8562)">
<stop stop-color="#FFE414"/>
<stop offset="1" stop-color="#FFE414" stop-opacity="0"/>
</radialGradient>
<linearGradient id="paint7_linear_5_44" x1="36.4795" y1="12.7693" x2="12.7694" y2="60.1894" gradientUnits="userSpaceOnUse">
<stop offset="0.182872" stop-opacity="0"/>
<stop offset="1"/>
</linearGradient>
<radialGradient id="paint8_radial_5_44" cx="0" cy="0" r="1" gradientUnits="userSpaceOnUse" gradientTransform="translate(40.7473 23.1228) rotate(62.3221) scale(41.8562)">
<stop stop-color="#FFE414"/>
<stop offset="1" stop-color="#FFE414" stop-opacity="0"/>
</radialGradient>
<linearGradient id="paint9_linear_5_44" x1="36.4795" y1="12.7693" x2="12.7694" y2="60.1894" gradientUnits="userSpaceOnUse">
<stop offset="0.182872" stop-opacity="0"/>
<stop offset="1"/>
</linearGradient>
<radialGradient id="paint10_radial_5_44" cx="0" cy="0" r="1" gradientUnits="userSpaceOnUse" gradientTransform="translate(40.7473 23.1227) rotate(62.3221) scale(41.8562)">
<stop stop-color="#FFE414"/>
<stop offset="1" stop-color="#FFE414" stop-opacity="0"/>
</radialGradient>
<linearGradient id="paint11_linear_5_44" x1="36.4795" y1="12.7693" x2="12.7694" y2="60.1894" gradientUnits="userSpaceOnUse">
<stop offset="0.182872" stop-opacity="0"/>
<stop offset="1"/>
</linearGradient>
<radialGradient id="paint12_radial_5_44" cx="0" cy="0" r="1" gradientUnits="userSpaceOnUse" gradientTransform="translate(40.7473 23.1227) rotate(62.3221) scale(41.8562 41.8562)">
<stop stop-color="#FFE414"/>
<stop offset="1" stop-color="#FFE414" stop-opacity="0"/>
</radialGradient>
<linearGradient id="paint13_linear_5_44" x1="36.4795" y1="12.7693" x2="12.7694" y2="60.1894" gradientUnits="userSpaceOnUse">
<stop offset="0.182872" stop-opacity="0"/>
<stop offset="1"/>
</linearGradient>
<radialGradient id="paint14_radial_5_44" cx="0" cy="0" r="1" gradientUnits="userSpaceOnUse" gradientTransform="translate(40.7473 23.1227) rotate(62.3221) scale(41.8562 41.8562)">
<stop stop-color="#FFE414"/>
<stop offset="1" stop-color="#FFE414" stop-opacity="0"/>
</radialGradient>
<linearGradient id="paint15_linear_5_44" x1="36.4795" y1="12.7693" x2="12.7694" y2="60.1893" gradientUnits="userSpaceOnUse">
<stop offset="0.182872" stop-opacity="0"/>
<stop offset="1"/>
</linearGradient>
<radialGradient id="paint16_radial_5_44" cx="0" cy="0" r="1" gradientUnits="userSpaceOnUse" gradientTransform="translate(40.7473 23.1227) rotate(62.3221) scale(41.8562 41.8562)">
<stop stop-color="#FFE414"/>
<stop offset="1" stop-color="#FFE414" stop-opacity="0"/>
</radialGradient>
<clipPath id="clip0_5_44">
<rect width="72.954" height="72.954" rx="21.8862" fill="white"/>
</clipPath>
</defs>
</svg>
