<svg width="53" height="53" viewBox="0 0 53 53" fill="none" xmlns="http://www.w3.org/2000/svg">
  <rect width="53" height="53" rx="12" fill="#1A1A2E"/>
  <!-- Purple bottom bar -->
  <rect y="41.25" width="53" height="11.75" rx="0 0 12 12" fill="#5C3DFB"/>
  <path d="M0 41.25H53V41.25C53 47.7013 47.7013 53 41.25 53H11.75C5.29873 53 0 47.7013 0 41.25V41.25Z" fill="#5C3DFB"/>
  <!-- PS text -->
  <g transform="translate(7.5, 14) scale(0.7)" fill="white">
    <path d="M0 20.8V0.28H8.35C9.86 0.28 11.16 0.58 12.26 1.18C13.37 1.78 14.22 2.61 14.82 3.68C15.42 4.74 15.72 5.97 15.72 7.38C15.72 8.8 15.41 10.04 14.8 11.1C14.19 12.16 13.33 12.97 12.2 13.56C11.08 14.14 9.74 14.43 8.2 14.43H3.05V10.52H7.29C8.03 10.52 8.64 10.39 9.14 10.13C9.64 9.87 10.01 9.5 10.27 9.04C10.53 8.56 10.65 8.01 10.65 7.38C10.65 6.75 10.53 6.2 10.27 5.74C10.01 5.27 9.64 4.91 9.14 4.66C8.64 4.4 8.02 4.28 7.29 4.28H4.88V20.8H0Z"/>
    <path d="M28.35 6.43C28.28 5.7 27.99 5.13 27.47 4.72C26.96 4.3 26.23 4.1 25.27 4.1C24.64 4.1 24.11 4.18 23.69 4.35C23.27 4.51 22.96 4.75 22.75 5.04C22.54 5.33 22.43 5.66 22.42 6.03C22.41 6.34 22.47 6.61 22.6 6.84C22.74 7.08 22.93 7.28 23.19 7.46C23.45 7.64 23.77 7.79 24.14 7.92C24.51 8.06 24.92 8.18 25.38 8.28L27.12 8.68C28.12 8.9 29 9.19 29.76 9.56C30.53 9.92 31.17 10.36 31.69 10.87C32.22 11.38 32.62 11.96 32.89 12.62C33.16 13.28 33.3 14.03 33.3 14.85C33.3 16.14 32.97 17.26 32.34 18.18C31.7 19.11 30.78 19.82 29.58 20.32C28.39 20.81 26.96 21.06 25.27 21.06C23.58 21.06 22.11 20.8 20.85 20.29C19.6 19.77 18.62 18.99 17.92 17.94C17.22 16.89 16.87 15.57 16.85 13.97H21.52C21.56 14.63 21.74 15.18 22.05 15.62C22.35 16.06 22.78 16.39 23.32 16.62C23.86 16.85 24.5 16.96 25.21 16.96C25.87 16.96 26.43 16.87 26.89 16.69C27.36 16.51 27.72 16.26 27.97 15.94C28.21 15.62 28.34 15.25 28.35 14.84C28.34 14.45 28.22 14.12 27.99 13.85C27.76 13.56 27.41 13.32 26.93 13.12C26.46 12.92 25.85 12.73 25.11 12.55L23 12.05C21.25 11.64 19.88 10.99 18.87 10.08C17.86 9.16 17.36 7.93 17.37 6.37C17.36 5.1 17.7 3.99 18.38 3.04C19.05 2.08 19.99 1.34 21.19 0.8C22.38 0.27 23.75 0 25.28 0C26.85 0 28.21 0.27 29.36 0.81C30.51 1.35 31.41 2.1 32.05 3.07C32.69 4.03 33.01 5.16 33.03 6.43H28.35Z"/>
  </g>
  <defs>
    <linearGradient id="psbg" x1="0" y1="0" x2="53" y2="53" gradientUnits="userSpaceOnUse">
      <stop stop-color="#2D2D3E"/>
      <stop offset="1" stop-color="#1A1A2E"/>
    </linearGradient>
  </defs>
</svg>