<svg preserveAspectRatio="none" width="100%" height="100%" overflow="visible" style="display: block;" viewBox="0 0 33.3022 21.0587" fill="none" xmlns="http://www.w3.org/2000/svg">
<g id="Group">
<path id="Vector" d="M1.27691e-05 20.7983V0.280569L8.34627 0.280569C9.85902 0.280569 11.1646 0.58112 12.2629 1.18222C13.3678 1.77667 14.2196 2.60819 14.8181 3.6768C15.4166 4.73875 15.7158 5.97436 15.7158 7.38362C15.7158 8.79955 15.41 10.0385 14.7984 11.1004C14.1932 12.1557 13.3284 12.9739 12.2037 13.555C11.0791 14.136 9.74388 14.4266 8.19832 14.4266H3.04848V10.5194H7.29069C8.0273 10.5194 8.64227 10.3891 9.13553 10.1287C9.6354 9.86821 10.0136 9.50419 10.2701 9.03664C10.5266 8.56247 10.6548 8.01142 10.6548 7.38362C10.6548 6.74912 10.5266 6.20145 10.2701 5.7406C10.0136 5.27305 9.6354 4.91241 9.13553 4.65863C8.63565 4.4048 8.02074 4.27791 7.29069 4.27791H4.88348V20.7983H1.27691e-05Z" fill="var(--fill-0, white)"/>
<path id="Vector_2" d="M28.3497 6.43182C28.284 5.69712 27.9913 5.12608 27.4717 4.71867C26.9587 4.3046 26.2253 4.09754 25.2716 4.09754C24.6403 4.09754 24.1141 4.18104 23.6932 4.34799C23.2722 4.51499 22.9566 4.74541 22.7461 5.03925C22.5356 5.32648 22.4271 5.65706 22.4205 6.03107C22.4074 6.33833 22.4666 6.60881 22.5981 6.84256C22.7362 7.07637 22.9335 7.28338 23.19 7.4637C23.4531 7.63736 23.7688 7.79099 24.1371 7.92459C24.5054 8.05814 24.9198 8.17504 25.3802 8.27519L27.1165 8.67595C28.1162 8.89638 28.9976 9.19022 29.7605 9.55757C30.53 9.92492 31.1745 10.3624 31.6942 10.87C32.2203 11.3776 32.6182 11.962 32.8879 12.6232C33.1575 13.2844 33.2956 14.0258 33.3022 14.8473C33.2956 16.143 32.9734 17.2551 32.3354 18.1834C31.6974 19.1118 30.7799 19.8231 29.5829 20.3174C28.3924 20.8116 26.9554 21.0587 25.2716 21.0587C23.5814 21.0587 22.1081 20.8016 20.8519 20.2873C19.5957 19.773 18.619 18.9916 17.9218 17.943C17.2247 16.8944 16.8662 15.5686 16.8465 13.9657H21.5227C21.5622 14.6269 21.7365 15.1779 22.0456 15.6187C22.3548 16.0595 22.779 16.3935 23.3183 16.6206C23.8642 16.8477 24.4956 16.9612 25.2125 16.9612C25.8701 16.9612 26.4292 16.871 26.8896 16.6907C27.3566 16.5104 27.715 16.2599 27.965 15.9393C28.2149 15.6187 28.3431 15.2514 28.3497 14.8373C28.3431 14.4499 28.2248 14.1193 27.9945 13.8455C27.7644 13.5649 27.4092 13.3245 26.9291 13.1241C26.4555 12.9171 25.8505 12.7267 25.1138 12.5531L23.0026 12.0521C21.2531 11.6447 19.8752 10.9869 18.8689 10.0785C17.8626 9.16353 17.3628 7.92792 17.3693 6.37173C17.3628 5.10272 17.6982 3.99067 18.3756 3.03559C19.0531 2.0805 19.9903 1.33581 21.1873 0.801456C22.3843 0.267153 23.7491 0 25.2815 0C26.8469 0 28.205 0.270483 29.356 0.811496C30.5135 1.3458 31.4113 2.0972 32.0493 3.06566C32.6872 4.03407 33.0128 5.15615 33.026 6.43182H28.3497Z" fill="var(--fill-0, white)"/>
</g>
</svg>
