<svg preserveAspectRatio="xMidYMid meet" width="100%" height="100%" overflow="hidden" style="display: block;" viewBox="0 0 44.3895 44.3895" fill="none" xmlns="http://www.w3.org/2000/svg">
<g id="show id caller 1">
<g clip-path="url(#clip0_5_4)">
<path id="Vector" d="M38.8408 0H5.54869C2.48423 0 0 2.48423 0 5.54869V38.8408C0 41.9053 2.48423 44.3895 5.54869 44.3895H38.8408C41.9053 44.3895 44.3895 41.9053 44.3895 38.8408V5.54869C44.3895 2.48423 41.9053 0 38.8408 0Z" fill="url(#paint0_linear_5_4)"/>
<path id="Vector_2" d="M22.1949 7.39825H22.1948C14.0229 7.39825 7.39829 14.0229 7.39829 22.1947V22.1949C7.39829 30.3667 14.0229 36.9913 22.1948 36.9913H22.1949C30.3668 36.9913 36.9914 30.3667 36.9914 22.1949V22.1947C36.9914 14.0229 30.3668 7.39825 22.1949 7.39825Z" fill="url(#paint1_linear_5_4)" fill-opacity="0.5"/>
<path id="Vector_3" d="M36.7857 22.1947C36.7857 14.1364 30.2531 7.60375 22.1948 7.60375C14.1364 7.60375 7.60379 14.1364 7.60379 22.1947C7.60379 30.2531 14.1364 36.7857 22.1948 36.7857C30.2531 36.7857 36.7857 30.2531 36.7857 22.1947Z" stroke="white" stroke-opacity="0.1" stroke-width="0.411014"/>
<path id="Vector_4" d="M21.2837 25.0238L19.5095 26.7981C19.1355 27.1721 18.5409 27.1721 18.1573 26.8076C18.0518 26.7022 17.9463 26.6062 17.8408 26.5008C16.853 25.5034 15.9611 24.458 15.1651 23.3647C14.3787 22.2714 13.7457 21.1781 13.2854 20.0944C12.8347 19.0011 12.6045 17.9558 12.6045 16.9584C12.6045 16.3062 12.7195 15.6829 12.9497 15.1074C13.1799 14.5224 13.5443 13.9854 14.0526 13.5059C14.6664 12.9017 15.3377 12.6044 16.0474 12.6044C16.3159 12.6044 16.5845 12.6619 16.8242 12.777C17.0736 12.8921 17.2941 13.0647 17.4668 13.3141L19.6917 16.4501C19.8643 16.6898 19.989 16.9104 20.0753 17.1214C20.1616 17.3228 20.2096 17.5242 20.2096 17.7064C20.2096 17.9366 20.1425 18.1668 20.0082 18.3873C19.8835 18.6079 19.7013 18.8381 19.4711 19.0682L18.7423 19.8259C18.6368 19.9314 18.5888 20.056 18.5888 20.2095C18.5888 20.2862 18.5984 20.3533 18.6176 20.4301C18.6464 20.5068 18.6751 20.5643 18.6943 20.6219C18.867 20.9384 19.1643 21.3507 19.5862 21.8494C20.0178 22.3482 20.4781 22.8564 20.9768 23.3647C21.0727 23.4606 21.1782 23.5565 21.2741 23.6524C21.6577 24.0265 21.6673 24.6402 21.2837 25.0238Z" fill="white"/>
<path id="Vector_5" d="M31.7562 28.2653C31.7562 28.5339 31.7085 28.8121 31.6125 29.0804C31.5837 29.1573 31.5548 29.2341 31.5165 29.3107C31.3534 29.6558 31.1425 29.9821 30.8645 30.2889C30.3946 30.8069 29.8766 31.1809 29.2915 31.4206C29.2821 31.4206 29.2723 31.4303 29.2629 31.4303C28.697 31.6603 28.0833 31.7851 27.4215 31.7851C26.4433 31.7851 25.3979 31.5548 24.295 31.0849C23.1922 30.6149 22.0893 29.9821 20.996 29.1861C20.6219 28.9078 20.2479 28.6299 19.8931 28.3324L23.0291 25.1964C23.2977 25.3978 23.5374 25.5513 23.7388 25.6568C23.7867 25.676 23.8443 25.7047 23.9114 25.7335C23.9881 25.7623 24.0649 25.7719 24.1512 25.7719C24.3142 25.7719 24.4389 25.7143 24.5444 25.6088L25.2732 24.8895C25.513 24.6498 25.7432 24.4676 25.9637 24.3525C26.1843 24.2182 26.4049 24.1511 26.6447 24.1511C26.8269 24.1511 27.0187 24.1895 27.2297 24.2758C27.4407 24.3621 27.6613 24.4868 27.901 24.6498L31.0754 26.9035C31.3248 27.0761 31.4974 27.2775 31.6028 27.5173C31.6988 27.757 31.7562 27.9967 31.7562 28.2653Z" fill="white"/>
<path id="Vector_6" d="M30.6382 8.57277C30.9689 8.28984 31.5107 8.28984 31.8464 8.57277L32.6041 9.2249C32.748 9.34958 33.0166 9.45029 33.2083 9.45029H34.0234C34.5317 9.45029 34.9489 9.86747 34.9489 10.3758V11.1909C34.9489 11.3779 35.0496 11.6513 35.1742 11.7951L35.8265 12.5528C36.1094 12.8836 36.1094 13.4255 35.8265 13.7611L35.1742 14.5188C35.0496 14.6626 34.9489 14.9311 34.9489 15.123V15.9381C34.9489 16.4464 34.5317 16.8636 34.0234 16.8636H33.2083C33.0213 16.8636 32.748 16.9643 32.6041 17.089L31.8464 17.7411C31.5157 18.024 30.9738 18.024 30.6382 17.7411L29.8805 17.089C29.7365 16.9643 29.4679 16.8636 29.2762 16.8636H28.4467C27.9384 16.8636 27.5212 16.4464 27.5212 15.9381V15.1182C27.5212 14.9311 27.4205 14.6626 27.3006 14.5188L26.6533 13.7563C26.3752 13.4255 26.3752 12.8884 26.6533 12.5576L27.3006 11.7951C27.4205 11.6513 27.5212 11.3827 27.5212 11.1957V10.371C27.5212 9.86267 27.9384 9.44549 28.4467 9.44549H29.2762C29.4632 9.44549 29.7365 9.34478 29.8805 9.2201L30.6382 8.57277Z" fill="#17E886"/>
<path id="Vector_7" d="M29.5015 13.1523L30.6573 14.3127L32.9734 11.9919" stroke="white" stroke-width="0.61652" stroke-linecap="round" stroke-linejoin="round"/>
</g>
</g>
<defs>
<linearGradient id="paint0_linear_5_4" x1="0" y1="0" x2="44.3895" y2="44.3895" gradientUnits="userSpaceOnUse">
<stop stop-color="#35A2FD"/>
<stop offset="1" stop-color="#0265B5"/>
</linearGradient>
<linearGradient id="paint1_linear_5_4" x1="12.8109" y1="10.7804" x2="25.1145" y2="28.821" gradientUnits="userSpaceOnUse">
<stop stop-color="white" stop-opacity="0.5"/>
<stop offset="1" stop-color="white" stop-opacity="0.1"/>
</linearGradient>
<clipPath id="clip0_5_4">
<rect width="44.3895" height="44.3895" rx="13.3169" fill="white"/>
</clipPath>
</defs>
</svg>
