<svg preserveAspectRatio="xMidYMid meet" width="100%" height="100%" overflow="hidden" style="display: block;" viewBox="0 0 60.8376 60.8376" fill="none" xmlns="http://www.w3.org/2000/svg">
<g id="trade 1">
<g clip-path="url(#clip0_5_172)">
<path id="Vector" d="M53.2329 0H7.6047C3.40474 0 0 3.40474 0 7.6047V53.2329C0 57.4328 3.40474 60.8376 7.6047 60.8376H53.2329C57.4328 60.8376 60.8376 57.4328 60.8376 53.2329V7.6047C60.8376 3.40474 57.4328 0 53.2329 0Z" fill="black"/>
<path id="Vector_2" d="M28.3911 27.8058C30.1236 27.9325 31.5012 29.3102 31.628 31.0426L31.8051 33.4655C31.8347 33.8713 32.4301 33.8713 32.4597 33.4655L32.6368 31.0426C32.6834 30.4064 32.8988 29.8181 33.2384 29.322C33.5452 28.874 33.6985 28.65 33.9683 28.7335C34.238 28.817 34.238 29.1293 34.238 29.7539V40.5672C34.238 41.7908 34.2377 42.403 34.0379 42.8855C33.7713 43.5289 33.2601 44.0399 32.6168 44.3065C31.9253 44.5932 31.5795 44.7365 31.4842 44.7932C30.9495 45.1114 30.8416 45.2726 30.752 45.8886C30.736 45.9981 30.7364 46.1346 30.7364 46.4069V48.9929C30.7364 49.2343 30.5402 49.4305 30.2986 49.4305C30.0569 49.4305 29.8612 49.2343 29.8612 48.9929V46.4069C29.8612 46.1346 29.8612 45.9981 29.8452 45.8886C29.7556 45.2726 29.6477 45.1114 29.113 44.7932C29.0177 44.7365 28.6721 44.5932 27.9808 44.3065C27.3374 44.0403 26.8259 43.5289 26.5594 42.8855C26.3595 42.403 26.3596 41.7908 26.3596 40.5672V28.4813C26.3596 28.0954 26.3596 27.9024 26.4819 27.7888C26.6041 27.6752 26.7965 27.6892 27.1814 27.7174L28.3911 27.8058ZM20.7244 18.5194C20.9661 18.5194 21.1618 18.7155 21.1618 18.9572V21.2144C21.1618 21.4549 21.162 21.5753 21.1737 21.6697C21.2545 22.317 21.3696 22.4895 21.9368 22.8119C22.0196 22.8589 22.3423 22.9928 22.9876 23.2601C23.6311 23.5266 24.1422 24.038 24.4087 24.6815C24.6086 25.164 24.6088 25.7758 24.6088 26.9993V33.8383C24.6088 35.0618 24.6086 35.6735 24.4087 36.1561C24.1422 36.7996 23.6311 37.311 22.9876 37.5775C22.3424 37.8448 22.0196 37.9783 21.9368 38.0254C21.3695 38.3478 21.2545 38.5204 21.1737 39.168C21.162 39.2623 21.1618 39.3824 21.1618 39.6227V41.8806C21.1618 42.122 20.9661 42.3182 20.7244 42.3182C20.4827 42.3182 20.2867 42.122 20.2866 41.8806V39.7322C20.2866 39.4281 20.2866 39.2756 20.2658 39.1509C20.1686 38.5664 20.0679 38.4163 19.5652 38.1026C19.4575 38.0356 19.0888 37.8828 18.3517 37.5775C17.7082 37.311 17.1968 36.7996 16.9303 36.1561C16.7304 35.6735 16.7305 35.0617 16.7305 33.8383C16.7305 33.815 16.7547 33.7997 16.7756 33.81C17.6175 34.2253 18.2265 35.0349 18.3647 36.0016C18.3903 36.1812 18.6494 36.1812 18.6751 36.0016C18.8575 34.7251 19.8605 33.7222 21.137 33.5398C21.3165 33.5141 21.3165 33.2546 21.137 33.229C19.8605 33.0465 18.8575 32.0436 18.6751 30.7671C18.6494 30.5876 18.3903 30.5876 18.3647 30.7671C18.2839 31.3327 18.0418 31.8443 17.6863 32.2547C17.3813 32.6069 17.2288 32.7829 16.9796 32.69C16.7305 32.5971 16.7305 32.3219 16.7305 31.7715V26.9993C16.7305 25.7759 16.7304 25.164 16.9303 24.6815C17.1968 24.038 17.7082 23.5266 18.3517 23.2601C19.0891 22.9547 19.4581 22.802 19.5655 22.735C20.0681 22.4216 20.1686 22.2711 20.2658 21.6868C20.2866 21.5618 20.2866 21.4094 20.2866 21.1049V18.9572C20.2866 18.7154 20.4827 18.5194 20.7244 18.5194ZM39.9273 18.5194C40.1691 18.5194 40.3653 18.7154 40.3653 18.9572V21.1599C40.3653 21.4322 40.3653 21.5685 40.3813 21.6782C40.4706 22.2941 40.5782 22.4552 41.1129 22.7736C41.2083 22.8304 41.5543 22.9737 42.2456 23.2601C42.8889 23.5266 43.4 24.038 43.6665 24.6815C43.8665 25.164 43.8669 25.7758 43.8669 26.9993C43.8669 27.0222 43.8437 27.0378 43.8224 27.0289C43.0494 26.6998 42.4828 25.9866 42.3596 25.1252C42.338 24.9739 42.1193 24.9739 42.0977 25.1252C41.944 26.2011 41.0988 27.0465 40.0227 27.2002C39.8714 27.2218 39.8714 27.44 40.0227 27.4616C41.0988 27.6153 41.944 28.4607 42.0977 29.5365C42.1193 29.6879 42.338 29.6879 42.3596 29.5365C42.4288 29.0505 42.6395 28.6115 42.9486 28.2621C43.2311 27.943 43.3722 27.7835 43.6194 27.8772C43.8669 27.9709 43.8669 28.2298 43.8669 28.7477V33.8383C43.8669 35.0618 43.8665 35.6735 43.6665 36.1561C43.4 36.7996 42.8889 37.311 42.2456 37.5775C41.5543 37.8639 41.2083 38.0072 41.1129 38.0642C40.5782 38.3824 40.4706 38.5436 40.3813 39.1592C40.3653 39.2691 40.3653 39.4052 40.3653 39.6775V41.8806C40.3653 42.122 40.1691 42.3182 39.9273 42.3182C39.6858 42.3182 39.49 42.122 39.49 41.8806V39.6775C39.49 39.4052 39.49 39.2691 39.474 39.1592C39.3843 38.5433 39.2767 38.382 38.7417 38.0638C38.6463 38.0068 38.3006 37.8637 37.6096 37.5775C36.9662 37.311 36.4547 36.7996 36.1882 36.1561C35.9883 35.6735 35.9884 35.0617 35.9884 33.8383V28.5093C35.9884 28.1716 35.9884 28.0028 36.0909 27.8925C36.1934 27.7823 36.3618 27.77 36.6986 27.7454L38.2965 27.6287C38.7022 27.599 38.7022 27.0037 38.2965 26.974L36.6992 26.8571C36.3598 26.8322 36.1901 26.8198 36.0873 26.7073C35.9845 26.5947 35.9874 26.4273 35.9933 26.0926C36.0047 25.4383 36.0452 25.0268 36.1882 24.6815C36.4547 24.038 36.9662 23.5266 37.6096 23.2601C38.3006 22.9739 38.6463 22.8308 38.7417 22.774C39.2767 22.4555 39.3843 22.2942 39.474 21.6782C39.49 21.5685 39.49 21.4323 39.49 21.1599V18.9572C39.49 18.7155 39.6858 18.5194 39.9273 18.5194ZM30.2986 11.4071C30.5403 11.4071 30.7364 11.6032 30.7364 11.8448V14.4304C30.7364 14.703 30.7364 14.8394 30.7524 14.9491C30.842 15.565 30.9495 15.726 31.4842 16.0445C31.5796 16.1013 31.9254 16.2446 32.6168 16.5309C33.2601 16.7975 33.7713 17.3087 34.0379 17.952C34.2377 18.4346 34.238 19.0466 34.238 20.2702V24.8488C34.238 25.4734 34.238 25.7857 33.9683 25.8692C33.6985 25.9526 33.5451 25.7287 33.2384 25.2807C32.8987 24.7846 32.6833 24.1963 32.6368 23.5601L32.4597 21.1372C32.43 20.7315 31.8348 20.7315 31.8051 21.1372L31.628 23.5601C31.5013 25.2926 30.1236 26.6703 28.3911 26.7969L27.1813 26.8851C26.7964 26.9132 26.604 26.9272 26.4818 26.8136C26.3596 26.7 26.3596 26.5071 26.3596 26.1212V20.2702C26.3596 19.0466 26.3595 18.4346 26.5594 17.952C26.8259 17.3086 27.3374 16.7975 27.9808 16.5309C28.6721 16.2446 29.0177 16.1013 29.113 16.0445C29.6477 15.726 29.7556 15.565 29.8452 14.9491C29.8612 14.8394 29.8612 14.703 29.8612 14.4304V11.8448C29.8612 11.6032 30.0569 11.4071 30.2986 11.4071Z" fill="white"/>
</g>
</g>
<defs>
<clipPath id="clip0_5_172">
<rect width="60.8376" height="60.8376" rx="18.2513" fill="white"/>
</clipPath>
</defs>
</svg>
